<ttFont>
    <TTGlyph name=".notdef" xMin="213" yMin="0" xMax="1835" yMax="2904">
      <contour>
        <pt x="213" y="0" on="1"/>
        <pt x="213" y="2904" on="1"/>
        <pt x="1835" y="2904" on="1"/>
        <pt x="1835" y="0" on="1"/>
      </contour>
      <contour>
        <pt x="1085" y="721" on="1"/>
        <pt x="1085" y="757" on="0"/>
        <pt x="1001" y="838" on="0"/>
        <pt x="976" y="867" on="1"/>
        <pt x="918" y="936" on="0"/>
        <pt x="918" y="1089" on="0"/>
        <pt x="976" y="1193" on="0"/>
        <pt x="1085" y="1301" on="0"/>
        <pt x="1146" y="1354" on="1"/>
        <pt x="1471" y="1636" on="0"/>
        <pt x="1521" y="1780" on="1"/>
        <pt x="1544" y="1847" on="0"/>
        <pt x="1544" y="2033" on="0"/>
        <pt x="1473" y="2223" on="0"/>
        <pt x="1359" y="2380" on="0"/>
        <pt x="1216" y="2522" on="0"/>
        <pt x="1145" y="2570" on="1"/>
        <pt x="992" y="2675" on="0"/>
        <pt x="846" y="2675" on="0"/>
        <pt x="715" y="2616" on="0"/>
        <pt x="668" y="2576" on="1"/>
        <pt x="557" y="2481" on="0"/>
        <pt x="557" y="2355" on="0"/>
        <pt x="627" y="2355" on="1"/>
        <pt x="852" y="2359" on="1"/>
        <pt x="964" y="2359" on="0"/>
        <pt x="1181" y="2269" on="0"/>
        <pt x="1311" y="2138" on="0"/>
        <pt x="1311" y="2005" on="0"/>
        <pt x="1240" y="1868" on="0"/>
        <pt x="1126" y="1753" on="0"/>
        <pt x="988" y="1639" on="0"/>
        <pt x="849" y="1518" on="0"/>
        <pt x="792" y="1454" on="1"/>
        <pt x="664" y="1312" on="0"/>
        <pt x="664" y="1143" on="1"/>
        <pt x="664" y="903" on="0"/>
        <pt x="846" y="740" on="1"/>
        <pt x="941" y="655" on="0"/>
        <pt x="1085" y="655" on="0"/>
      </contour>
      <contour>
        <pt x="940" y="528" on="0"/>
        <pt x="786" y="393" on="0"/>
        <pt x="786" y="291" on="0"/>
        <pt x="926" y="142" on="0"/>
        <pt x="1013" y="140" on="0"/>
        <pt x="1089" y="194" on="0"/>
        <pt x="1116" y="228" on="1"/>
        <pt x="1180" y="307" on="0"/>
        <pt x="1180" y="387" on="0"/>
        <pt x="1044" y="528" on="0"/>
      </contour>
    </TTGlyph>
    <TTGlyph name="A" xMin="111" yMin="0" xMax="2863" yMax="2830">
      <contour>
        <pt x="111" y="160" on="1"/>
        <pt x="160" y="160" on="1"/>
        <pt x="270" y="160" on="0"/>
        <pt x="344" y="236" on="0"/>
        <pt x="441" y="453" on="0"/>
        <pt x="594" y="794" on="0"/>
        <pt x="828" y="1315" on="0"/>
        <pt x="932" y="1545" on="0"/>
        <pt x="1008" y="1710" on="0"/>
        <pt x="1036" y="1776" on="0"/>
        <pt x="1053" y="1815" on="1"/>
        <pt x="1470" y="2830" on="1"/>
        <pt x="1556" y="2830" on="1"/>
        <pt x="1804" y="2183" on="0"/>
        <pt x="2562" y="348" on="0"/>
        <pt x="2642" y="198" on="0"/>
        <pt x="2727" y="160" on="0"/>
        <pt x="2802" y="160" on="1"/>
        <pt x="2863" y="160" on="1"/>
        <pt x="2859" y="0" on="1"/>
        <pt x="1925" y="0" on="1"/>
        <pt x="1929" y="160" on="1"/>
        <pt x="2052" y="160" on="1"/>
        <pt x="2154" y="160" on="0"/>
        <pt x="2232" y="177" on="0"/>
        <pt x="2232" y="209" on="1"/>
        <pt x="2232" y="232" on="0"/>
        <pt x="2195" y="325" on="0"/>
        <pt x="2191" y="336" on="1"/>
        <pt x="1888" y="1081" on="1"/>
        <pt x="938" y="1081" on="1"/>
        <pt x="614" y="360" on="1"/>
        <pt x="573" y="260" on="0"/>
        <pt x="573" y="182" on="0"/>
        <pt x="636" y="160" on="0"/>
        <pt x="741" y="160" on="1"/>
        <pt x="909" y="160" on="1"/>
        <pt x="909" y="0" on="1"/>
        <pt x="115" y="0" on="1"/>
      </contour>
      <contour>
        <pt x="1016" y="1262" on="1"/>
        <pt x="1819" y="1262" on="1"/>
        <pt x="1430" y="2232" on="1"/>
      </contour>
    </TTGlyph>
    <TTGlyph name="A.c2" xMin="111" yMin="0" xMax="1860" yMax="1671">
      <component glyphName="a.sc" x="0" y="0" flags="0x1004"/>
    </TTGlyph>
    <TTGlyph name="AE" xMin="111" yMin="0" xMax="4162" yMax="2732">
      <contour>
        <pt x="2769" y="188" on="1"/>
        <pt x="3588" y="196" on="0"/>
        <pt x="3901" y="222" on="0"/>
        <pt x="3945" y="266" on="0"/>
        <pt x="3968" y="331" on="0"/>
        <pt x="4022" y="655" on="1"/>
        <pt x="4162" y="635" on="1"/>
        <pt x="4059" y="0" on="1"/>
        <pt x="1987" y="0" on="1"/>
        <pt x="1987" y="160" on="1"/>
        <pt x="2044" y="160" on="1"/>
        <pt x="2210" y="160" on="0"/>
        <pt x="2292" y="181" on="0"/>
        <pt x="2310" y="245" on="0"/>
        <pt x="2310" y="315" on="1"/>
        <pt x="2310" y="1081" on="1"/>
        <pt x="1208" y="1081" on="1"/>
        <pt x="696" y="360" on="1"/>
        <pt x="623" y="256" on="0"/>
        <pt x="623" y="179" on="0"/>
        <pt x="710" y="160" on="0"/>
        <pt x="823" y="160" on="1"/>
        <pt x="946" y="160" on="1"/>
        <pt x="946" y="0" on="1"/>
        <pt x="111" y="0" on="1"/>
        <pt x="115" y="160" on="1"/>
        <pt x="184" y="160" on="1"/>
        <pt x="291" y="160" on="0"/>
        <pt x="362" y="234" on="1"/>
        <pt x="437" y="315" on="0"/>
        <pt x="541" y="463" on="1"/>
        <pt x="2032" y="2572" on="1"/>
        <pt x="1769" y="2568" on="1"/>
        <pt x="1765" y="2732" on="1"/>
        <pt x="4010" y="2732" on="1"/>
        <pt x="4017" y="2350" on="0"/>
        <pt x="4030" y="2089" on="1"/>
        <pt x="3871" y="2081" on="1"/>
        <pt x="3856" y="2485" on="0"/>
        <pt x="3810" y="2534" on="1"/>
        <pt x="3796" y="2549" on="0"/>
        <pt x="3731" y="2556" on="0"/>
        <pt x="3572" y="2556" on="1"/>
        <pt x="2875" y="2556" on="1"/>
        <pt x="2708" y="2556" on="0"/>
        <pt x="2660" y="2516" on="0"/>
        <pt x="2652" y="2495" on="0"/>
        <pt x="2648" y="2470" on="1"/>
        <pt x="2642" y="2441" on="0"/>
        <pt x="2642" y="2363" on="1"/>
        <pt x="2642" y="1794" on="1"/>
        <pt x="2642" y="1674" on="0"/>
        <pt x="2667" y="1647" on="0"/>
        <pt x="2684" y="1640" on="1"/>
        <pt x="2706" y="1630" on="0"/>
        <pt x="2777" y="1630" on="1"/>
        <pt x="3391" y="1630" on="1"/>
        <pt x="3497" y="1630" on="0"/>
        <pt x="3532" y="1671" on="0"/>
        <pt x="3538" y="1696" on="1"/>
        <pt x="3547" y="1734" on="0"/>
        <pt x="3547" y="1827" on="1"/>
        <pt x="3547" y="1991" on="1"/>
        <pt x="3699" y="1987" on="1"/>
        <pt x="3699" y="1008" on="1"/>
        <pt x="3547" y="1008" on="1"/>
        <pt x="3547" y="1280" on="1"/>
        <pt x="3547" y="1305" on="0"/>
        <pt x="3543" y="1356" on="0"/>
        <pt x="3541" y="1384" on="0"/>
        <pt x="3529" y="1414" on="0"/>
        <pt x="3524" y="1428" on="0"/>
        <pt x="3501" y="1442" on="0"/>
        <pt x="3488" y="1446" on="0"/>
        <pt x="3452" y="1450" on="0"/>
        <pt x="3441" y="1450" on="1"/>
        <pt x="2785" y="1450" on="1"/>
        <pt x="2683" y="1450" on="0"/>
        <pt x="2665" y="1429" on="1"/>
        <pt x="2642" y="1402" on="0"/>
        <pt x="2642" y="1323" on="1"/>
        <pt x="2642" y="356" on="1"/>
        <pt x="2642" y="249" on="0"/>
        <pt x="2689" y="188" on="0"/>
      </contour>
      <contour>
        <pt x="1335" y="1262" on="1"/>
        <pt x="2310" y="1262" on="1"/>
        <pt x="2310" y="2466" on="1"/>
        <pt x="2310" y="2526" on="0"/>
        <pt x="2277" y="2568" on="0"/>
        <pt x="2236" y="2568" on="1"/>
      </contour>
    </TTGlyph>
    <TTGlyph name="AE.c2" xMin="111" yMin="0" xMax="2691" yMax="1606">
      <component glyphName="ae.sc" x="0" y="0" flags="0x1004"/>
    </TTGlyph>
    <TTGlyph name="Aacute" xMin="111" yMin="0" xMax="2863" yMax="3559">
      <component glyphName="acutecomb.cap" x="2310" y="999" flags="0x1004"/>
      <component glyphName="A" x="0" y="0" flags="0x1004"/>
    </TTGlyph>
    <TTGlyph name="Aacute.c2" xMin="111" yMin="0" xMax="1860" yMax="2580">
      <component glyphName="aacute.sc" x="0" y="0" flags="0x1004"/>
    </TTGlyph>
    <TTGlyph name="Abreve" xMin="111" yMin="0" xMax="2863" yMax="3543">
      <component glyphName="uni0306.cap" x="2310" y="999" flags="0x1004"/>
      <component glyphName="A" x="0" y="0" flags="0x1004"/>
    </TTGlyph>
    <TTGlyph name="Abreve.c2" xMin="111" yMin="0" xMax="1860" yMax="2478">
      <component glyphName="abreve.sc" x="0" y="0" flags="0x1004"/>
    </TTGlyph>
    <TTGlyph name="Acircumflex" xMin="111" yMin="0" xMax="2863" yMax="3543">
      <component glyphName="uni0302.cap" x="2310" y="999" flags="0x1004"/>
      <component glyphName="A" x="0" y="0" flags="0x1004"/>
    </TTGlyph>
    <TTGlyph name="Acircumflex.c2" xMin="111" yMin="0" xMax="1860" yMax="2478">
      <component glyphName="acircumflex.sc" x="0" y="0" flags="0x1004"/>
    </TTGlyph>
    <TTGlyph name="Adieresis" xMin="111" yMin="0" xMax="2863" yMax="3493">
      <contour>
        <pt x="111" y="160" on="1"/>
        <pt x="160" y="160" on="1"/>
        <pt x="270" y="160" on="0"/>
        <pt x="344" y="236" on="0"/>
        <pt x="441" y="453" on="0"/>
        <pt x="594" y="794" on="0"/>
        <pt x="828" y="1315" on="0"/>
        <pt x="932" y="1545" on="0"/>
        <pt x="1008" y="1710" on="0"/>
        <pt x="1036" y="1776" on="0"/>
        <pt x="1053" y="1815" on="1"/>
        <pt x="1470" y="2830" on="1"/>
        <pt x="1556" y="2830" on="1"/>
        <pt x="1804" y="2183" on="0"/>
        <pt x="2562" y="348" on="0"/>
        <pt x="2642" y="198" on="0"/>
        <pt x="2727" y="160" on="0"/>
        <pt x="2802" y="160" on="1"/>
        <pt x="2863" y="160" on="1"/>
        <pt x="2859" y="0" on="1"/>
        <pt x="1925" y="0" on="1"/>
        <pt x="1929" y="160" on="1"/>
        <pt x="2052" y="160" on="1"/>
        <pt x="2154" y="160" on="0"/>
        <pt x="2232" y="177" on="0"/>
        <pt x="2232" y="209" on="1"/>
        <pt x="2232" y="232" on="0"/>
        <pt x="2195" y="325" on="0"/>
        <pt x="2191" y="336" on="1"/>
        <pt x="1888" y="1081" on="1"/>
        <pt x="938" y="1081" on="1"/>
        <pt x="614" y="360" on="1"/>
        <pt x="573" y="260" on="0"/>
        <pt x="573" y="182" on="0"/>
        <pt x="636" y="160" on="0"/>
        <pt x="741" y="160" on="1"/>
        <pt x="909" y="160" on="1"/>
        <pt x="909" y="0" on="1"/>
        <pt x="115" y="0" on="1"/>
      </contour>
      <contour>
        <pt x="1016" y="1262" on="1"/>
        <pt x="1819" y="1262" on="1"/>
        <pt x="1430" y="2232" on="1"/>
      </contour>
      <contour>
        <pt x="1171" y="3137" on="0"/>
        <pt x="1040" y="3271" on="0"/>
        <pt x="1040" y="3361" on="0"/>
        <pt x="1186" y="3493" on="0"/>
        <pt x="1271" y="3493" on="0"/>
        <pt x="1388" y="3349" on="0"/>
        <pt x="1388" y="3262" on="0"/>
        <pt x="1250" y="3137" on="0"/>
      </contour>
      <contour>
        <pt x="1774" y="3137" on="0"/>
        <pt x="1643" y="3271" on="0"/>
        <pt x="1643" y="3361" on="0"/>
        <pt x="1786" y="3493" on="0"/>
        <pt x="1870" y="3493" on="0"/>
        <pt x="1991" y="3348" on="0"/>
        <pt x="1991" y="3262" on="0"/>
        <pt x="1853" y="3137" on="0"/>
      </contour>
    </TTGlyph>
    <TTGlyph name="Adieresis.c2" xMin="111" yMin="0" xMax="1860" yMax="2421">
      <component glyphName="adieresis.sc" x="0" y="0" flags="0x1004"/>
    </TTGlyph>
    <TTGlyph name="Agrave" xMin="111" yMin="0" xMax="2863" yMax="3559">
      <component glyphName="gravecomb.cap" x="2310" y="999" flags="0x1004"/>
      <component glyphName="A" x="0" y="0" flags="0x1004"/>
    </TTGlyph>
    <TTGlyph name="Agrave.c2" xMin="111" yMin="0" xMax="1860" yMax="2580">
      <component glyphName="agrave.sc" x="0" y="0" flags="0x1004"/>
    </TTGlyph>
    <TTGlyph name="Amacron" xMin="111" yMin="0" xMax="2863" yMax="3420">
      <component glyphName="uni0304.cap" x="2310" y="999" flags="0x1004"/>
      <component glyphName="A" x="0" y="0" flags="0x1004"/>
    </TTGlyph>
    <TTGlyph name="Amacron.c2" xMin="111" yMin="0" xMax="1860" yMax="2327">
      <component glyphName="amacron.sc" x="0" y="0" flags="0x1004"/>
    </TTGlyph>
    <TTGlyph name="Aogonek" xMin="111" yMin="-1073" xMax="2863" yMax="2830">
      <contour>
        <pt x="1556" y="2830" on="1"/>
        <pt x="1694" y="2470" on="0"/>
        <pt x="2559" y="352" on="0"/>
        <pt x="2635" y="205" on="0"/>
        <pt x="2725" y="160" on="0"/>
        <pt x="2863" y="160" on="1"/>
        <pt x="2859" y="0" on="1"/>
        <pt x="2466" y="0" on="1"/>
        <pt x="2222" y="0" on="0"/>
        <pt x="2035" y="-288" on="1"/>
        <pt x="1929" y="-452" on="0"/>
        <pt x="1929" y="-721" on="0"/>
        <pt x="2043" y="-881" on="0"/>
        <pt x="2217" y="-881" on="0"/>
        <pt x="2337" y="-845" on="0"/>
        <pt x="2368" y="-824" on="1"/>
        <pt x="2449" y="-766" on="0"/>
        <pt x="2486" y="-766" on="0"/>
        <pt x="2486" y="-818" on="0"/>
        <pt x="2415" y="-909" on="0"/>
        <pt x="2356" y="-956" on="1"/>
        <pt x="2210" y="-1073" on="0"/>
        <pt x="1830" y="-1073" on="0"/>
        <pt x="1642" y="-869" on="0"/>
        <pt x="1642" y="-628" on="0"/>
        <pt x="1706" y="-458" on="0"/>
        <pt x="1809" y="-318" on="0"/>
        <pt x="1933" y="-182" on="0"/>
        <pt x="2057" y="-63" on="0"/>
        <pt x="2108" y="-9" on="1"/>
        <pt x="2224" y="112" on="0"/>
        <pt x="2224" y="174" on="1"/>
        <pt x="2224" y="263" on="0"/>
        <pt x="2142" y="459" on="1"/>
        <pt x="1888" y="1081" on="1"/>
        <pt x="938" y="1081" on="1"/>
        <pt x="614" y="360" on="1"/>
        <pt x="573" y="260" on="0"/>
        <pt x="573" y="182" on="0"/>
        <pt x="636" y="160" on="0"/>
        <pt x="741" y="160" on="1"/>
        <pt x="909" y="160" on="1"/>
        <pt x="909" y="0" on="1"/>
        <pt x="115" y="0" on="1"/>
        <pt x="111" y="160" on="1"/>
        <pt x="147" y="160" on="0"/>
        <pt x="202" y="160" on="0"/>
        <pt x="244" y="170" on="0"/>
        <pt x="267" y="173" on="0"/>
        <pt x="301" y="199" on="0"/>
        <pt x="316" y="210" on="0"/>
        <pt x="349" y="259" on="0"/>
        <pt x="363" y="285" on="0"/>
        <pt x="401" y="362" on="0"/>
        <pt x="421" y="408" on="0"/>
        <pt x="594" y="794" on="0"/>
        <pt x="828" y="1315" on="0"/>
        <pt x="932" y="1545" on="0"/>
        <pt x="1008" y="1710" on="0"/>
        <pt x="1036" y="1776" on="0"/>
        <pt x="1053" y="1815" on="1"/>
        <pt x="1470" y="2830" on="1"/>
      </contour>
      <contour>
        <pt x="1016" y="1262" on="1"/>
        <pt x="1819" y="1262" on="1"/>
        <pt x="1430" y="2232" on="1"/>
      </contour>
    </TTGlyph>
    <TTGlyph name="Aogonek.c2" xMin="111" yMin="-1069" xMax="1860" yMax="1671">
      <component glyphName="aogonek.sc" x="0" y="0" flags="0x1004"/>
    </TTGlyph>
    <TTGlyph name="Aring" xMin="111" yMin="0" xMax="2863" yMax="3633">
      <component glyphName="uni030A.cap" x="2310" y="999" flags="0x1004"/>
      <component glyphName="A" x="0" y="0" flags="0x1004"/>
    </TTGlyph>
    <TTGlyph name="Aring.c2" xMin="111" yMin="0" xMax="1860" yMax="2552">
      <component glyphName="aring.sc" x="0" y="0" flags="0x1004"/>
    </TTGlyph>
    <TTGlyph name="Atilde" xMin="111" yMin="0" xMax="2863" yMax="3543">
      <component glyphName="tildecomb.cap" x="2310" y="999" flags="0x1004"/>
      <component glyphName="A" x="0" y="0" flags="0x1004"/>
    </TTGlyph>
    <TTGlyph name="Atilde.c2" xMin="111" yMin="0" xMax="1860" yMax="2437">
      <component glyphName="atilde.sc" x="0" y="0" flags="0x1004"/>
    </TTGlyph>
    <TTGlyph name="B" xMin="111" yMin="0" xMax="2085" yMax="2732">
      <contour>
        <pt x="111" y="2568" on="1"/>
        <pt x="119" y="2732" on="1"/>
        <pt x="1024" y="2732" on="1"/>
        <pt x="1731" y="2732" on="0"/>
        <pt x="1927" y="2329" on="1"/>
        <pt x="1987" y="2205" on="0"/>
        <pt x="1987" y="1955" on="0"/>
        <pt x="1895" y="1762" on="0"/>
        <pt x="1819" y="1690" on="1"/>
        <pt x="1666" y="1543" on="0"/>
        <pt x="1462" y="1483" on="1"/>
        <pt x="1839" y="1398" on="0"/>
        <pt x="1998" y="1084" on="1"/>
        <pt x="2085" y="909" on="0"/>
        <pt x="2085" y="739" on="1"/>
        <pt x="2085" y="408" on="0"/>
        <pt x="1901" y="242" on="1"/>
        <pt x="1656" y="21" on="0"/>
        <pt x="1001" y="3" on="1"/>
        <pt x="890" y="0" on="0"/>
        <pt x="725" y="0" on="1"/>
        <pt x="143" y="0" on="1"/>
        <pt x="143" y="160" on="1"/>
        <pt x="266" y="160" on="1"/>
        <pt x="371" y="160" on="0"/>
        <pt x="438" y="202" on="0"/>
        <pt x="438" y="279" on="1"/>
        <pt x="438" y="2421" on="1"/>
        <pt x="438" y="2537" on="0"/>
        <pt x="362" y="2556" on="1"/>
        <pt x="317" y="2568" on="0"/>
        <pt x="225" y="2568" on="1"/>
      </contour>
      <contour>
        <pt x="762" y="1409" on="1"/>
        <pt x="770" y="311" on="1"/>
        <pt x="770" y="227" on="0"/>
        <pt x="874" y="180" on="0"/>
        <pt x="1156" y="180" on="0"/>
        <pt x="1353" y="219" on="0"/>
        <pt x="1487" y="282" on="0"/>
        <pt x="1589" y="375" on="0"/>
        <pt x="1648" y="470" on="0"/>
        <pt x="1666" y="527" on="1"/>
        <pt x="1696" y="622" on="0"/>
        <pt x="1696" y="852" on="0"/>
        <pt x="1628" y="1049" on="0"/>
        <pt x="1516" y="1186" on="0"/>
        <pt x="1359" y="1292" on="0"/>
        <pt x="1194" y="1355" on="0"/>
        <pt x="1099" y="1375" on="1"/>
        <pt x="938" y="1409" on="0"/>
      </contour>
      <contour>
        <pt x="896" y="2552" on="1"/>
        <pt x="770" y="2552" on="0"/>
        <pt x="770" y="2458" on="1"/>
        <pt x="770" y="1528" on="1"/>
        <pt x="1171" y="1528" on="1"/>
        <pt x="1373" y="1528" on="0"/>
        <pt x="1494" y="1693" on="1"/>
        <pt x="1606" y="1845" on="0"/>
        <pt x="1606" y="2011" on="1"/>
        <pt x="1606" y="2296" on="0"/>
        <pt x="1317" y="2460" on="1"/>
        <pt x="1154" y="2552" on="0"/>
      </contour>
    </TTGlyph>
    <TTGlyph name="B.c2" xMin="111" yMin="0" xMax="1573" yMax="1606">
      <component glyphName="b.sc" x="0" y="0" flags="0x1004"/>
    </TTGlyph>
    <TTGlyph name="C" xMin="221" yMin="-66" xMax="2822" yMax="2765">
      <contour>
        <pt x="2588" y="2740" on="1"/>
        <pt x="2589" y="2765" on="1"/>
        <pt x="2744" y="2765" on="1"/>
        <pt x="2756" y="2366" on="0"/>
        <pt x="2793" y="1982" on="1"/>
        <pt x="2646" y="1978" on="1"/>
        <pt x="2627" y="2137" on="0"/>
        <pt x="2624" y="2195" on="0"/>
        <pt x="2612" y="2262" on="0"/>
        <pt x="2609" y="2284" on="0"/>
        <pt x="2586" y="2323" on="0"/>
        <pt x="2573" y="2332" on="0"/>
        <pt x="2531" y="2360" on="0"/>
        <pt x="2515" y="2366" on="1"/>
        <pt x="2481" y="2377" on="0"/>
        <pt x="2299" y="2471" on="0"/>
        <pt x="1914" y="2548" on="0"/>
        <pt x="1514" y="2548" on="0"/>
        <pt x="1152" y="2430" on="0"/>
        <pt x="876" y="2217" on="0"/>
        <pt x="775" y="2074" on="1"/>
        <pt x="569" y="1784" on="0"/>
        <pt x="569" y="1405" on="1"/>
        <pt x="569" y="1082" on="0"/>
        <pt x="729" y="782" on="1"/>
        <pt x="885" y="489" on="0"/>
        <pt x="1166" y="304" on="1"/>
        <pt x="1455" y="115" on="0"/>
        <pt x="1810" y="115" on="1"/>
        <pt x="2152" y="115" on="0"/>
        <pt x="2482" y="335" on="1"/>
        <pt x="2664" y="456" on="0"/>
        <pt x="2666" y="537" on="1"/>
        <pt x="2679" y="881" on="1"/>
        <pt x="2822" y="881" on="1"/>
        <pt x="2798" y="283" on="1"/>
        <pt x="2435" y="29" on="0"/>
        <pt x="1958" y="-46" on="1"/>
        <pt x="1831" y="-66" on="0"/>
        <pt x="1708" y="-66" on="1"/>
        <pt x="1001" y="-66" on="0"/>
        <pt x="609" y="300" on="1"/>
        <pt x="221" y="662" on="0"/>
        <pt x="221" y="1286" on="1"/>
        <pt x="221" y="1870" on="0"/>
        <pt x="598" y="2270" on="1"/>
        <pt x="808" y="2493" on="0"/>
        <pt x="1124" y="2623" on="1"/>
        <pt x="1407" y="2740" on="0"/>
        <pt x="1910" y="2740" on="0"/>
        <pt x="2239" y="2700" on="0"/>
        <pt x="2393" y="2653" on="0"/>
        <pt x="2507" y="2613" on="0"/>
        <pt x="2547" y="2613" on="0"/>
        <pt x="2571" y="2620" on="0"/>
        <pt x="2578" y="2636" on="1"/>
        <pt x="2588" y="2659" on="0"/>
      </contour>
    </TTGlyph>
    <TTGlyph name="C.c2" xMin="143" yMin="-33" xMax="1593" yMax="1659">
      <component glyphName="c.sc" x="0" y="0" flags="0x1004"/>
    </TTGlyph>
    <TTGlyph name="Cacute" xMin="221" yMin="-66" xMax="2822" yMax="3559">
      <component glyphName="acutecomb.cap" x="2466" y="999" flags="0x1004"/>
      <component glyphName="C" x="0" y="0" flags="0x1004"/>
    </TTGlyph>
    <TTGlyph name="Cacute.c2" xMin="143" yMin="-33" xMax="1593" yMax="2580">
      <component glyphName="cacute.sc" x="0" y="0" flags="0x1004"/>
    </TTGlyph>
    <TTGlyph name="Ccaron" xMin="221" yMin="-66" xMax="2822" yMax="3543">
      <component glyphName="uni030C.cap" x="2466" y="999" flags="0x1004"/>
      <component glyphName="C" x="0" y="0" flags="0x1004"/>
    </TTGlyph>
    <TTGlyph name="Ccaron.c2" xMin="143" yMin="-33" xMax="1593" yMax="2478">
      <component glyphName="ccaron.sc" x="0" y="0" flags="0x1004"/>
    </TTGlyph>
    <TTGlyph name="Ccedilla" xMin="221" yMin="-901" xMax="2822" yMax="2765">
      <contour>
        <pt x="1659" y="-270" on="1"/>
        <pt x="1729" y="-266" on="1"/>
        <pt x="1914" y="-266" on="0"/>
        <pt x="2017" y="-318" on="1"/>
        <pt x="2200" y="-410" on="0"/>
        <pt x="2200" y="-578" on="1"/>
        <pt x="2200" y="-806" on="0"/>
        <pt x="1916" y="-880" on="1"/>
        <pt x="1839" y="-901" on="0"/>
        <pt x="1754" y="-901" on="1"/>
        <pt x="1585" y="-901" on="0"/>
        <pt x="1491" y="-848" on="1"/>
        <pt x="1577" y="-750" on="1"/>
        <pt x="1700" y="-791" on="0"/>
        <pt x="1868" y="-791" on="0"/>
        <pt x="1974" y="-683" on="0"/>
        <pt x="1974" y="-532" on="0"/>
        <pt x="1920" y="-451" on="0"/>
        <pt x="1874" y="-430" on="1"/>
        <pt x="1784" y="-389" on="0"/>
        <pt x="1618" y="-389" on="0"/>
        <pt x="1589" y="-393" on="1"/>
        <pt x="1540" y="-324" on="1"/>
        <pt x="1626" y="-66" on="1"/>
        <pt x="958" y="-44" on="0"/>
        <pt x="588" y="320" on="1"/>
        <pt x="221" y="681" on="0"/>
        <pt x="221" y="1286" on="1"/>
        <pt x="221" y="1870" on="0"/>
        <pt x="598" y="2270" on="1"/>
        <pt x="808" y="2493" on="0"/>
        <pt x="1124" y="2623" on="1"/>
        <pt x="1407" y="2740" on="0"/>
        <pt x="1910" y="2740" on="0"/>
        <pt x="2239" y="2700" on="0"/>
        <pt x="2393" y="2653" on="0"/>
        <pt x="2507" y="2613" on="0"/>
        <pt x="2547" y="2613" on="0"/>
        <pt x="2571" y="2620" on="0"/>
        <pt x="2578" y="2636" on="1"/>
        <pt x="2588" y="2659" on="0"/>
        <pt x="2588" y="2740" on="1"/>
        <pt x="2589" y="2765" on="1"/>
        <pt x="2744" y="2765" on="1"/>
        <pt x="2756" y="2366" on="0"/>
        <pt x="2793" y="1982" on="1"/>
        <pt x="2646" y="1978" on="1"/>
        <pt x="2627" y="2137" on="0"/>
        <pt x="2624" y="2195" on="0"/>
        <pt x="2612" y="2262" on="0"/>
        <pt x="2609" y="2284" on="0"/>
        <pt x="2586" y="2323" on="0"/>
        <pt x="2573" y="2332" on="0"/>
        <pt x="2531" y="2360" on="0"/>
        <pt x="2515" y="2366" on="1"/>
        <pt x="2481" y="2377" on="0"/>
        <pt x="2299" y="2471" on="0"/>
        <pt x="1914" y="2548" on="0"/>
        <pt x="1514" y="2548" on="0"/>
        <pt x="1152" y="2430" on="0"/>
        <pt x="876" y="2217" on="0"/>
        <pt x="775" y="2074" on="1"/>
        <pt x="569" y="1784" on="0"/>
        <pt x="569" y="1405" on="1"/>
        <pt x="569" y="1082" on="0"/>
        <pt x="729" y="782" on="1"/>
        <pt x="885" y="489" on="0"/>
        <pt x="1166" y="304" on="1"/>
        <pt x="1455" y="115" on="0"/>
        <pt x="1810" y="115" on="1"/>
        <pt x="2152" y="115" on="0"/>
        <pt x="2482" y="335" on="1"/>
        <pt x="2664" y="456" on="0"/>
        <pt x="2666" y="537" on="1"/>
        <pt x="2679" y="881" on="1"/>
        <pt x="2822" y="881" on="1"/>
        <pt x="2798" y="283" on="1"/>
        <pt x="2486" y="65" on="0"/>
        <pt x="2062" y="-27" on="1"/>
        <pt x="1887" y="-65" on="0"/>
        <pt x="1720" y="-66" on="1"/>
      </contour>
    </TTGlyph>
    <TTGlyph name="Ccedilla.c2" xMin="143" yMin="-901" xMax="1593" yMax="1659">
      <component glyphName="ccedilla.sc" x="0" y="0" flags="0x1004"/>
    </TTGlyph>
    <TTGlyph name="Ccircumflex" xMin="221" yMin="-66" xMax="2822" yMax="3543">
      <component glyphName="uni0302.cap" x="2466" y="999" flags="0x1004"/>
      <component glyphName="C" x="0" y="0" flags="0x1004"/>
    </TTGlyph>
    <TTGlyph name="Ccircumflex.c2" xMin="143" yMin="-33" xMax="1593" yMax="2478">
      <component glyphName="ccircumflex.sc" x="0" y="0" flags="0x1004"/>
    </TTGlyph>
    <TTGlyph name="Cdotaccent" xMin="221" yMin="-66" xMax="2822" yMax="3493">
      <component glyphName="uni0307.cap" x="2466" y="999" flags="0x1004"/>
      <component glyphName="C" x="0" y="0" flags="0x1004"/>
    </TTGlyph>
    <TTGlyph name="Cdotaccent.c2" xMin="143" yMin="-33" xMax="1593" yMax="2421">
      <component glyphName="cdotaccent.sc" x="0" y="0" flags="0x1004"/>
    </TTGlyph>
    <TTGlyph name="D" xMin="111" yMin="0" xMax="2867" yMax="2732">
      <contour>
        <pt x="111" y="2732" on="1"/>
        <pt x="1217" y="2732" on="1"/>
        <pt x="1819" y="2732" on="0"/>
        <pt x="2070" y="2652" on="1"/>
        <pt x="2409" y="2544" on="0"/>
        <pt x="2616" y="2268" on="1"/>
        <pt x="2867" y="1932" on="0"/>
        <pt x="2867" y="1470" on="1"/>
        <pt x="2867" y="848" on="0"/>
        <pt x="2454" y="428" on="1"/>
        <pt x="2032" y="0" on="0"/>
        <pt x="1241" y="0" on="1"/>
        <pt x="184" y="0" on="1"/>
        <pt x="180" y="160" on="1"/>
        <pt x="291" y="160" on="1"/>
        <pt x="441" y="160" on="0"/>
        <pt x="486" y="197" on="0"/>
        <pt x="494" y="221" on="1"/>
        <pt x="504" y="251" on="0"/>
        <pt x="504" y="340" on="1"/>
        <pt x="504" y="2421" on="1"/>
        <pt x="504" y="2528" on="0"/>
        <pt x="465" y="2554" on="0"/>
        <pt x="438" y="2560" on="1"/>
        <pt x="406" y="2568" on="0"/>
        <pt x="295" y="2568" on="1"/>
        <pt x="123" y="2568" on="1"/>
      </contour>
      <contour>
        <pt x="836" y="348" on="1"/>
        <pt x="836" y="242" on="0"/>
        <pt x="863" y="202" on="0"/>
        <pt x="902" y="177" on="0"/>
        <pt x="946" y="170" on="0"/>
        <pt x="986" y="166" on="1"/>
        <pt x="1036" y="160" on="0"/>
        <pt x="1404" y="160" on="0"/>
        <pt x="1772" y="234" on="0"/>
        <pt x="2039" y="362" on="0"/>
        <pt x="2247" y="544" on="0"/>
        <pt x="2379" y="749" on="0"/>
        <pt x="2422" y="869" on="1"/>
        <pt x="2499" y="1084" on="0"/>
        <pt x="2499" y="1469" on="0"/>
        <pt x="2451" y="1714" on="0"/>
        <pt x="2347" y="1952" on="0"/>
        <pt x="2195" y="2162" on="0"/>
        <pt x="1974" y="2340" on="0"/>
        <pt x="1839" y="2404" on="1"/>
        <pt x="1552" y="2540" on="0"/>
        <pt x="1155" y="2540" on="1"/>
        <pt x="1004" y="2540" on="1"/>
        <pt x="933" y="2540" on="0"/>
        <pt x="900" y="2528" on="1"/>
        <pt x="836" y="2503" on="0"/>
        <pt x="836" y="2347" on="1"/>
      </contour>
    </TTGlyph>
    <TTGlyph name="D.c2" xMin="111" yMin="0" xMax="1815" yMax="1606">
      <component glyphName="d.sc" x="0" y="0" flags="0x1004"/>
    </TTGlyph>
    <TTGlyph name="Dcaron" xMin="111" yMin="0" xMax="2867" yMax="3441">
      <component glyphName="uni030C.cap" x="2294" y="897" flags="0x1004"/>
      <component glyphName="D" x="0" y="0" flags="0x1004"/>
    </TTGlyph>
    <TTGlyph name="Dcaron.c2" xMin="111" yMin="0" xMax="1815" yMax="2478">
      <component glyphName="dcaron.sc" x="0" y="0" flags="0x1004"/>
    </TTGlyph>
    <TTGlyph name="Dcroat" xMin="111" yMin="0" xMax="2867" yMax="2732">
      <component glyphName="Eth" x="0" y="0" flags="0x1004"/>
    </TTGlyph>
    <TTGlyph name="Dcroat.c2" xMin="111" yMin="0" xMax="1815" yMax="1606">
      <component glyphName="dcroat.sc" x="0" y="0" flags="0x1004"/>
    </TTGlyph>
    <TTGlyph name="E" xMin="111" yMin="0" xMax="2372" yMax="2732">
      <contour>
        <pt x="979" y="188" on="1"/>
        <pt x="1798" y="196" on="0"/>
        <pt x="2111" y="222" on="0"/>
        <pt x="2155" y="266" on="0"/>
        <pt x="2178" y="331" on="0"/>
        <pt x="2232" y="655" on="1"/>
        <pt x="2372" y="635" on="1"/>
        <pt x="2269" y="0" on="1"/>
        <pt x="193" y="0" on="1"/>
        <pt x="193" y="160" on="1"/>
        <pt x="299" y="160" on="1"/>
        <pt x="452" y="160" on="0"/>
        <pt x="497" y="191" on="0"/>
        <pt x="506" y="212" on="1"/>
        <pt x="516" y="238" on="0"/>
        <pt x="516" y="315" on="1"/>
        <pt x="516" y="2392" on="1"/>
        <pt x="516" y="2514" on="0"/>
        <pt x="472" y="2544" on="1"/>
        <pt x="434" y="2568" on="0"/>
        <pt x="229" y="2568" on="1"/>
        <pt x="115" y="2568" on="1"/>
        <pt x="111" y="2732" on="1"/>
        <pt x="2220" y="2732" on="1"/>
        <pt x="2226" y="2379" on="0"/>
        <pt x="2241" y="2089" on="1"/>
        <pt x="2081" y="2081" on="1"/>
        <pt x="2066" y="2485" on="0"/>
        <pt x="2020" y="2534" on="1"/>
        <pt x="2006" y="2549" on="0"/>
        <pt x="1941" y="2556" on="0"/>
        <pt x="1782" y="2556" on="1"/>
        <pt x="1085" y="2556" on="1"/>
        <pt x="916" y="2556" on="0"/>
        <pt x="870" y="2520" on="0"/>
        <pt x="860" y="2494" on="1"/>
        <pt x="848" y="2464" on="0"/>
        <pt x="848" y="2363" on="1"/>
        <pt x="848" y="1794" on="1"/>
        <pt x="848" y="1674" on="0"/>
        <pt x="873" y="1647" on="0"/>
        <pt x="890" y="1640" on="1"/>
        <pt x="912" y="1630" on="0"/>
        <pt x="983" y="1630" on="1"/>
        <pt x="1602" y="1630" on="1"/>
        <pt x="1710" y="1630" on="0"/>
        <pt x="1742" y="1673" on="0"/>
        <pt x="1748" y="1699" on="1"/>
        <pt x="1757" y="1733" on="0"/>
        <pt x="1757" y="1835" on="1"/>
        <pt x="1757" y="1991" on="1"/>
        <pt x="1909" y="1987" on="1"/>
        <pt x="1909" y="1008" on="1"/>
        <pt x="1757" y="1008" on="1"/>
        <pt x="1757" y="1221" on="1"/>
        <pt x="1757" y="1392" on="0"/>
        <pt x="1723" y="1434" on="0"/>
        <pt x="1710" y="1443" on="0"/>
        <pt x="1669" y="1450" on="0"/>
        <pt x="1656" y="1450" on="1"/>
        <pt x="995" y="1450" on="1"/>
        <pt x="893" y="1450" on="0"/>
        <pt x="873" y="1430" on="1"/>
        <pt x="848" y="1403" on="0"/>
        <pt x="848" y="1323" on="1"/>
        <pt x="848" y="356" on="1"/>
        <pt x="848" y="250" on="0"/>
        <pt x="898" y="188" on="0"/>
      </contour>
    </TTGlyph>
    <TTGlyph name="E.c2" xMin="111" yMin="0" xMax="1642" yMax="1606">
      <component glyphName="e.sc" x="0" y="0" flags="0x1004"/>
    </TTGlyph>
    <TTGlyph name="Eacute" xMin="111" yMin="0" xMax="2372" yMax="3559">
      <component glyphName="acutecomb.cap" x="2060" y="999" flags="0x1004"/>
      <component glyphName="E" x="0" y="0" flags="0x1004"/>
    </TTGlyph>
    <TTGlyph name="Eacute.c2" xMin="111" yMin="0" xMax="1642" yMax="2580">
      <component glyphName="eacute.sc" x="0" y="0" flags="0x1004"/>
    </TTGlyph>
    <TTGlyph name="Ebreve" xMin="111" yMin="0" xMax="2372" yMax="3543">
      <component glyphName="uni0306.cap" x="2060" y="999" flags="0x1004"/>
      <component glyphName="E" x="0" y="0" flags="0x1004"/>
    </TTGlyph>
    <TTGlyph name="Ebreve.c2" xMin="111" yMin="0" xMax="1642" yMax="2478">
      <component glyphName="ebreve.sc" x="0" y="0" flags="0x1004"/>
    </TTGlyph>
    <TTGlyph name="Ecaron" xMin="111" yMin="0" xMax="2372" yMax="3543">
      <component glyphName="uni030C.cap" x="2060" y="999" flags="0x1004"/>
      <component glyphName="E" x="0" y="0" flags="0x1004"/>
    </TTGlyph>
    <TTGlyph name="Ecaron.c2" xMin="111" yMin="0" xMax="1642" yMax="2478">
      <component glyphName="ecaron.sc" x="0" y="0" flags="0x1004"/>
    </TTGlyph>
    <TTGlyph name="Ecircumflex" xMin="111" yMin="0" xMax="2372" yMax="3543">
      <component glyphName="uni0302.cap" x="2060" y="999" flags="0x1004"/>
      <component glyphName="E" x="0" y="0" flags="0x1004"/>
    </TTGlyph>
    <TTGlyph name="Ecircumflex.c2" xMin="111" yMin="0" xMax="1642" yMax="2478">
      <component glyphName="ecircumflex.sc" x="0" y="0" flags="0x1004"/>
    </TTGlyph>
    <TTGlyph name="Edieresis" xMin="111" yMin="0" xMax="2372" yMax="3493">
      <contour>
        <pt x="979" y="188" on="1"/>
        <pt x="1798" y="196" on="0"/>
        <pt x="2111" y="222" on="0"/>
        <pt x="2155" y="266" on="0"/>
        <pt x="2178" y="331" on="0"/>
        <pt x="2232" y="655" on="1"/>
        <pt x="2372" y="635" on="1"/>
        <pt x="2269" y="0" on="1"/>
        <pt x="193" y="0" on="1"/>
        <pt x="193" y="160" on="1"/>
        <pt x="299" y="160" on="1"/>
        <pt x="452" y="160" on="0"/>
        <pt x="497" y="191" on="0"/>
        <pt x="506" y="212" on="1"/>
        <pt x="516" y="238" on="0"/>
        <pt x="516" y="315" on="1"/>
        <pt x="516" y="2392" on="1"/>
        <pt x="516" y="2514" on="0"/>
        <pt x="472" y="2544" on="1"/>
        <pt x="434" y="2568" on="0"/>
        <pt x="229" y="2568" on="1"/>
        <pt x="115" y="2568" on="1"/>
        <pt x="111" y="2732" on="1"/>
        <pt x="2220" y="2732" on="1"/>
        <pt x="2226" y="2379" on="0"/>
        <pt x="2241" y="2089" on="1"/>
        <pt x="2081" y="2081" on="1"/>
        <pt x="2066" y="2485" on="0"/>
        <pt x="2020" y="2534" on="1"/>
        <pt x="2006" y="2549" on="0"/>
        <pt x="1941" y="2556" on="0"/>
        <pt x="1782" y="2556" on="1"/>
        <pt x="1085" y="2556" on="1"/>
        <pt x="916" y="2556" on="0"/>
        <pt x="870" y="2520" on="0"/>
        <pt x="860" y="2494" on="1"/>
        <pt x="848" y="2464" on="0"/>
        <pt x="848" y="2363" on="1"/>
        <pt x="848" y="1794" on="1"/>
        <pt x="848" y="1674" on="0"/>
        <pt x="873" y="1647" on="0"/>
        <pt x="890" y="1640" on="1"/>
        <pt x="912" y="1630" on="0"/>
        <pt x="983" y="1630" on="1"/>
        <pt x="1602" y="1630" on="1"/>
        <pt x="1710" y="1630" on="0"/>
        <pt x="1742" y="1673" on="0"/>
        <pt x="1748" y="1699" on="1"/>
        <pt x="1757" y="1733" on="0"/>
        <pt x="1757" y="1835" on="1"/>
        <pt x="1757" y="1991" on="1"/>
        <pt x="1909" y="1987" on="1"/>
        <pt x="1909" y="1008" on="1"/>
        <pt x="1757" y="1008" on="1"/>
        <pt x="1757" y="1221" on="1"/>
        <pt x="1757" y="1392" on="0"/>
        <pt x="1723" y="1434" on="0"/>
        <pt x="1710" y="1443" on="0"/>
        <pt x="1669" y="1450" on="0"/>
        <pt x="1656" y="1450" on="1"/>
        <pt x="995" y="1450" on="1"/>
        <pt x="893" y="1450" on="0"/>
        <pt x="873" y="1430" on="1"/>
        <pt x="848" y="1403" on="0"/>
        <pt x="848" y="1323" on="1"/>
        <pt x="848" y="356" on="1"/>
        <pt x="848" y="250" on="0"/>
        <pt x="898" y="188" on="0"/>
      </contour>
      <contour>
        <pt x="921" y="3137" on="0"/>
        <pt x="790" y="3271" on="0"/>
        <pt x="790" y="3361" on="0"/>
        <pt x="936" y="3493" on="0"/>
        <pt x="1021" y="3493" on="0"/>
        <pt x="1138" y="3349" on="0"/>
        <pt x="1138" y="3262" on="0"/>
        <pt x="1000" y="3137" on="0"/>
      </contour>
      <contour>
        <pt x="1524" y="3137" on="0"/>
        <pt x="1393" y="3271" on="0"/>
        <pt x="1393" y="3361" on="0"/>
        <pt x="1536" y="3493" on="0"/>
        <pt x="1620" y="3493" on="0"/>
        <pt x="1741" y="3348" on="0"/>
        <pt x="1741" y="3262" on="0"/>
        <pt x="1603" y="3137" on="0"/>
      </contour>
    </TTGlyph>
    <TTGlyph name="Edieresis.c2" xMin="111" yMin="0" xMax="1642" yMax="2421">
      <component glyphName="edieresis.sc" x="0" y="0" flags="0x1004"/>
    </TTGlyph>
    <TTGlyph name="Edotaccent" xMin="111" yMin="0" xMax="2372" yMax="3493">
      <component glyphName="uni0307.cap" x="2060" y="999" flags="0x1004"/>
      <component glyphName="E" x="0" y="0" flags="0x1004"/>
    </TTGlyph>
    <TTGlyph name="Edotaccent.c2" xMin="111" yMin="0" xMax="1642" yMax="2421">
      <component glyphName="edotaccent.sc" x="0" y="0" flags="0x1004"/>
    </TTGlyph>
    <TTGlyph name="Egrave" xMin="111" yMin="0" xMax="2372" yMax="3559">
      <component glyphName="gravecomb.cap" x="2060" y="999" flags="0x1004"/>
      <component glyphName="E" x="0" y="0" flags="0x1004"/>
    </TTGlyph>
    <TTGlyph name="Egrave.c2" xMin="111" yMin="0" xMax="1642" yMax="2580">
      <component glyphName="egrave.sc" x="0" y="0" flags="0x1004"/>
    </TTGlyph>
    <TTGlyph name="Emacron" xMin="111" yMin="0" xMax="2372" yMax="3420">
      <component glyphName="uni0304.cap" x="2060" y="999" flags="0x1004"/>
      <component glyphName="E" x="0" y="0" flags="0x1004"/>
    </TTGlyph>
    <TTGlyph name="Emacron.c2" xMin="111" yMin="0" xMax="1642" yMax="2327">
      <component glyphName="emacron.sc" x="0" y="0" flags="0x1004"/>
    </TTGlyph>
    <TTGlyph name="Eogonek" xMin="111" yMin="-1073" xMax="2372" yMax="2732">
      <contour>
        <pt x="979" y="188" on="1"/>
        <pt x="1798" y="196" on="0"/>
        <pt x="2111" y="222" on="0"/>
        <pt x="2155" y="266" on="0"/>
        <pt x="2178" y="331" on="0"/>
        <pt x="2232" y="655" on="1"/>
        <pt x="2372" y="635" on="1"/>
        <pt x="2269" y="0" on="1"/>
        <pt x="2130" y="0" on="1"/>
        <pt x="2039" y="0" on="0"/>
        <pt x="1824" y="-160" on="0"/>
        <pt x="1762" y="-225" on="1"/>
        <pt x="1618" y="-376" on="0"/>
        <pt x="1618" y="-678" on="0"/>
        <pt x="1780" y="-881" on="0"/>
        <pt x="1909" y="-881" on="1"/>
        <pt x="2023" y="-881" on="0"/>
        <pt x="2071" y="-842" on="1"/>
        <pt x="2164" y="-766" on="0"/>
        <pt x="2179" y="-766" on="1"/>
        <pt x="2208" y="-766" on="0"/>
        <pt x="2208" y="-809" on="0"/>
        <pt x="2169" y="-875" on="0"/>
        <pt x="2089" y="-955" on="0"/>
        <pt x="2038" y="-990" on="1"/>
        <pt x="1915" y="-1073" on="0"/>
        <pt x="1676" y="-1073" on="0"/>
        <pt x="1522" y="-1021" on="0"/>
        <pt x="1462" y="-972" on="1"/>
        <pt x="1331" y="-867" on="0"/>
        <pt x="1331" y="-680" on="1"/>
        <pt x="1331" y="-274" on="0"/>
        <pt x="1913" y="0" on="1"/>
        <pt x="193" y="0" on="1"/>
        <pt x="193" y="160" on="1"/>
        <pt x="256" y="160" on="0"/>
        <pt x="344" y="160" on="0"/>
        <pt x="406" y="163" on="0"/>
        <pt x="434" y="166" on="0"/>
        <pt x="472" y="176" on="0"/>
        <pt x="485" y="185" on="0"/>
        <pt x="505" y="205" on="0"/>
        <pt x="509" y="223" on="0"/>
        <pt x="516" y="258" on="0"/>
        <pt x="516" y="274" on="1"/>
        <pt x="516" y="2392" on="1"/>
        <pt x="516" y="2488" on="0"/>
        <pt x="491" y="2532" on="0"/>
        <pt x="456" y="2553" on="0"/>
        <pt x="424" y="2561" on="0"/>
        <pt x="389" y="2564" on="1"/>
        <pt x="342" y="2568" on="0"/>
        <pt x="233" y="2568" on="1"/>
        <pt x="115" y="2568" on="1"/>
        <pt x="111" y="2732" on="1"/>
        <pt x="2220" y="2732" on="1"/>
        <pt x="2226" y="2379" on="0"/>
        <pt x="2241" y="2089" on="1"/>
        <pt x="2081" y="2081" on="1"/>
        <pt x="2066" y="2485" on="0"/>
        <pt x="2020" y="2534" on="1"/>
        <pt x="2006" y="2549" on="0"/>
        <pt x="1941" y="2556" on="0"/>
        <pt x="1782" y="2556" on="1"/>
        <pt x="1085" y="2556" on="1"/>
        <pt x="916" y="2556" on="0"/>
        <pt x="870" y="2520" on="0"/>
        <pt x="860" y="2494" on="1"/>
        <pt x="848" y="2464" on="0"/>
        <pt x="848" y="2363" on="1"/>
        <pt x="848" y="1794" on="1"/>
        <pt x="848" y="1674" on="0"/>
        <pt x="873" y="1647" on="0"/>
        <pt x="890" y="1640" on="1"/>
        <pt x="912" y="1630" on="0"/>
        <pt x="983" y="1630" on="1"/>
        <pt x="1602" y="1630" on="1"/>
        <pt x="1715" y="1630" on="0"/>
        <pt x="1756" y="1699" on="0"/>
        <pt x="1757" y="1949" on="0"/>
        <pt x="1757" y="1991" on="1"/>
        <pt x="1909" y="1987" on="1"/>
        <pt x="1909" y="1008" on="1"/>
        <pt x="1757" y="1008" on="1"/>
        <pt x="1756" y="1065" on="0"/>
        <pt x="1756" y="1377" on="0"/>
        <pt x="1720" y="1450" on="0"/>
        <pt x="1610" y="1450" on="1"/>
        <pt x="995" y="1450" on="1"/>
        <pt x="893" y="1450" on="0"/>
        <pt x="873" y="1430" on="1"/>
        <pt x="848" y="1403" on="0"/>
        <pt x="848" y="1323" on="1"/>
        <pt x="848" y="356" on="1"/>
        <pt x="848" y="250" on="0"/>
        <pt x="898" y="188" on="0"/>
      </contour>
    </TTGlyph>
    <TTGlyph name="Eogonek.c2" xMin="111" yMin="-1073" xMax="1642" yMax="1606">
      <component glyphName="eogonek.sc" x="0" y="0" flags="0x1004"/>
    </TTGlyph>
    <TTGlyph name="Eth" xMin="111" yMin="0" xMax="2867" yMax="2732">
      <contour>
        <pt x="111" y="2732" on="1"/>
        <pt x="1217" y="2732" on="1"/>
        <pt x="1819" y="2732" on="0"/>
        <pt x="2070" y="2652" on="1"/>
        <pt x="2409" y="2544" on="0"/>
        <pt x="2616" y="2268" on="1"/>
        <pt x="2867" y="1932" on="0"/>
        <pt x="2867" y="1470" on="1"/>
        <pt x="2867" y="848" on="0"/>
        <pt x="2454" y="428" on="1"/>
        <pt x="2032" y="0" on="0"/>
        <pt x="1241" y="0" on="1"/>
        <pt x="184" y="0" on="1"/>
        <pt x="180" y="160" on="1"/>
        <pt x="279" y="160" on="1"/>
        <pt x="432" y="160" on="0"/>
        <pt x="483" y="194" on="0"/>
        <pt x="492" y="217" on="0"/>
        <pt x="498" y="238" on="1"/>
        <pt x="504" y="263" on="0"/>
        <pt x="504" y="340" on="1"/>
        <pt x="504" y="1311" on="1"/>
        <pt x="193" y="1311" on="1"/>
        <pt x="197" y="1507" on="1"/>
        <pt x="504" y="1507" on="1"/>
        <pt x="504" y="2421" on="1"/>
        <pt x="504" y="2528" on="0"/>
        <pt x="465" y="2554" on="0"/>
        <pt x="438" y="2560" on="1"/>
        <pt x="406" y="2568" on="0"/>
        <pt x="295" y="2568" on="1"/>
        <pt x="123" y="2568" on="1"/>
      </contour>
      <contour>
        <pt x="836" y="348" on="1"/>
        <pt x="836" y="242" on="0"/>
        <pt x="863" y="202" on="0"/>
        <pt x="902" y="177" on="0"/>
        <pt x="946" y="170" on="0"/>
        <pt x="986" y="166" on="1"/>
        <pt x="1036" y="160" on="0"/>
        <pt x="1404" y="160" on="0"/>
        <pt x="1772" y="234" on="0"/>
        <pt x="2039" y="362" on="0"/>
        <pt x="2247" y="544" on="0"/>
        <pt x="2379" y="749" on="0"/>
        <pt x="2422" y="869" on="1"/>
        <pt x="2499" y="1084" on="0"/>
        <pt x="2499" y="1469" on="0"/>
        <pt x="2451" y="1714" on="0"/>
        <pt x="2347" y="1952" on="0"/>
        <pt x="2195" y="2162" on="0"/>
        <pt x="1974" y="2340" on="0"/>
        <pt x="1839" y="2404" on="1"/>
        <pt x="1552" y="2540" on="0"/>
        <pt x="1155" y="2540" on="1"/>
        <pt x="1004" y="2540" on="1"/>
        <pt x="933" y="2540" on="0"/>
        <pt x="900" y="2528" on="1"/>
        <pt x="836" y="2503" on="0"/>
        <pt x="836" y="2347" on="1"/>
        <pt x="836" y="1507" on="1"/>
        <pt x="1671" y="1507" on="1"/>
        <pt x="1667" y="1311" on="1"/>
        <pt x="836" y="1311" on="1"/>
      </contour>
    </TTGlyph>
    <TTGlyph name="Eth.c2" xMin="111" yMin="0" xMax="1815" yMax="1606">
      <component glyphName="eth.sc" x="0" y="0" flags="0x1004"/>
    </TTGlyph>
    <TTGlyph name="Euro" xMin="70" yMin="-41" xMax="2220" yMax="2097">
      <contour>
        <pt x="578" y="1032" on="1"/>
        <pt x="582" y="950" on="1"/>
        <pt x="1872" y="950" on="1"/>
        <pt x="1790" y="754" on="1"/>
        <pt x="623" y="754" on="1"/>
        <pt x="739" y="405" on="0"/>
        <pt x="1074" y="242" on="1"/>
        <pt x="1257" y="152" on="0"/>
        <pt x="1529" y="152" on="0"/>
        <pt x="1696" y="184" on="0"/>
        <pt x="1819" y="228" on="0"/>
        <pt x="1943" y="299" on="0"/>
        <pt x="2014" y="348" on="0"/>
        <pt x="2054" y="384" on="1"/>
        <pt x="2130" y="463" on="1"/>
        <pt x="2142" y="459" on="1"/>
        <pt x="2142" y="209" on="1"/>
        <pt x="1833" y="-41" on="0"/>
        <pt x="1454" y="-41" on="1"/>
        <pt x="1060" y="-41" on="0"/>
        <pt x="761" y="210" on="1"/>
        <pt x="524" y="409" on="0"/>
        <pt x="418" y="754" on="1"/>
        <pt x="82" y="754" on="1"/>
        <pt x="160" y="950" on="1"/>
        <pt x="385" y="950" on="1"/>
        <pt x="385" y="1110" on="1"/>
        <pt x="70" y="1110" on="1"/>
        <pt x="147" y="1303" on="1"/>
        <pt x="418" y="1303" on="1"/>
        <pt x="522" y="1659" on="0"/>
        <pt x="799" y="1873" on="1"/>
        <pt x="1090" y="2097" on="0"/>
        <pt x="1430" y="2097" on="1"/>
        <pt x="1667" y="2097" on="0"/>
        <pt x="2036" y="1949" on="0"/>
        <pt x="2220" y="1778" on="1"/>
        <pt x="2190" y="1703" on="0"/>
        <pt x="2130" y="1577" on="1"/>
        <pt x="2057" y="1703" on="0"/>
        <pt x="1854" y="1810" on="1"/>
        <pt x="1674" y="1905" on="0"/>
        <pt x="1446" y="1905" on="1"/>
        <pt x="1148" y="1905" on="0"/>
        <pt x="906" y="1714" on="1"/>
        <pt x="720" y="1566" on="0"/>
        <pt x="623" y="1303" on="1"/>
        <pt x="2019" y="1303" on="1"/>
        <pt x="1942" y="1110" on="1"/>
        <pt x="582" y="1110" on="1"/>
      </contour>
    </TTGlyph>
    <TTGlyph name="F" xMin="111" yMin="0" xMax="2232" yMax="2732">
      <contour>
        <pt x="111" y="2732" on="1"/>
        <pt x="2212" y="2732" on="1"/>
        <pt x="2219" y="2350" on="0"/>
        <pt x="2232" y="2089" on="1"/>
        <pt x="2073" y="2081" on="1"/>
        <pt x="2058" y="2485" on="0"/>
        <pt x="2012" y="2534" on="1"/>
        <pt x="1998" y="2549" on="0"/>
        <pt x="1933" y="2556" on="0"/>
        <pt x="1774" y="2556" on="1"/>
        <pt x="1077" y="2556" on="1"/>
        <pt x="908" y="2556" on="0"/>
        <pt x="862" y="2520" on="0"/>
        <pt x="852" y="2494" on="1"/>
        <pt x="840" y="2464" on="0"/>
        <pt x="840" y="2363" on="1"/>
        <pt x="840" y="1794" on="1"/>
        <pt x="840" y="1674" on="0"/>
        <pt x="865" y="1647" on="0"/>
        <pt x="882" y="1640" on="1"/>
        <pt x="904" y="1630" on="0"/>
        <pt x="975" y="1630" on="1"/>
        <pt x="1593" y="1630" on="1"/>
        <pt x="1704" y="1630" on="0"/>
        <pt x="1733" y="1670" on="0"/>
        <pt x="1740" y="1694" on="1"/>
        <pt x="1749" y="1726" on="0"/>
        <pt x="1749" y="1827" on="1"/>
        <pt x="1749" y="1987" on="1"/>
        <pt x="1901" y="1987" on="1"/>
        <pt x="1901" y="1008" on="1"/>
        <pt x="1749" y="1008" on="1"/>
        <pt x="1749" y="1280" on="1"/>
        <pt x="1749" y="1306" on="0"/>
        <pt x="1744" y="1355" on="0"/>
        <pt x="1742" y="1385" on="0"/>
        <pt x="1730" y="1414" on="0"/>
        <pt x="1723" y="1428" on="0"/>
        <pt x="1700" y="1442" on="0"/>
        <pt x="1687" y="1446" on="0"/>
        <pt x="1651" y="1450" on="0"/>
        <pt x="1640" y="1450" on="1"/>
        <pt x="987" y="1450" on="1"/>
        <pt x="885" y="1450" on="0"/>
        <pt x="865" y="1430" on="1"/>
        <pt x="840" y="1403" on="0"/>
        <pt x="840" y="1323" on="1"/>
        <pt x="840" y="356" on="1"/>
        <pt x="840" y="243" on="0"/>
        <pt x="887" y="160" on="0"/>
        <pt x="963" y="160" on="1"/>
        <pt x="1237" y="160" on="1"/>
        <pt x="1237" y="0" on="1"/>
        <pt x="184" y="0" on="1"/>
        <pt x="184" y="160" on="1"/>
        <pt x="303" y="160" on="1"/>
        <pt x="445" y="160" on="0"/>
        <pt x="488" y="192" on="0"/>
        <pt x="496" y="212" on="1"/>
        <pt x="508" y="238" on="0"/>
        <pt x="508" y="315" on="1"/>
        <pt x="508" y="2392" on="1"/>
        <pt x="508" y="2522" on="0"/>
        <pt x="453" y="2542" on="0"/>
        <pt x="416" y="2562" on="0"/>
        <pt x="308" y="2565" on="0"/>
        <pt x="213" y="2568" on="0"/>
        <pt x="115" y="2568" on="1"/>
      </contour>
    </TTGlyph>
    <TTGlyph name="F.c2" xMin="111" yMin="0" xMax="1552" yMax="1606">
      <component glyphName="f.sc" x="0" y="0" flags="0x1004"/>
    </TTGlyph>
    <TTGlyph name="G" xMin="221" yMin="-94" xMax="3142" yMax="2793">
      <contour>
        <pt x="277" y="796" on="0"/>
        <pt x="221" y="1074" on="0"/>
        <pt x="221" y="1383" on="0"/>
        <pt x="289" y="1706" on="0"/>
        <pt x="426" y="2012" on="0"/>
        <pt x="619" y="2287" on="0"/>
        <pt x="883" y="2517" on="0"/>
        <pt x="1037" y="2600" on="1"/>
        <pt x="1363" y="2777" on="0"/>
        <pt x="1778" y="2777" on="1"/>
        <pt x="2007" y="2777" on="0"/>
        <pt x="2382" y="2682" on="0"/>
        <pt x="2613" y="2589" on="1"/>
        <pt x="2613" y="2793" on="1"/>
        <pt x="2777" y="2793" on="1"/>
        <pt x="2806" y="1901" on="1"/>
        <pt x="2646" y="1896" on="1"/>
        <pt x="2617" y="2322" on="1"/>
        <pt x="2405" y="2485" on="0"/>
        <pt x="2050" y="2552" on="1"/>
        <pt x="1901" y="2580" on="0"/>
        <pt x="1552" y="2580" on="0"/>
        <pt x="1218" y="2491" on="0"/>
        <pt x="969" y="2330" on="0"/>
        <pt x="774" y="2113" on="0"/>
        <pt x="713" y="1982" on="1"/>
        <pt x="590" y="1719" on="0"/>
        <pt x="590" y="1417" on="1"/>
        <pt x="590" y="1092" on="0"/>
        <pt x="728" y="792" on="1"/>
        <pt x="866" y="494" on="0"/>
        <pt x="1134" y="303" on="1"/>
        <pt x="1412" y="106" on="0"/>
        <pt x="1790" y="106" on="1"/>
        <pt x="2170" y="106" on="0"/>
        <pt x="2442" y="287" on="1"/>
        <pt x="2472" y="307" on="0"/>
        <pt x="2499" y="332" on="1"/>
        <pt x="2499" y="1065" on="1"/>
        <pt x="2011" y="1065" on="1"/>
        <pt x="2007" y="1225" on="1"/>
        <pt x="3138" y="1225" on="1"/>
        <pt x="3142" y="1065" on="1"/>
        <pt x="2830" y="1065" on="1"/>
        <pt x="2830" y="225" on="1"/>
        <pt x="2770" y="200" on="0"/>
        <pt x="2574" y="111" on="0"/>
        <pt x="2443" y="52" on="0"/>
        <pt x="2243" y="-21" on="0"/>
        <pt x="2156" y="-42" on="1"/>
        <pt x="1946" y="-94" on="0"/>
        <pt x="1496" y="-94" on="0"/>
        <pt x="1114" y="-19" on="0"/>
        <pt x="815" y="116" on="0"/>
        <pt x="569" y="306" on="0"/>
        <pt x="396" y="533" on="0"/>
      </contour>
    </TTGlyph>
    <TTGlyph name="G.c2" xMin="143" yMin="-37" xMax="1937" yMax="1659">
      <component glyphName="g.sc" x="0" y="0" flags="0x1004"/>
    </TTGlyph>
    <TTGlyph name="Gbreve" xMin="221" yMin="-94" xMax="3142" yMax="3543">
      <component glyphName="uni0306.cap" x="2482" y="999" flags="0x1004"/>
      <component glyphName="G" x="0" y="0" flags="0x1004"/>
    </TTGlyph>
    <TTGlyph name="Gbreve.c2" xMin="143" yMin="-37" xMax="1937" yMax="2478">
      <component glyphName="gbreve.sc" x="0" y="0" flags="0x1004"/>
    </TTGlyph>
    <TTGlyph name="Gcircumflex" xMin="221" yMin="-94" xMax="3142" yMax="3543">
      <component glyphName="uni0302.cap" x="2482" y="999" flags="0x1004"/>
      <component glyphName="G" x="0" y="0" flags="0x1004"/>
    </TTGlyph>
    <TTGlyph name="Gcircumflex.c2" xMin="143" yMin="-37" xMax="1937" yMax="2478">
      <component glyphName="gcircumflex.sc" x="0" y="0" flags="0x1004"/>
    </TTGlyph>
    <TTGlyph name="Gcommaaccent" xMin="221" yMin="-946" xMax="3142" yMax="2793">
      <component glyphName="uni0326" x="2472" y="53" flags="0x1004"/>
      <component glyphName="G" x="0" y="0" flags="0x1004"/>
    </TTGlyph>
    <TTGlyph name="Gcommaaccent.c2" xMin="143" yMin="-999" xMax="1937" yMax="1659">
      <component glyphName="gcommaaccent.sc" x="0" y="0" flags="0x1004"/>
    </TTGlyph>
    <TTGlyph name="Gdotaccent" xMin="221" yMin="-94" xMax="3142" yMax="3493">
      <component glyphName="uni0307.cap" x="2482" y="999" flags="0x1004"/>
      <component glyphName="G" x="0" y="0" flags="0x1004"/>
    </TTGlyph>
    <TTGlyph name="Gdotaccent.c2" xMin="143" yMin="-37" xMax="1937" yMax="2421">
      <component glyphName="gdotaccent.sc" x="0" y="0" flags="0x1004"/>
    </TTGlyph>
    <TTGlyph name="H" xMin="111" yMin="0" xMax="2839" yMax="2732">
      <contour>
        <pt x="111" y="2568" on="1"/>
        <pt x="111" y="2732" on="1"/>
        <pt x="1130" y="2732" on="1"/>
        <pt x="1130" y="2568" on="1"/>
        <pt x="1024" y="2568" on="1"/>
        <pt x="870" y="2568" on="0"/>
        <pt x="820" y="2528" on="0"/>
        <pt x="809" y="2507" on="1"/>
        <pt x="791" y="2473" on="0"/>
        <pt x="791" y="2388" on="1"/>
        <pt x="791" y="1610" on="1"/>
        <pt x="2122" y="1610" on="1"/>
        <pt x="2122" y="2421" on="1"/>
        <pt x="2122" y="2530" on="0"/>
        <pt x="2085" y="2553" on="0"/>
        <pt x="2056" y="2560" on="1"/>
        <pt x="2024" y="2568" on="0"/>
        <pt x="1909" y="2568" on="1"/>
        <pt x="1737" y="2568" on="1"/>
        <pt x="1733" y="2732" on="1"/>
        <pt x="2773" y="2732" on="1"/>
        <pt x="2773" y="2568" on="1"/>
        <pt x="2658" y="2568" on="1"/>
        <pt x="2522" y="2568" on="0"/>
        <pt x="2477" y="2530" on="0"/>
        <pt x="2468" y="2510" on="1"/>
        <pt x="2454" y="2478" on="0"/>
        <pt x="2454" y="2396" on="1"/>
        <pt x="2454" y="328" on="1"/>
        <pt x="2454" y="210" on="0"/>
        <pt x="2529" y="160" on="0"/>
        <pt x="2699" y="160" on="1"/>
        <pt x="2839" y="160" on="1"/>
        <pt x="2834" y="0" on="1"/>
        <pt x="1815" y="0" on="1"/>
        <pt x="1810" y="160" on="1"/>
        <pt x="1929" y="160" on="1"/>
        <pt x="2064" y="160" on="0"/>
        <pt x="2104" y="198" on="0"/>
        <pt x="2112" y="221" on="1"/>
        <pt x="2122" y="253" on="0"/>
        <pt x="2122" y="340" on="1"/>
        <pt x="2122" y="1413" on="1"/>
        <pt x="791" y="1413" on="1"/>
        <pt x="791" y="340" on="1"/>
        <pt x="791" y="217" on="0"/>
        <pt x="838" y="187" on="1"/>
        <pt x="879" y="160" on="0"/>
        <pt x="1085" y="160" on="1"/>
        <pt x="1204" y="160" on="1"/>
        <pt x="1196" y="0" on="1"/>
        <pt x="147" y="0" on="1"/>
        <pt x="143" y="160" on="1"/>
        <pt x="231" y="160" on="0"/>
        <pt x="343" y="160" on="0"/>
        <pt x="398" y="168" on="0"/>
        <pt x="419" y="172" on="0"/>
        <pt x="446" y="197" on="0"/>
        <pt x="451" y="213" on="0"/>
        <pt x="459" y="264" on="0"/>
        <pt x="459" y="282" on="1"/>
        <pt x="459" y="2433" on="1"/>
        <pt x="459" y="2528" on="0"/>
        <pt x="414" y="2548" on="1"/>
        <pt x="370" y="2568" on="0"/>
        <pt x="217" y="2568" on="1"/>
      </contour>
    </TTGlyph>
    <TTGlyph name="H.c2" xMin="111" yMin="0" xMax="1917" yMax="1606">
      <component glyphName="h.sc" x="0" y="0" flags="0x1004"/>
    </TTGlyph>
    <TTGlyph name="Hbar" xMin="111" yMin="0" xMax="2839" yMax="2732">
      <contour>
        <pt x="111" y="2568" on="1"/>
        <pt x="111" y="2732" on="1"/>
        <pt x="1130" y="2732" on="1"/>
        <pt x="1130" y="2568" on="1"/>
        <pt x="975" y="2568" on="1"/>
        <pt x="874" y="2568" on="0"/>
        <pt x="842" y="2544" on="1"/>
        <pt x="791" y="2507" on="0"/>
        <pt x="791" y="2388" on="1"/>
        <pt x="791" y="2191" on="1"/>
        <pt x="2122" y="2191" on="1"/>
        <pt x="2122" y="2421" on="1"/>
        <pt x="2122" y="2527" on="0"/>
        <pt x="2083" y="2554" on="0"/>
        <pt x="2055" y="2560" on="1"/>
        <pt x="2023" y="2568" on="0"/>
        <pt x="1909" y="2568" on="1"/>
        <pt x="1737" y="2568" on="1"/>
        <pt x="1733" y="2732" on="1"/>
        <pt x="2773" y="2732" on="1"/>
        <pt x="2773" y="2568" on="1"/>
        <pt x="2638" y="2568" on="1"/>
        <pt x="2526" y="2568" on="0"/>
        <pt x="2497" y="2545" on="1"/>
        <pt x="2454" y="2511" on="0"/>
        <pt x="2454" y="2396" on="1"/>
        <pt x="2454" y="2191" on="1"/>
        <pt x="2777" y="2191" on="1"/>
        <pt x="2773" y="1995" on="1"/>
        <pt x="2454" y="1995" on="1"/>
        <pt x="2454" y="328" on="1"/>
        <pt x="2454" y="214" on="0"/>
        <pt x="2493" y="186" on="1"/>
        <pt x="2528" y="160" on="0"/>
        <pt x="2699" y="160" on="1"/>
        <pt x="2839" y="160" on="1"/>
        <pt x="2834" y="0" on="1"/>
        <pt x="1815" y="0" on="1"/>
        <pt x="1810" y="160" on="1"/>
        <pt x="1892" y="160" on="1"/>
        <pt x="2061" y="160" on="0"/>
        <pt x="2105" y="198" on="0"/>
        <pt x="2113" y="216" on="0"/>
        <pt x="2122" y="263" on="0"/>
        <pt x="2122" y="282" on="1"/>
        <pt x="2122" y="1413" on="1"/>
        <pt x="791" y="1413" on="1"/>
        <pt x="791" y="340" on="1"/>
        <pt x="791" y="217" on="0"/>
        <pt x="836" y="186" on="1"/>
        <pt x="876" y="160" on="0"/>
        <pt x="1065" y="160" on="1"/>
        <pt x="1204" y="160" on="1"/>
        <pt x="1196" y="0" on="1"/>
        <pt x="147" y="0" on="1"/>
        <pt x="143" y="160" on="1"/>
        <pt x="245" y="160" on="0"/>
        <pt x="361" y="160" on="0"/>
        <pt x="404" y="165" on="0"/>
        <pt x="419" y="173" on="0"/>
        <pt x="443" y="192" on="0"/>
        <pt x="448" y="216" on="0"/>
        <pt x="453" y="236" on="1"/>
        <pt x="459" y="260" on="0"/>
        <pt x="459" y="340" on="1"/>
        <pt x="459" y="1995" on="1"/>
        <pt x="119" y="1995" on="1"/>
        <pt x="119" y="2191" on="1"/>
        <pt x="459" y="2191" on="1"/>
        <pt x="459" y="2433" on="1"/>
        <pt x="459" y="2523" on="0"/>
        <pt x="415" y="2548" on="1"/>
        <pt x="380" y="2568" on="0"/>
        <pt x="221" y="2568" on="1"/>
      </contour>
      <contour>
        <pt x="791" y="1610" on="1"/>
        <pt x="2122" y="1610" on="1"/>
        <pt x="2122" y="1995" on="1"/>
        <pt x="791" y="1995" on="1"/>
      </contour>
    </TTGlyph>
    <TTGlyph name="Hbar.c2" xMin="111" yMin="0" xMax="1917" yMax="1606">
      <component glyphName="hbar.sc" x="0" y="0" flags="0x1004"/>
    </TTGlyph>
    <TTGlyph name="Hcircumflex" xMin="111" yMin="0" xMax="2839" yMax="3543">
      <component glyphName="uni0302.cap" x="2249" y="999" flags="0x1004"/>
      <component glyphName="H" x="0" y="0" flags="0x1004"/>
    </TTGlyph>
    <TTGlyph name="Hcircumflex.c2" xMin="111" yMin="0" xMax="1917" yMax="2478">
      <component glyphName="hcircumflex.sc" x="0" y="0" flags="0x1004"/>
    </TTGlyph>
    <TTGlyph name="I" xMin="111" yMin="0" xMax="1208" yMax="2732">
      <contour>
        <pt x="111" y="2568" on="1"/>
        <pt x="115" y="2732" on="1"/>
        <pt x="1143" y="2732" on="1"/>
        <pt x="1143" y="2568" on="1"/>
        <pt x="1073" y="2568" on="1"/>
        <pt x="931" y="2568" on="0"/>
        <pt x="884" y="2553" on="0"/>
        <pt x="850" y="2533" on="0"/>
        <pt x="839" y="2508" on="0"/>
        <pt x="832" y="2487" on="1"/>
        <pt x="823" y="2456" on="0"/>
        <pt x="823" y="2380" on="1"/>
        <pt x="823" y="348" on="1"/>
        <pt x="823" y="216" on="0"/>
        <pt x="868" y="179" on="0"/>
        <pt x="896" y="171" on="1"/>
        <pt x="934" y="160" on="0"/>
        <pt x="1044" y="160" on="1"/>
        <pt x="1204" y="160" on="1"/>
        <pt x="1208" y="0" on="1"/>
        <pt x="160" y="0" on="1"/>
        <pt x="156" y="160" on="1"/>
        <pt x="262" y="160" on="1"/>
        <pt x="422" y="160" on="0"/>
        <pt x="471" y="197" on="0"/>
        <pt x="480" y="221" on="1"/>
        <pt x="492" y="253" on="0"/>
        <pt x="492" y="340" on="1"/>
        <pt x="492" y="2421" on="1"/>
        <pt x="492" y="2528" on="0"/>
        <pt x="453" y="2554" on="0"/>
        <pt x="426" y="2560" on="1"/>
        <pt x="394" y="2568" on="0"/>
        <pt x="283" y="2568" on="1"/>
      </contour>
    </TTGlyph>
    <TTGlyph name="I.c2" xMin="111" yMin="0" xMax="1012" yMax="1606">
      <component glyphName="i.sc" x="0" y="0" flags="0x1004"/>
    </TTGlyph>
    <TTGlyph name="I.trk.c2" xMin="111" yMin="0" xMax="1012" yMax="2421">
      <component glyphName="i.sc" x="0" y="0" flags="0x1004"/>
      <component glyphName="uni0307" x="1327" y="0" flags="0x1004"/>
    </TTGlyph>
    <TTGlyph name="IJ" xMin="111" yMin="-1057" xMax="2458" yMax="2732">
      <component glyphName="J" x="1319" y="0" flags="0x1004"/>
      <component glyphName="I" x="0" y="0" flags="0x1004"/>
    </TTGlyph>
    <TTGlyph name="IJ.c2" xMin="111" yMin="-1061" xMax="2072" yMax="1606">
      <component glyphName="ij.sc" x="0" y="0" flags="0x1004"/>
    </TTGlyph>
    <TTGlyph name="Iacute" xMin="111" yMin="0" xMax="1208" yMax="3559">
      <component glyphName="acutecomb.cap" x="1442" y="999" flags="0x1004"/>
      <component glyphName="I" x="0" y="0" flags="0x1004"/>
    </TTGlyph>
    <TTGlyph name="Iacute.c2" xMin="111" yMin="0" xMax="1012" yMax="2580">
      <component glyphName="iacute.sc" x="0" y="0" flags="0x1004"/>
    </TTGlyph>
    <TTGlyph name="Ibreve" xMin="111" yMin="0" xMax="1208" yMax="3543">
      <component glyphName="uni0306.cap" x="1442" y="999" flags="0x1004"/>
      <component glyphName="I" x="0" y="0" flags="0x1004"/>
    </TTGlyph>
    <TTGlyph name="Ibreve.c2" xMin="111" yMin="0" xMax="1012" yMax="2478">
      <component glyphName="ibreve.sc" x="0" y="0" flags="0x1004"/>
    </TTGlyph>
    <TTGlyph name="Icircumflex" xMin="111" yMin="0" xMax="1208" yMax="3543">
      <component glyphName="uni0302.cap" x="1442" y="999" flags="0x1004"/>
      <component glyphName="I" x="0" y="0" flags="0x1004"/>
    </TTGlyph>
    <TTGlyph name="Icircumflex.c2" xMin="110" yMin="0" xMax="1012" yMax="2478">
      <component glyphName="icircumflex.sc" x="0" y="0" flags="0x1004"/>
    </TTGlyph>
    <TTGlyph name="Idieresis" xMin="111" yMin="0" xMax="1208" yMax="3493">
      <contour>
        <pt x="111" y="2568" on="1"/>
        <pt x="115" y="2732" on="1"/>
        <pt x="1143" y="2732" on="1"/>
        <pt x="1143" y="2568" on="1"/>
        <pt x="1073" y="2568" on="1"/>
        <pt x="931" y="2568" on="0"/>
        <pt x="884" y="2553" on="0"/>
        <pt x="850" y="2533" on="0"/>
        <pt x="839" y="2508" on="0"/>
        <pt x="832" y="2487" on="1"/>
        <pt x="823" y="2456" on="0"/>
        <pt x="823" y="2380" on="1"/>
        <pt x="823" y="348" on="1"/>
        <pt x="823" y="216" on="0"/>
        <pt x="868" y="179" on="0"/>
        <pt x="896" y="171" on="1"/>
        <pt x="934" y="160" on="0"/>
        <pt x="1044" y="160" on="1"/>
        <pt x="1204" y="160" on="1"/>
        <pt x="1208" y="0" on="1"/>
        <pt x="160" y="0" on="1"/>
        <pt x="156" y="160" on="1"/>
        <pt x="262" y="160" on="1"/>
        <pt x="422" y="160" on="0"/>
        <pt x="471" y="197" on="0"/>
        <pt x="480" y="221" on="1"/>
        <pt x="492" y="253" on="0"/>
        <pt x="492" y="340" on="1"/>
        <pt x="492" y="2421" on="1"/>
        <pt x="492" y="2528" on="0"/>
        <pt x="453" y="2554" on="0"/>
        <pt x="426" y="2560" on="1"/>
        <pt x="394" y="2568" on="0"/>
        <pt x="283" y="2568" on="1"/>
      </contour>
      <contour>
        <pt x="303" y="3137" on="0"/>
        <pt x="172" y="3271" on="0"/>
        <pt x="172" y="3361" on="0"/>
        <pt x="318" y="3493" on="0"/>
        <pt x="403" y="3493" on="0"/>
        <pt x="520" y="3349" on="0"/>
        <pt x="520" y="3262" on="0"/>
        <pt x="382" y="3137" on="0"/>
      </contour>
      <contour>
        <pt x="906" y="3137" on="0"/>
        <pt x="775" y="3271" on="0"/>
        <pt x="775" y="3361" on="0"/>
        <pt x="918" y="3493" on="0"/>
        <pt x="1002" y="3493" on="0"/>
        <pt x="1123" y="3348" on="0"/>
        <pt x="1123" y="3262" on="0"/>
        <pt x="985" y="3137" on="0"/>
      </contour>
    </TTGlyph>
    <TTGlyph name="Idieresis.c2" xMin="70" yMin="0" xMax="1016" yMax="2421">
      <component glyphName="idieresis.sc" x="0" y="0" flags="0x1004"/>
    </TTGlyph>
    <TTGlyph name="Idotaccent" xMin="111" yMin="0" xMax="1208" yMax="3493">
      <component glyphName="uni0307.cap" x="1442" y="999" flags="0x1004"/>
      <component glyphName="I" x="0" y="0" flags="0x1004"/>
    </TTGlyph>
    <TTGlyph name="Igrave" xMin="111" yMin="0" xMax="1208" yMax="3559">
      <component glyphName="gravecomb.cap" x="1442" y="999" flags="0x1004"/>
      <component glyphName="I" x="0" y="0" flags="0x1004"/>
    </TTGlyph>
    <TTGlyph name="Igrave.c2" xMin="111" yMin="0" xMax="1012" yMax="2580">
      <component glyphName="igrave.sc" x="0" y="0" flags="0x1004"/>
    </TTGlyph>
    <TTGlyph name="Imacron" xMin="111" yMin="0" xMax="1208" yMax="3420">
      <component glyphName="uni0304.cap" x="1442" y="999" flags="0x1004"/>
      <component glyphName="I" x="0" y="0" flags="0x1004"/>
    </TTGlyph>
    <TTGlyph name="Imacron.c2" xMin="82" yMin="0" xMax="1024" yMax="2327">
      <component glyphName="imacron.sc" x="0" y="0" flags="0x1004"/>
    </TTGlyph>
    <TTGlyph name="Iogonek" xMin="111" yMin="-1065" xMax="1208" yMax="2732">
      <contour>
        <pt x="1126" y="-811" on="0"/>
        <pt x="1126" y="-854" on="0"/>
        <pt x="1094" y="-909" on="0"/>
        <pt x="1026" y="-973" on="0"/>
        <pt x="980" y="-1000" on="1"/>
        <pt x="872" y="-1065" on="0"/>
        <pt x="660" y="-1065" on="0"/>
        <pt x="539" y="-1037" on="0"/>
        <pt x="428" y="-974" on="0"/>
        <pt x="386" y="-928" on="1"/>
        <pt x="295" y="-827" on="0"/>
        <pt x="295" y="-659" on="1"/>
        <pt x="295" y="-497" on="0"/>
        <pt x="354" y="-387" on="1"/>
        <pt x="442" y="-224" on="0"/>
        <pt x="623" y="0" on="1"/>
        <pt x="160" y="0" on="1"/>
        <pt x="156" y="160" on="1"/>
        <pt x="238" y="160" on="1"/>
        <pt x="423" y="160" on="0"/>
        <pt x="471" y="201" on="0"/>
        <pt x="482" y="221" on="0"/>
        <pt x="486" y="243" on="1"/>
        <pt x="492" y="270" on="0"/>
        <pt x="492" y="340" on="1"/>
        <pt x="492" y="2421" on="1"/>
        <pt x="492" y="2528" on="0"/>
        <pt x="453" y="2554" on="0"/>
        <pt x="426" y="2560" on="1"/>
        <pt x="394" y="2568" on="0"/>
        <pt x="283" y="2568" on="1"/>
        <pt x="111" y="2568" on="1"/>
        <pt x="115" y="2732" on="1"/>
        <pt x="1143" y="2732" on="1"/>
        <pt x="1143" y="2568" on="1"/>
        <pt x="1012" y="2568" on="1"/>
        <pt x="885" y="2568" on="0"/>
        <pt x="851" y="2532" on="0"/>
        <pt x="840" y="2510" on="1"/>
        <pt x="823" y="2477" on="0"/>
        <pt x="823" y="2380" on="1"/>
        <pt x="823" y="348" on="1"/>
        <pt x="823" y="213" on="0"/>
        <pt x="867" y="180" on="0"/>
        <pt x="896" y="172" on="1"/>
        <pt x="936" y="160" on="0"/>
        <pt x="1057" y="160" on="1"/>
        <pt x="1204" y="160" on="1"/>
        <pt x="1208" y="0" on="1"/>
        <pt x="741" y="0" on="1"/>
        <pt x="639" y="-143" on="0"/>
        <pt x="553" y="-362" on="0"/>
        <pt x="553" y="-552" on="0"/>
        <pt x="568" y="-651" on="0"/>
        <pt x="609" y="-753" on="0"/>
        <pt x="641" y="-790" on="1"/>
        <pt x="713" y="-872" on="0"/>
        <pt x="848" y="-872" on="1"/>
        <pt x="965" y="-872" on="0"/>
        <pt x="1008" y="-851" on="1"/>
        <pt x="1090" y="-811" on="0"/>
      </contour>
    </TTGlyph>
    <TTGlyph name="Iogonek.c2" xMin="111" yMin="-1065" xMax="1012" yMax="1606">
      <component glyphName="iogonek.sc" x="0" y="0" flags="0x1004"/>
    </TTGlyph>
    <TTGlyph name="Itilde" xMin="111" yMin="0" xMax="1208" yMax="3543">
      <component glyphName="tildecomb.cap" x="1442" y="999" flags="0x1004"/>
      <component glyphName="I" x="0" y="0" flags="0x1004"/>
    </TTGlyph>
    <TTGlyph name="Itilde.c2" xMin="33" yMin="0" xMax="1036" yMax="2437">
      <component glyphName="itilde.sc" x="0" y="0" flags="0x1004"/>
    </TTGlyph>
    <TTGlyph name="J" xMin="-311" yMin="-1057" xMax="1139" yMax="2732">
      <contour>
        <pt x="225" y="-831" on="1"/>
        <pt x="492" y="-831" on="0"/>
        <pt x="492" y="-98" on="1"/>
        <pt x="492" y="2421" on="1"/>
        <pt x="492" y="2521" on="0"/>
        <pt x="453" y="2554" on="0"/>
        <pt x="430" y="2560" on="1"/>
        <pt x="398" y="2568" on="0"/>
        <pt x="307" y="2568" on="1"/>
        <pt x="156" y="2568" on="1"/>
        <pt x="156" y="2732" on="1"/>
        <pt x="1139" y="2732" on="1"/>
        <pt x="1130" y="2568" on="1"/>
        <pt x="999" y="2568" on="1"/>
        <pt x="878" y="2568" on="0"/>
        <pt x="847" y="2532" on="0"/>
        <pt x="838" y="2510" on="1"/>
        <pt x="823" y="2478" on="0"/>
        <pt x="823" y="2380" on="1"/>
        <pt x="823" y="-8" on="1"/>
        <pt x="823" y="-223" on="0"/>
        <pt x="777" y="-479" on="0"/>
        <pt x="661" y="-673" on="0"/>
        <pt x="395" y="-932" on="0"/>
        <pt x="151" y="-1057" on="0"/>
        <pt x="-114" y="-1057" on="0"/>
        <pt x="-311" y="-930" on="0"/>
        <pt x="-311" y="-805" on="0"/>
        <pt x="-222" y="-684" on="0"/>
        <pt x="-102" y="-606" on="0"/>
        <pt x="-23" y="-606" on="0"/>
        <pt x="37" y="-652" on="0"/>
        <pt x="84" y="-718" on="0"/>
        <pt x="108" y="-752" on="1"/>
        <pt x="163" y="-831" on="0"/>
      </contour>
    </TTGlyph>
    <TTGlyph name="J.c2" xMin="-328" yMin="-1061" xMax="950" yMax="1606">
      <component glyphName="j.sc" x="0" y="0" flags="0x1004"/>
    </TTGlyph>
    <TTGlyph name="Jcircumflex" xMin="-311" yMin="-1057" xMax="1139" yMax="3543">
      <component glyphName="uni0302.cap" x="1421" y="999" flags="0x1004"/>
      <component glyphName="J" x="0" y="0" flags="0x1004"/>
    </TTGlyph>
    <TTGlyph name="Jcircumflex.c2" xMin="-328" yMin="-1061" xMax="988" yMax="2478">
      <component glyphName="jcircumflex.sc" x="0" y="0" flags="0x1004"/>
    </TTGlyph>
    <TTGlyph name="K" xMin="111" yMin="0" xMax="2871" yMax="2732">
      <contour>
        <pt x="2019" y="2408" on="1"/>
        <pt x="2122" y="2492" on="0"/>
        <pt x="2122" y="2568" on="0"/>
        <pt x="1933" y="2568" on="1"/>
        <pt x="1774" y="2568" on="1"/>
        <pt x="1765" y="2732" on="1"/>
        <pt x="2748" y="2732" on="1"/>
        <pt x="2748" y="2568" on="1"/>
        <pt x="2642" y="2568" on="1"/>
        <pt x="2524" y="2568" on="0"/>
        <pt x="2465" y="2538" on="1"/>
        <pt x="2387" y="2497" on="0"/>
        <pt x="2146" y="2302" on="1"/>
        <pt x="1221" y="1561" on="1"/>
        <pt x="2458" y="270" on="1"/>
        <pt x="2523" y="202" on="0"/>
        <pt x="2593" y="160" on="0"/>
        <pt x="2634" y="160" on="1"/>
        <pt x="2871" y="160" on="1"/>
        <pt x="2863" y="0" on="1"/>
        <pt x="2220" y="0" on="1"/>
        <pt x="975" y="1368" on="1"/>
        <pt x="823" y="1245" on="1"/>
        <pt x="823" y="348" on="1"/>
        <pt x="823" y="247" on="0"/>
        <pt x="853" y="198" on="0"/>
        <pt x="894" y="176" on="0"/>
        <pt x="931" y="168" on="0"/>
        <pt x="970" y="164" on="1"/>
        <pt x="1021" y="160" on="0"/>
        <pt x="1147" y="160" on="1"/>
        <pt x="1237" y="160" on="1"/>
        <pt x="1237" y="0" on="1"/>
        <pt x="188" y="0" on="1"/>
        <pt x="184" y="160" on="1"/>
        <pt x="295" y="160" on="1"/>
        <pt x="442" y="160" on="0"/>
        <pt x="478" y="202" on="0"/>
        <pt x="486" y="219" on="0"/>
        <pt x="492" y="268" on="0"/>
        <pt x="492" y="284" on="1"/>
        <pt x="492" y="2421" on="1"/>
        <pt x="492" y="2528" on="0"/>
        <pt x="453" y="2554" on="0"/>
        <pt x="426" y="2560" on="1"/>
        <pt x="394" y="2568" on="0"/>
        <pt x="283" y="2568" on="1"/>
        <pt x="111" y="2568" on="1"/>
        <pt x="111" y="2732" on="1"/>
        <pt x="1135" y="2732" on="1"/>
        <pt x="1135" y="2568" on="1"/>
        <pt x="1004" y="2568" on="1"/>
        <pt x="882" y="2568" on="0"/>
        <pt x="849" y="2532" on="0"/>
        <pt x="839" y="2510" on="1"/>
        <pt x="823" y="2476" on="0"/>
        <pt x="823" y="2380" on="1"/>
        <pt x="823" y="1438" on="1"/>
      </contour>
    </TTGlyph>
    <TTGlyph name="K.c2" xMin="111" yMin="0" xMax="1901" yMax="1606">
      <component glyphName="k.sc" x="0" y="0" flags="0x1004"/>
    </TTGlyph>
    <TTGlyph name="Kcommaaccent" xMin="111" yMin="-999" xMax="2871" yMax="2732">
      <component glyphName="uni0326" x="2355" y="0" flags="0x1004"/>
      <component glyphName="K" x="0" y="0" flags="0x1004"/>
    </TTGlyph>
    <TTGlyph name="Kcommaaccent.c2" xMin="111" yMin="-999" xMax="1901" yMax="1606">
      <component glyphName="kcommaaccent.sc" x="0" y="0" flags="0x1004"/>
    </TTGlyph>
    <TTGlyph name="L" xMin="111" yMin="0" xMax="2281" yMax="2732">
      <contour>
        <pt x="111" y="2568" on="1"/>
        <pt x="115" y="2732" on="1"/>
        <pt x="1163" y="2732" on="1"/>
        <pt x="1163" y="2568" on="1"/>
        <pt x="979" y="2568" on="1"/>
        <pt x="865" y="2568" on="0"/>
        <pt x="829" y="2537" on="0"/>
        <pt x="819" y="2520" on="1"/>
        <pt x="803" y="2493" on="0"/>
        <pt x="803" y="2417" on="1"/>
        <pt x="803" y="348" on="1"/>
        <pt x="803" y="219" on="0"/>
        <pt x="854" y="198" on="1"/>
        <pt x="881" y="188" on="0"/>
        <pt x="938" y="188" on="1"/>
        <pt x="1973" y="194" on="0"/>
        <pt x="2028" y="249" on="1"/>
        <pt x="2059" y="280" on="0"/>
        <pt x="2089" y="424" on="0"/>
        <pt x="2108" y="520" on="0"/>
        <pt x="2125" y="619" on="0"/>
        <pt x="2138" y="692" on="1"/>
        <pt x="2281" y="684" on="1"/>
        <pt x="2146" y="0" on="1"/>
        <pt x="168" y="0" on="1"/>
        <pt x="164" y="160" on="1"/>
        <pt x="279" y="160" on="1"/>
        <pt x="419" y="160" on="0"/>
        <pt x="456" y="195" on="0"/>
        <pt x="464" y="211" on="0"/>
        <pt x="467" y="231" on="1"/>
        <pt x="471" y="258" on="0"/>
        <pt x="471" y="315" on="1"/>
        <pt x="471" y="2433" on="1"/>
        <pt x="471" y="2521" on="0"/>
        <pt x="383" y="2568" on="0"/>
        <pt x="254" y="2568" on="1"/>
      </contour>
    </TTGlyph>
    <TTGlyph name="L.CAT" xMin="111" yMin="0" xMax="2281" yMax="2732">
      <component glyphName="L" x="0" y="0" flags="0x1004"/>
    </TTGlyph>
    <TTGlyph name="L.CAT.c2" xMin="111" yMin="0" xMax="1659" yMax="1606">
      <component glyphName="L.c2" x="0" y="0" flags="0x1004"/>
    </TTGlyph>
    <TTGlyph name="L.c2" xMin="111" yMin="0" xMax="1659" yMax="1606">
      <component glyphName="l.sc" x="0" y="0" flags="0x1004"/>
    </TTGlyph>
    <TTGlyph name="Lacute" xMin="111" yMin="0" xMax="2281" yMax="3559">
      <component glyphName="acutecomb.cap" x="1425" y="999" flags="0x1004"/>
      <component glyphName="L" x="0" y="0" flags="0x1004"/>
    </TTGlyph>
    <TTGlyph name="Lacute.c2" xMin="111" yMin="0" xMax="1659" yMax="2580">
      <component glyphName="lacute.sc" x="0" y="0" flags="0x1004"/>
    </TTGlyph>
    <TTGlyph name="Lcaron" xMin="111" yMin="0" xMax="2281" yMax="2769">
      <component glyphName="uni0315" x="2290" y="0" flags="0x1004"/>
      <component glyphName="L" x="0" y="0" flags="0x1004"/>
    </TTGlyph>
    <TTGlyph name="Lcaron.c2" xMin="111" yMin="0" xMax="1659" yMax="1770">
      <component glyphName="lcaron.sc" x="0" y="0" flags="0x1004"/>
    </TTGlyph>
    <TTGlyph name="Lcommaaccent" xMin="111" yMin="-852" xMax="2281" yMax="2732">
      <component glyphName="uni0326" x="1987" y="147" flags="0x1004"/>
      <component glyphName="L" x="0" y="0" flags="0x1004"/>
    </TTGlyph>
    <TTGlyph name="Lcommaaccent.c2" xMin="111" yMin="-999" xMax="1659" yMax="1606">
      <component glyphName="lcommaaccent.sc" x="0" y="0" flags="0x1004"/>
    </TTGlyph>
    <TTGlyph name="Ldot" xMin="111" yMin="0" xMax="2281" yMax="2732">
      <component glyphName="periodcentered" x="1438" y="0" flags="0x1004"/>
      <component glyphName="L" x="0" y="0" flags="0x1004"/>
    </TTGlyph>
    <TTGlyph name="Ldot.c2" xMin="111" yMin="0" xMax="1659" yMax="1606">
      <component glyphName="ldot.sc" x="0" y="0" flags="0x1004"/>
    </TTGlyph>
    <TTGlyph name="Lslash" xMin="111" yMin="0" xMax="2281" yMax="2732">
      <contour>
        <pt x="111" y="2568" on="1"/>
        <pt x="115" y="2732" on="1"/>
        <pt x="1163" y="2732" on="1"/>
        <pt x="1163" y="2568" on="1"/>
        <pt x="979" y="2568" on="1"/>
        <pt x="865" y="2568" on="0"/>
        <pt x="829" y="2537" on="0"/>
        <pt x="819" y="2520" on="1"/>
        <pt x="803" y="2493" on="0"/>
        <pt x="803" y="2417" on="1"/>
        <pt x="803" y="1421" on="1"/>
        <pt x="1565" y="1634" on="1"/>
        <pt x="1577" y="1438" on="1"/>
        <pt x="803" y="1237" on="1"/>
        <pt x="803" y="348" on="1"/>
        <pt x="803" y="219" on="0"/>
        <pt x="854" y="198" on="1"/>
        <pt x="881" y="188" on="0"/>
        <pt x="938" y="188" on="1"/>
        <pt x="1973" y="194" on="0"/>
        <pt x="2028" y="249" on="1"/>
        <pt x="2059" y="280" on="0"/>
        <pt x="2089" y="424" on="0"/>
        <pt x="2108" y="520" on="0"/>
        <pt x="2125" y="619" on="0"/>
        <pt x="2138" y="692" on="1"/>
        <pt x="2281" y="684" on="1"/>
        <pt x="2146" y="0" on="1"/>
        <pt x="168" y="0" on="1"/>
        <pt x="164" y="160" on="1"/>
        <pt x="258" y="160" on="1"/>
        <pt x="350" y="160" on="0"/>
        <pt x="406" y="169" on="0"/>
        <pt x="432" y="173" on="0"/>
        <pt x="456" y="196" on="0"/>
        <pt x="464" y="210" on="0"/>
        <pt x="471" y="252" on="0"/>
        <pt x="471" y="266" on="1"/>
        <pt x="471" y="1155" on="1"/>
        <pt x="160" y="1061" on="1"/>
        <pt x="139" y="1257" on="1"/>
        <pt x="471" y="1339" on="1"/>
        <pt x="471" y="2433" on="1"/>
        <pt x="471" y="2522" on="0"/>
        <pt x="434" y="2541" on="1"/>
        <pt x="380" y="2568" on="0"/>
        <pt x="270" y="2568" on="1"/>
      </contour>
    </TTGlyph>
    <TTGlyph name="Lslash.c2" xMin="111" yMin="0" xMax="1659" yMax="1606">
      <component glyphName="lslash.sc" x="0" y="0" flags="0x1004"/>
    </TTGlyph>
    <TTGlyph name="M" xMin="152" yMin="-29" xMax="3277" yMax="2732">
      <contour>
        <pt x="475" y="2351" on="1"/>
        <pt x="479" y="2458" on="1"/>
        <pt x="479" y="2526" on="0"/>
        <pt x="435" y="2568" on="0"/>
        <pt x="365" y="2568" on="1"/>
        <pt x="156" y="2568" on="1"/>
        <pt x="152" y="2732" on="1"/>
        <pt x="770" y="2732" on="1"/>
        <pt x="1704" y="545" on="1"/>
        <pt x="2621" y="2732" on="1"/>
        <pt x="3277" y="2732" on="1"/>
        <pt x="3277" y="2568" on="1"/>
        <pt x="3138" y="2568" on="1"/>
        <pt x="3014" y="2568" on="0"/>
        <pt x="2925" y="2521" on="0"/>
        <pt x="2925" y="2437" on="1"/>
        <pt x="2925" y="348" on="1"/>
        <pt x="2925" y="239" on="0"/>
        <pt x="2944" y="203" on="0"/>
        <pt x="2971" y="177" on="0"/>
        <pt x="3002" y="170" on="0"/>
        <pt x="3032" y="166" on="1"/>
        <pt x="3068" y="160" on="0"/>
        <pt x="3174" y="160" on="1"/>
        <pt x="3256" y="160" on="1"/>
        <pt x="3260" y="0" on="1"/>
        <pt x="2265" y="0" on="1"/>
        <pt x="2261" y="160" on="1"/>
        <pt x="2343" y="160" on="1"/>
        <pt x="2518" y="160" on="0"/>
        <pt x="2571" y="197" on="0"/>
        <pt x="2580" y="221" on="1"/>
        <pt x="2593" y="253" on="0"/>
        <pt x="2593" y="340" on="1"/>
        <pt x="2593" y="2220" on="1"/>
        <pt x="1962" y="733" on="1"/>
        <pt x="1827" y="413" on="0"/>
        <pt x="1671" y="9" on="0"/>
        <pt x="1649" y="-29" on="0"/>
        <pt x="1627" y="-29" on="1"/>
        <pt x="1592" y="-29" on="0"/>
        <pt x="1466" y="262" on="1"/>
        <pt x="643" y="2167" on="1"/>
        <pt x="627" y="299" on="1"/>
        <pt x="627" y="227" on="0"/>
        <pt x="675" y="171" on="0"/>
        <pt x="849" y="160" on="0"/>
        <pt x="1036" y="160" on="1"/>
        <pt x="1036" y="0" on="1"/>
        <pt x="152" y="0" on="1"/>
        <pt x="152" y="160" on="1"/>
        <pt x="193" y="160" on="1"/>
        <pt x="365" y="160" on="0"/>
        <pt x="414" y="197" on="0"/>
        <pt x="424" y="223" on="1"/>
        <pt x="436" y="255" on="0"/>
        <pt x="438" y="352" on="1"/>
      </contour>
    </TTGlyph>
    <TTGlyph name="M.c2" xMin="111" yMin="-11" xMax="2433" yMax="1606">
      <component glyphName="m.sc" x="0" y="0" flags="0x1004"/>
    </TTGlyph>
    <TTGlyph name="N" xMin="111" yMin="-70" xMax="2937" yMax="2732">
      <contour>
        <pt x="111" y="2732" on="1"/>
        <pt x="745" y="2732" on="1"/>
        <pt x="2425" y="565" on="1"/>
        <pt x="2425" y="2421" on="1"/>
        <pt x="2425" y="2517" on="0"/>
        <pt x="2379" y="2547" on="1"/>
        <pt x="2346" y="2568" on="0"/>
        <pt x="2200" y="2568" on="1"/>
        <pt x="2056" y="2568" on="1"/>
        <pt x="2064" y="2732" on="1"/>
        <pt x="2937" y="2732" on="1"/>
        <pt x="2937" y="2568" on="1"/>
        <pt x="2843" y="2568" on="1"/>
        <pt x="2716" y="2568" on="0"/>
        <pt x="2678" y="2544" on="1"/>
        <pt x="2617" y="2508" on="0"/>
        <pt x="2617" y="2388" on="1"/>
        <pt x="2617" y="29" on="1"/>
        <pt x="2617" y="-31" on="0"/>
        <pt x="2606" y="-70" on="0"/>
        <pt x="2580" y="-70" on="1"/>
        <pt x="2523" y="-70" on="1"/>
        <pt x="2489" y="-70" on="0"/>
        <pt x="2475" y="-52" on="0"/>
        <pt x="2466" y="-42" on="0"/>
        <pt x="2443" y="-9" on="0"/>
        <pt x="2433" y="4" on="1"/>
        <pt x="647" y="2298" on="1"/>
        <pt x="668" y="348" on="1"/>
        <pt x="668" y="215" on="0"/>
        <pt x="720" y="186" on="1"/>
        <pt x="770" y="160" on="0"/>
        <pt x="971" y="160" on="1"/>
        <pt x="1040" y="160" on="1"/>
        <pt x="1040" y="0" on="1"/>
        <pt x="180" y="0" on="1"/>
        <pt x="180" y="160" on="1"/>
        <pt x="303" y="160" on="1"/>
        <pt x="438" y="160" on="0"/>
        <pt x="457" y="206" on="1"/>
        <pt x="475" y="250" on="0"/>
        <pt x="475" y="340" on="1"/>
        <pt x="475" y="2519" on="1"/>
        <pt x="434" y="2568" on="1"/>
        <pt x="115" y="2568" on="1"/>
      </contour>
    </TTGlyph>
    <TTGlyph name="N.c2" xMin="111" yMin="-49" xMax="1884" yMax="1606">
      <component glyphName="n.sc" x="0" y="0" flags="0x1004"/>
    </TTGlyph>
    <TTGlyph name="Nacute" xMin="111" yMin="-70" xMax="2937" yMax="3559">
      <component glyphName="acutecomb.cap" x="2331" y="999" flags="0x1004"/>
      <component glyphName="N" x="0" y="0" flags="0x1004"/>
    </TTGlyph>
    <TTGlyph name="Nacute.c2" xMin="111" yMin="-49" xMax="1884" yMax="2580">
      <component glyphName="nacute.sc" x="0" y="0" flags="0x1004"/>
    </TTGlyph>
    <TTGlyph name="Ncaron" xMin="111" yMin="-70" xMax="2937" yMax="3543">
      <component glyphName="uni030C.cap" x="2331" y="999" flags="0x1004"/>
      <component glyphName="N" x="0" y="0" flags="0x1004"/>
    </TTGlyph>
    <TTGlyph name="Ncaron.c2" xMin="111" yMin="-49" xMax="1884" yMax="2478">
      <component glyphName="ncaron.sc" x="0" y="0" flags="0x1004"/>
    </TTGlyph>
    <TTGlyph name="Ncommaaccent" xMin="111" yMin="-999" xMax="2937" yMax="2732">
      <component glyphName="uni0326" x="2351" y="0" flags="0x1004"/>
      <component glyphName="N" x="0" y="0" flags="0x1004"/>
    </TTGlyph>
    <TTGlyph name="Ncommaaccent.c2" xMin="111" yMin="-999" xMax="1884" yMax="1606">
      <component glyphName="ncommaaccent.sc" x="0" y="0" flags="0x1004"/>
    </TTGlyph>
    <TTGlyph name="Ntilde" xMin="111" yMin="-70" xMax="2937" yMax="3543">
      <component glyphName="tildecomb.cap" x="2331" y="999" flags="0x1004"/>
      <component glyphName="N" x="0" y="0" flags="0x1004"/>
    </TTGlyph>
    <TTGlyph name="Ntilde.c2" xMin="111" yMin="-49" xMax="1884" yMax="2437">
      <component glyphName="ntilde.sc" x="0" y="0" flags="0x1004"/>
    </TTGlyph>
    <TTGlyph name="O" xMin="221" yMin="-66" xMax="3047" yMax="2789">
      <contour>
        <pt x="221" y="1381" on="1"/>
        <pt x="221" y="1575" on="0"/>
        <pt x="333" y="1988" on="0"/>
        <pt x="531" y="2302" on="0"/>
        <pt x="800" y="2550" on="0"/>
        <pt x="959" y="2628" on="1"/>
        <pt x="1284" y="2789" on="0"/>
        <pt x="1642" y="2789" on="1"/>
        <pt x="2115" y="2789" on="0"/>
        <pt x="2491" y="2528" on="1"/>
        <pt x="2889" y="2251" on="0"/>
        <pt x="3006" y="1742" on="1"/>
        <pt x="3047" y="1563" on="0"/>
        <pt x="3047" y="1210" on="0"/>
        <pt x="2990" y="911" on="0"/>
        <pt x="2871" y="627" on="0"/>
        <pt x="2699" y="377" on="0"/>
        <pt x="2460" y="168" on="0"/>
        <pt x="2316" y="93" on="1"/>
        <pt x="2012" y="-66" on="0"/>
        <pt x="1610" y="-66" on="1"/>
        <pt x="1049" y="-66" on="0"/>
        <pt x="673" y="265" on="1"/>
        <pt x="221" y="662" on="0"/>
      </contour>
      <contour>
        <pt x="658" y="1978" on="0"/>
        <pt x="590" y="1660" on="0"/>
        <pt x="590" y="1332" on="0"/>
        <pt x="637" y="1049" on="0"/>
        <pt x="734" y="780" on="0"/>
        <pt x="871" y="539" on="0"/>
        <pt x="1061" y="338" on="0"/>
        <pt x="1174" y="265" on="1"/>
        <pt x="1411" y="111" on="0"/>
        <pt x="1720" y="111" on="1"/>
        <pt x="1969" y="111" on="0"/>
        <pt x="2186" y="237" on="1"/>
        <pt x="2402" y="362" on="0"/>
        <pt x="2536" y="619" on="1"/>
        <pt x="2675" y="883" on="0"/>
        <pt x="2675" y="1262" on="1"/>
        <pt x="2675" y="1874" on="0"/>
        <pt x="2322" y="2266" on="1"/>
        <pt x="2119" y="2493" on="0"/>
        <pt x="1831" y="2580" on="1"/>
        <pt x="1695" y="2621" on="0"/>
        <pt x="1472" y="2621" on="0"/>
        <pt x="1298" y="2589" on="0"/>
        <pt x="1106" y="2510" on="0"/>
        <pt x="932" y="2393" on="0"/>
        <pt x="774" y="2208" on="0"/>
      </contour>
    </TTGlyph>
    <TTGlyph name="O.c2" xMin="143" yMin="-49" xMax="1790" yMax="1651">
      <component glyphName="o.sc" x="0" y="0" flags="0x1004"/>
    </TTGlyph>
    <TTGlyph name="OE" xMin="225" yMin="-66" xMax="4162" yMax="2789">
      <contour>
        <pt x="2769" y="188" on="1"/>
        <pt x="3588" y="196" on="0"/>
        <pt x="3901" y="222" on="0"/>
        <pt x="3945" y="266" on="0"/>
        <pt x="3968" y="331" on="0"/>
        <pt x="4022" y="655" on="1"/>
        <pt x="4162" y="635" on="1"/>
        <pt x="4059" y="0" on="1"/>
        <pt x="2535" y="0" on="1"/>
        <pt x="2467" y="0" on="0"/>
        <pt x="1749" y="-66" on="0"/>
        <pt x="1415" y="-66" on="0"/>
        <pt x="1067" y="16" on="0"/>
        <pt x="790" y="163" on="0"/>
        <pt x="559" y="367" on="0"/>
        <pt x="394" y="613" on="0"/>
        <pt x="337" y="752" on="1"/>
        <pt x="225" y="1027" on="0"/>
        <pt x="225" y="1542" on="0"/>
        <pt x="308" y="1905" on="0"/>
        <pt x="458" y="2194" on="0"/>
        <pt x="665" y="2436" on="0"/>
        <pt x="914" y="2610" on="0"/>
        <pt x="1055" y="2670" on="1"/>
        <pt x="1331" y="2789" on="0"/>
        <pt x="1647" y="2789" on="1"/>
        <pt x="1827" y="2789" on="0"/>
        <pt x="2248" y="2732" on="0"/>
        <pt x="2490" y="2732" on="1"/>
        <pt x="4010" y="2732" on="1"/>
        <pt x="4014" y="2496" on="0"/>
        <pt x="4035" y="2089" on="1"/>
        <pt x="3871" y="2081" on="1"/>
        <pt x="3857" y="2459" on="0"/>
        <pt x="3809" y="2548" on="0"/>
        <pt x="3736" y="2556" on="0"/>
        <pt x="3572" y="2556" on="1"/>
        <pt x="2875" y="2556" on="1"/>
        <pt x="2708" y="2556" on="0"/>
        <pt x="2660" y="2516" on="0"/>
        <pt x="2652" y="2495" on="0"/>
        <pt x="2648" y="2470" on="1"/>
        <pt x="2642" y="2441" on="0"/>
        <pt x="2642" y="2363" on="1"/>
        <pt x="2642" y="1794" on="1"/>
        <pt x="2642" y="1675" on="0"/>
        <pt x="2666" y="1648" on="0"/>
        <pt x="2682" y="1640" on="1"/>
        <pt x="2703" y="1630" on="0"/>
        <pt x="2769" y="1630" on="1"/>
        <pt x="3391" y="1630" on="1"/>
        <pt x="3497" y="1630" on="0"/>
        <pt x="3532" y="1673" on="0"/>
        <pt x="3538" y="1698" on="1"/>
        <pt x="3547" y="1736" on="0"/>
        <pt x="3547" y="1827" on="1"/>
        <pt x="3547" y="1991" on="1"/>
        <pt x="3699" y="1987" on="1"/>
        <pt x="3699" y="1008" on="1"/>
        <pt x="3547" y="1008" on="1"/>
        <pt x="3547" y="1280" on="1"/>
        <pt x="3547" y="1305" on="0"/>
        <pt x="3543" y="1356" on="0"/>
        <pt x="3541" y="1384" on="0"/>
        <pt x="3529" y="1414" on="0"/>
        <pt x="3524" y="1428" on="0"/>
        <pt x="3501" y="1442" on="0"/>
        <pt x="3488" y="1446" on="0"/>
        <pt x="3452" y="1450" on="0"/>
        <pt x="3441" y="1450" on="1"/>
        <pt x="2785" y="1450" on="1"/>
        <pt x="2683" y="1450" on="0"/>
        <pt x="2665" y="1429" on="1"/>
        <pt x="2642" y="1402" on="0"/>
        <pt x="2642" y="1323" on="1"/>
        <pt x="2642" y="356" on="1"/>
        <pt x="2642" y="249" on="0"/>
        <pt x="2689" y="188" on="0"/>
      </contour>
      <contour>
        <pt x="2310" y="2486" on="1"/>
        <pt x="1932" y="2621" on="0"/>
        <pt x="1561" y="2621" on="1"/>
        <pt x="1274" y="2621" on="0"/>
        <pt x="1022" y="2452" on="1"/>
        <pt x="717" y="2247" on="0"/>
        <pt x="624" y="1819" on="1"/>
        <pt x="590" y="1660" on="0"/>
        <pt x="590" y="1308" on="0"/>
        <pt x="657" y="979" on="0"/>
        <pt x="783" y="674" on="0"/>
        <pt x="979" y="414" on="0"/>
        <pt x="1102" y="318" on="1"/>
        <pt x="1365" y="111" on="0"/>
        <pt x="2046" y="111" on="0"/>
        <pt x="2310" y="238" on="1"/>
      </contour>
    </TTGlyph>
    <TTGlyph name="OE.c2" xMin="143" yMin="-37" xMax="2646" yMax="1634">
      <component glyphName="oe.sc" x="0" y="0" flags="0x1004"/>
    </TTGlyph>
    <TTGlyph name="Oacute" xMin="221" yMin="-66" xMax="3047" yMax="3559">
      <component glyphName="acutecomb.cap" x="2421" y="999" flags="0x1004"/>
      <component glyphName="O" x="0" y="0" flags="0x1004"/>
    </TTGlyph>
    <TTGlyph name="Oacute.c2" xMin="143" yMin="-49" xMax="1790" yMax="2580">
      <component glyphName="oacute.sc" x="0" y="0" flags="0x1004"/>
    </TTGlyph>
    <TTGlyph name="Obreve" xMin="221" yMin="-66" xMax="3047" yMax="3543">
      <component glyphName="uni0306.cap" x="2421" y="999" flags="0x1004"/>
      <component glyphName="O" x="0" y="0" flags="0x1004"/>
    </TTGlyph>
    <TTGlyph name="Obreve.c2" xMin="143" yMin="-49" xMax="1790" yMax="2478">
      <component glyphName="obreve.sc" x="0" y="0" flags="0x1004"/>
    </TTGlyph>
    <TTGlyph name="Ocircumflex" xMin="221" yMin="-66" xMax="3047" yMax="3543">
      <component glyphName="uni0302.cap" x="2421" y="999" flags="0x1004"/>
      <component glyphName="O" x="0" y="0" flags="0x1004"/>
    </TTGlyph>
    <TTGlyph name="Ocircumflex.c2" xMin="143" yMin="-49" xMax="1790" yMax="2478">
      <component glyphName="ocircumflex.sc" x="0" y="0" flags="0x1004"/>
    </TTGlyph>
    <TTGlyph name="Odieresis" xMin="221" yMin="-66" xMax="3047" yMax="3493">
      <contour>
        <pt x="221" y="1381" on="1"/>
        <pt x="221" y="1575" on="0"/>
        <pt x="333" y="1988" on="0"/>
        <pt x="531" y="2302" on="0"/>
        <pt x="800" y="2550" on="0"/>
        <pt x="959" y="2628" on="1"/>
        <pt x="1284" y="2789" on="0"/>
        <pt x="1642" y="2789" on="1"/>
        <pt x="2115" y="2789" on="0"/>
        <pt x="2491" y="2528" on="1"/>
        <pt x="2889" y="2251" on="0"/>
        <pt x="3006" y="1742" on="1"/>
        <pt x="3047" y="1563" on="0"/>
        <pt x="3047" y="1210" on="0"/>
        <pt x="2990" y="911" on="0"/>
        <pt x="2871" y="627" on="0"/>
        <pt x="2699" y="377" on="0"/>
        <pt x="2460" y="168" on="0"/>
        <pt x="2316" y="93" on="1"/>
        <pt x="2012" y="-66" on="0"/>
        <pt x="1610" y="-66" on="1"/>
        <pt x="1049" y="-66" on="0"/>
        <pt x="673" y="265" on="1"/>
        <pt x="221" y="662" on="0"/>
      </contour>
      <contour>
        <pt x="658" y="1978" on="0"/>
        <pt x="590" y="1660" on="0"/>
        <pt x="590" y="1332" on="0"/>
        <pt x="637" y="1049" on="0"/>
        <pt x="734" y="780" on="0"/>
        <pt x="871" y="539" on="0"/>
        <pt x="1061" y="338" on="0"/>
        <pt x="1174" y="265" on="1"/>
        <pt x="1411" y="111" on="0"/>
        <pt x="1720" y="111" on="1"/>
        <pt x="1969" y="111" on="0"/>
        <pt x="2186" y="237" on="1"/>
        <pt x="2402" y="362" on="0"/>
        <pt x="2536" y="619" on="1"/>
        <pt x="2675" y="883" on="0"/>
        <pt x="2675" y="1262" on="1"/>
        <pt x="2675" y="1874" on="0"/>
        <pt x="2322" y="2266" on="1"/>
        <pt x="2119" y="2493" on="0"/>
        <pt x="1831" y="2580" on="1"/>
        <pt x="1695" y="2621" on="0"/>
        <pt x="1472" y="2621" on="0"/>
        <pt x="1298" y="2589" on="0"/>
        <pt x="1106" y="2510" on="0"/>
        <pt x="932" y="2393" on="0"/>
        <pt x="774" y="2208" on="0"/>
      </contour>
      <contour>
        <pt x="1282" y="3137" on="0"/>
        <pt x="1151" y="3271" on="0"/>
        <pt x="1151" y="3361" on="0"/>
        <pt x="1297" y="3493" on="0"/>
        <pt x="1382" y="3493" on="0"/>
        <pt x="1499" y="3349" on="0"/>
        <pt x="1499" y="3262" on="0"/>
        <pt x="1361" y="3137" on="0"/>
      </contour>
      <contour>
        <pt x="1885" y="3137" on="0"/>
        <pt x="1754" y="3271" on="0"/>
        <pt x="1754" y="3361" on="0"/>
        <pt x="1897" y="3493" on="0"/>
        <pt x="1981" y="3493" on="0"/>
        <pt x="2102" y="3348" on="0"/>
        <pt x="2102" y="3262" on="0"/>
        <pt x="1964" y="3137" on="0"/>
      </contour>
    </TTGlyph>
    <TTGlyph name="Odieresis.c2" xMin="143" yMin="-49" xMax="1790" yMax="2421">
      <component glyphName="odieresis.sc" x="0" y="0" flags="0x1004"/>
    </TTGlyph>
    <TTGlyph name="Ograve" xMin="221" yMin="-66" xMax="3047" yMax="3559">
      <component glyphName="gravecomb.cap" x="2421" y="999" flags="0x1004"/>
      <component glyphName="O" x="0" y="0" flags="0x1004"/>
    </TTGlyph>
    <TTGlyph name="Ograve.c2" xMin="143" yMin="-49" xMax="1790" yMax="2580">
      <component glyphName="ograve.sc" x="0" y="0" flags="0x1004"/>
    </TTGlyph>
    <TTGlyph name="Ohungarumlaut" xMin="221" yMin="-66" xMax="3047" yMax="3559">
      <component glyphName="uni030B.cap" x="2421" y="999" flags="0x1004"/>
      <component glyphName="O" x="0" y="0" flags="0x1004"/>
    </TTGlyph>
    <TTGlyph name="Ohungarumlaut.c2" xMin="143" yMin="-49" xMax="1790" yMax="2580">
      <component glyphName="ohungarumlaut.sc" x="0" y="0" flags="0x1004"/>
    </TTGlyph>
    <TTGlyph name="Omacron" xMin="221" yMin="-66" xMax="3047" yMax="3420">
      <component glyphName="uni0304.cap" x="2421" y="999" flags="0x1004"/>
      <component glyphName="O" x="0" y="0" flags="0x1004"/>
    </TTGlyph>
    <TTGlyph name="Omacron.c2" xMin="143" yMin="-49" xMax="1790" yMax="2327">
      <component glyphName="omacron.sc" x="0" y="0" flags="0x1004"/>
    </TTGlyph>
    <TTGlyph name="Oslash" xMin="221" yMin="-414" xMax="3047" yMax="2937">
      <contour>
        <pt x="352" y="660" on="0"/>
        <pt x="221" y="1101" on="0"/>
        <pt x="221" y="1575" on="0"/>
        <pt x="333" y="1988" on="0"/>
        <pt x="531" y="2302" on="0"/>
        <pt x="800" y="2550" on="0"/>
        <pt x="959" y="2628" on="1"/>
        <pt x="1284" y="2789" on="0"/>
        <pt x="1969" y="2789" on="0"/>
        <pt x="2273" y="2650" on="1"/>
        <pt x="2441" y="2937" on="1"/>
        <pt x="2609" y="2839" on="1"/>
        <pt x="2445" y="2560" on="1"/>
        <pt x="2878" y="2275" on="0"/>
        <pt x="3002" y="1758" on="1"/>
        <pt x="3047" y="1572" on="0"/>
        <pt x="3047" y="1210" on="0"/>
        <pt x="2990" y="911" on="0"/>
        <pt x="2871" y="627" on="0"/>
        <pt x="2699" y="377" on="0"/>
        <pt x="2460" y="168" on="0"/>
        <pt x="2316" y="93" on="1"/>
        <pt x="2012" y="-66" on="0"/>
        <pt x="1270" y="-66" on="0"/>
        <pt x="999" y="57" on="1"/>
        <pt x="729" y="-414" on="1"/>
        <pt x="561" y="-315" on="1"/>
        <pt x="827" y="147" on="1"/>
        <pt x="629" y="273" on="0"/>
      </contour>
      <contour>
        <pt x="590" y="1418" on="1"/>
        <pt x="590" y="1176" on="0"/>
        <pt x="795" y="617" on="0"/>
        <pt x="987" y="422" on="1"/>
        <pt x="2142" y="2429" on="1"/>
        <pt x="1876" y="2621" on="0"/>
        <pt x="1556" y="2621" on="1"/>
        <pt x="1271" y="2621" on="0"/>
        <pt x="1019" y="2452" on="1"/>
        <pt x="590" y="2163" on="0"/>
      </contour>
      <contour>
        <pt x="1139" y="291" on="1"/>
        <pt x="1405" y="111" on="0"/>
        <pt x="1720" y="111" on="1"/>
        <pt x="1969" y="111" on="0"/>
        <pt x="2186" y="237" on="1"/>
        <pt x="2402" y="362" on="0"/>
        <pt x="2536" y="619" on="1"/>
        <pt x="2675" y="883" on="0"/>
        <pt x="2675" y="1237" on="1"/>
        <pt x="2675" y="1908" on="0"/>
        <pt x="2298" y="2298" on="1"/>
      </contour>
    </TTGlyph>
    <TTGlyph name="Oslash.c2" xMin="143" yMin="-229" xMax="1790" yMax="1720">
      <component glyphName="oslash.sc" x="0" y="0" flags="0x1004"/>
    </TTGlyph>
    <TTGlyph name="Otilde" xMin="221" yMin="-66" xMax="3047" yMax="3543">
      <component glyphName="tildecomb.cap" x="2421" y="999" flags="0x1004"/>
      <component glyphName="O" x="0" y="0" flags="0x1004"/>
    </TTGlyph>
    <TTGlyph name="Otilde.c2" xMin="143" yMin="-49" xMax="1790" yMax="2437">
      <component glyphName="otilde.sc" x="0" y="0" flags="0x1004"/>
    </TTGlyph>
    <TTGlyph name="P" xMin="111" yMin="0" xMax="2159" yMax="2732">
      <contour>
        <pt x="111" y="0" on="1"/>
        <pt x="111" y="160" on="1"/>
        <pt x="238" y="160" on="1"/>
        <pt x="339" y="160" on="0"/>
        <pt x="373" y="185" on="0"/>
        <pt x="378" y="202" on="1"/>
        <pt x="385" y="221" on="0"/>
        <pt x="385" y="279" on="1"/>
        <pt x="385" y="2421" on="1"/>
        <pt x="385" y="2523" on="0"/>
        <pt x="360" y="2543" on="1"/>
        <pt x="327" y="2568" on="0"/>
        <pt x="229" y="2568" on="1"/>
        <pt x="123" y="2568" on="1"/>
        <pt x="127" y="2732" on="1"/>
        <pt x="971" y="2732" on="1"/>
        <pt x="1391" y="2732" on="0"/>
        <pt x="1507" y="2699" on="1"/>
        <pt x="1701" y="2644" on="0"/>
        <pt x="1969" y="2427" on="0"/>
        <pt x="2159" y="2056" on="0"/>
        <pt x="2159" y="1823" on="1"/>
        <pt x="2159" y="1459" on="0"/>
        <pt x="1854" y="1236" on="1"/>
        <pt x="1636" y="1077" on="0"/>
        <pt x="1294" y="1077" on="1"/>
        <pt x="1033" y="1077" on="0"/>
        <pt x="751" y="1154" on="1"/>
        <pt x="718" y="1163" on="0"/>
        <pt x="717" y="1163" on="1"/>
        <pt x="717" y="279" on="1"/>
        <pt x="717" y="193" on="0"/>
        <pt x="752" y="180" on="1"/>
        <pt x="804" y="160" on="0"/>
        <pt x="995" y="160" on="1"/>
        <pt x="1200" y="160" on="1"/>
        <pt x="1200" y="0" on="1"/>
      </contour>
      <contour>
        <pt x="717" y="1286" on="1"/>
        <pt x="821" y="1208" on="0"/>
        <pt x="1427" y="1208" on="0"/>
        <pt x="1774" y="1526" on="0"/>
        <pt x="1774" y="1831" on="1"/>
        <pt x="1774" y="2247" on="0"/>
        <pt x="1388" y="2447" on="1"/>
        <pt x="1155" y="2568" on="0"/>
        <pt x="840" y="2568" on="1"/>
        <pt x="768" y="2568" on="0"/>
        <pt x="748" y="2544" on="1"/>
        <pt x="717" y="2506" on="0"/>
        <pt x="717" y="2380" on="1"/>
      </contour>
    </TTGlyph>
    <TTGlyph name="P.c2" xMin="111" yMin="0" xMax="1602" yMax="1606">
      <component glyphName="p.sc" x="0" y="0" flags="0x1004"/>
    </TTGlyph>
    <TTGlyph name="Q" xMin="221" yMin="-975" xMax="3473" yMax="2789">
      <contour>
        <pt x="284" y="856" on="0"/>
        <pt x="221" y="1169" on="0"/>
        <pt x="221" y="1575" on="0"/>
        <pt x="333" y="1988" on="0"/>
        <pt x="531" y="2302" on="0"/>
        <pt x="800" y="2550" on="0"/>
        <pt x="959" y="2628" on="1"/>
        <pt x="1284" y="2789" on="0"/>
        <pt x="1642" y="2789" on="1"/>
        <pt x="2115" y="2789" on="0"/>
        <pt x="2491" y="2528" on="1"/>
        <pt x="2889" y="2251" on="0"/>
        <pt x="3006" y="1742" on="1"/>
        <pt x="3047" y="1563" on="0"/>
        <pt x="3047" y="1078" on="0"/>
        <pt x="2951" y="823" on="1"/>
        <pt x="2760" y="316" on="0"/>
        <pt x="2310" y="90" on="1"/>
        <pt x="2243" y="56" on="0"/>
        <pt x="2101" y="12" on="1"/>
        <pt x="2052" y="-4" on="1"/>
        <pt x="2244" y="-84" on="0"/>
        <pt x="2558" y="-333" on="1"/>
        <pt x="2886" y="-592" on="0"/>
        <pt x="3156" y="-729" on="0"/>
        <pt x="3294" y="-729" on="0"/>
        <pt x="3374" y="-706" on="0"/>
        <pt x="3422" y="-684" on="0"/>
        <pt x="3437" y="-684" on="1"/>
        <pt x="3473" y="-684" on="0"/>
        <pt x="3473" y="-729" on="1"/>
        <pt x="3473" y="-840" on="0"/>
        <pt x="3320" y="-922" on="1"/>
        <pt x="3221" y="-975" on="0"/>
        <pt x="2944" y="-975" on="0"/>
        <pt x="2758" y="-932" on="0"/>
        <pt x="2589" y="-849" on="0"/>
        <pt x="2439" y="-756" on="0"/>
        <pt x="2281" y="-627" on="0"/>
        <pt x="2160" y="-521" on="0"/>
        <pt x="2008" y="-385" on="0"/>
        <pt x="1823" y="-235" on="0"/>
        <pt x="1667" y="-121" on="0"/>
        <pt x="1544" y="-67" on="0"/>
        <pt x="1478" y="-58" on="0"/>
        <pt x="1320" y="-41" on="0"/>
        <pt x="1137" y="-3" on="0"/>
        <pt x="932" y="82" on="0"/>
        <pt x="730" y="214" on="0"/>
        <pt x="550" y="382" on="0"/>
        <pt x="396" y="603" on="0"/>
      </contour>
      <contour>
        <pt x="658" y="1978" on="0"/>
        <pt x="590" y="1660" on="0"/>
        <pt x="590" y="1332" on="0"/>
        <pt x="637" y="1049" on="0"/>
        <pt x="734" y="780" on="0"/>
        <pt x="871" y="539" on="0"/>
        <pt x="1061" y="338" on="0"/>
        <pt x="1174" y="265" on="1"/>
        <pt x="1411" y="111" on="0"/>
        <pt x="1720" y="111" on="1"/>
        <pt x="1969" y="111" on="0"/>
        <pt x="2186" y="237" on="1"/>
        <pt x="2402" y="362" on="0"/>
        <pt x="2536" y="619" on="1"/>
        <pt x="2675" y="883" on="0"/>
        <pt x="2675" y="1262" on="1"/>
        <pt x="2675" y="1874" on="0"/>
        <pt x="2322" y="2266" on="1"/>
        <pt x="2119" y="2493" on="0"/>
        <pt x="1831" y="2580" on="1"/>
        <pt x="1695" y="2621" on="0"/>
        <pt x="1472" y="2621" on="0"/>
        <pt x="1298" y="2589" on="0"/>
        <pt x="1106" y="2510" on="0"/>
        <pt x="932" y="2393" on="0"/>
        <pt x="774" y="2208" on="0"/>
      </contour>
    </TTGlyph>
    <TTGlyph name="Q.c2" xMin="143" yMin="-741" xMax="2179" yMax="1638">
      <component glyphName="q.sc" x="0" y="0" flags="0x1004"/>
    </TTGlyph>
    <TTGlyph name="R" xMin="94" yMin="0" xMax="2728" yMax="2732">
      <contour>
        <pt x="1159" y="1257" on="1"/>
        <pt x="908" y="1257" on="0"/>
        <pt x="786" y="1282" on="1"/>
        <pt x="786" y="279" on="1"/>
        <pt x="786" y="194" on="0"/>
        <pt x="824" y="179" on="1"/>
        <pt x="872" y="160" on="0"/>
        <pt x="1069" y="160" on="1"/>
        <pt x="1278" y="160" on="1"/>
        <pt x="1270" y="0" on="1"/>
        <pt x="180" y="0" on="1"/>
        <pt x="180" y="160" on="1"/>
        <pt x="274" y="160" on="1"/>
        <pt x="405" y="160" on="0"/>
        <pt x="439" y="181" on="0"/>
        <pt x="446" y="198" on="1"/>
        <pt x="455" y="216" on="0"/>
        <pt x="455" y="279" on="1"/>
        <pt x="455" y="2421" on="1"/>
        <pt x="455" y="2535" on="0"/>
        <pt x="362" y="2556" on="1"/>
        <pt x="310" y="2568" on="0"/>
        <pt x="209" y="2568" on="1"/>
        <pt x="94" y="2568" on="1"/>
        <pt x="98" y="2732" on="1"/>
        <pt x="1040" y="2732" on="1"/>
        <pt x="1366" y="2732" on="0"/>
        <pt x="1731" y="2649" on="0"/>
        <pt x="2016" y="2418" on="0"/>
        <pt x="2167" y="2117" on="0"/>
        <pt x="2167" y="1883" on="0"/>
        <pt x="2130" y="1733" on="0"/>
        <pt x="2043" y="1582" on="0"/>
        <pt x="1977" y="1519" on="1"/>
        <pt x="1831" y="1380" on="0"/>
        <pt x="1581" y="1315" on="1"/>
        <pt x="2367" y="270" on="1"/>
        <pt x="2423" y="200" on="0"/>
        <pt x="2497" y="160" on="0"/>
        <pt x="2544" y="160" on="1"/>
        <pt x="2720" y="160" on="1"/>
        <pt x="2728" y="0" on="1"/>
        <pt x="2134" y="0" on="1"/>
        <pt x="1257" y="1262" on="1"/>
      </contour>
      <contour>
        <pt x="786" y="1417" on="1"/>
        <pt x="835" y="1376" on="0"/>
        <pt x="1049" y="1376" on="1"/>
        <pt x="1421" y="1376" on="0"/>
        <pt x="1761" y="1632" on="0"/>
        <pt x="1761" y="1901" on="1"/>
        <pt x="1761" y="2197" on="0"/>
        <pt x="1543" y="2380" on="1"/>
        <pt x="1319" y="2568" on="0"/>
        <pt x="909" y="2568" on="1"/>
        <pt x="837" y="2568" on="0"/>
        <pt x="817" y="2544" on="1"/>
        <pt x="786" y="2506" on="0"/>
        <pt x="786" y="2380" on="1"/>
      </contour>
    </TTGlyph>
    <TTGlyph name="R.c2" xMin="111" yMin="0" xMax="1876" yMax="1606">
      <component glyphName="r.sc" x="0" y="0" flags="0x1004"/>
    </TTGlyph>
    <TTGlyph name="Racute" xMin="94" yMin="0" xMax="2728" yMax="3559">
      <component glyphName="acutecomb.cap" x="1958" y="999" flags="0x1004"/>
      <component glyphName="R" x="0" y="0" flags="0x1004"/>
    </TTGlyph>
    <TTGlyph name="Racute.c2" xMin="111" yMin="0" xMax="1876" yMax="2580">
      <component glyphName="racute.sc" x="0" y="0" flags="0x1004"/>
    </TTGlyph>
    <TTGlyph name="Rcaron" xMin="94" yMin="0" xMax="2728" yMax="3543">
      <component glyphName="uni030C.cap" x="1958" y="999" flags="0x1004"/>
      <component glyphName="R" x="0" y="0" flags="0x1004"/>
    </TTGlyph>
    <TTGlyph name="Rcaron.c2" xMin="111" yMin="0" xMax="1876" yMax="2478">
      <component glyphName="rcaron.sc" x="0" y="0" flags="0x1004"/>
    </TTGlyph>
    <TTGlyph name="Rcommaaccent" xMin="94" yMin="-852" xMax="2728" yMax="2732">
      <component glyphName="uni0326" x="2202" y="147" flags="0x1004"/>
      <component glyphName="R" x="0" y="0" flags="0x1004"/>
    </TTGlyph>
    <TTGlyph name="Rcommaaccent.c2" xMin="111" yMin="-987" xMax="1876" yMax="1606">
      <component glyphName="rcommaaccent.sc" x="0" y="0" flags="0x1004"/>
    </TTGlyph>
    <TTGlyph name="S" xMin="102" yMin="-115" xMax="1876" yMax="2798">
      <contour>
        <pt x="262" y="-115" on="1"/>
        <pt x="229" y="69" on="0"/>
        <pt x="102" y="696" on="1"/>
        <pt x="246" y="713" on="1"/>
        <pt x="299" y="459" on="1"/>
        <pt x="327" y="325" on="0"/>
        <pt x="360" y="286" on="0"/>
        <pt x="407" y="255" on="0"/>
        <pt x="447" y="241" on="0"/>
        <pt x="539" y="208" on="1"/>
        <pt x="747" y="135" on="0"/>
        <pt x="1146" y="135" on="0"/>
        <pt x="1392" y="251" on="0"/>
        <pt x="1544" y="481" on="0"/>
        <pt x="1544" y="706" on="0"/>
        <pt x="1484" y="846" on="0"/>
        <pt x="1393" y="956" on="0"/>
        <pt x="1320" y="1014" on="1"/>
        <pt x="1208" y="1102" on="0"/>
        <pt x="1020" y="1204" on="1"/>
        <pt x="852" y="1298" on="1"/>
        <pt x="602" y="1438" on="0"/>
        <pt x="458" y="1576" on="0"/>
        <pt x="367" y="1688" on="0"/>
        <pt x="340" y="1747" on="1"/>
        <pt x="279" y="1880" on="0"/>
        <pt x="279" y="2191" on="0"/>
        <pt x="419" y="2467" on="0"/>
        <pt x="533" y="2561" on="1"/>
        <pt x="780" y="2765" on="0"/>
        <pt x="1094" y="2765" on="1"/>
        <pt x="1250" y="2765" on="0"/>
        <pt x="1496" y="2683" on="0"/>
        <pt x="1530" y="2683" on="0"/>
        <pt x="1561" y="2736" on="0"/>
        <pt x="1565" y="2789" on="1"/>
        <pt x="1704" y="2798" on="1"/>
        <pt x="1765" y="2048" on="1"/>
        <pt x="1618" y="2044" on="1"/>
        <pt x="1581" y="2408" on="1"/>
        <pt x="1451" y="2509" on="0"/>
        <pt x="1211" y="2554" on="1"/>
        <pt x="1118" y="2572" on="0"/>
        <pt x="897" y="2572" on="0"/>
        <pt x="681" y="2462" on="0"/>
        <pt x="549" y="2260" on="0"/>
        <pt x="549" y="2070" on="0"/>
        <pt x="585" y="1953" on="0"/>
        <pt x="658" y="1851" on="0"/>
        <pt x="744" y="1763" on="0"/>
        <pt x="807" y="1718" on="1"/>
        <pt x="904" y="1649" on="0"/>
        <pt x="1061" y="1561" on="1"/>
        <pt x="1286" y="1438" on="1"/>
        <pt x="1527" y="1304" on="0"/>
        <pt x="1694" y="1152" on="0"/>
        <pt x="1785" y="1045" on="0"/>
        <pt x="1814" y="990" on="1"/>
        <pt x="1876" y="869" on="0"/>
        <pt x="1876" y="610" on="0"/>
        <pt x="1799" y="387" on="0"/>
        <pt x="1642" y="192" on="0"/>
        <pt x="1532" y="120" on="1"/>
        <pt x="1296" y="-37" on="0"/>
        <pt x="946" y="-37" on="1"/>
        <pt x="748" y="-37" on="0"/>
        <pt x="500" y="37" on="0"/>
        <pt x="471" y="37" on="1"/>
        <pt x="397" y="37" on="0"/>
        <pt x="397" y="-49" on="1"/>
        <pt x="401" y="-102" on="1"/>
      </contour>
    </TTGlyph>
    <TTGlyph name="S.c2" xMin="176" yMin="-102" xMax="1327" yMax="1675">
      <component glyphName="s.sc" x="0" y="0" flags="0x1004"/>
    </TTGlyph>
    <TTGlyph name="Sacute" xMin="102" yMin="-115" xMax="1876" yMax="3559">
      <component glyphName="acutecomb.cap" x="1872" y="999" flags="0x1004"/>
      <component glyphName="S" x="0" y="0" flags="0x1004"/>
    </TTGlyph>
    <TTGlyph name="Sacute.c2" xMin="176" yMin="-102" xMax="1327" yMax="2580">
      <component glyphName="sacute.sc" x="0" y="0" flags="0x1004"/>
    </TTGlyph>
    <TTGlyph name="Scaron" xMin="102" yMin="-115" xMax="1876" yMax="3543">
      <component glyphName="uni030C.cap" x="1872" y="999" flags="0x1004"/>
      <component glyphName="S" x="0" y="0" flags="0x1004"/>
    </TTGlyph>
    <TTGlyph name="Scaron.c2" xMin="176" yMin="-102" xMax="1327" yMax="2478">
      <component glyphName="scaron.sc" x="0" y="0" flags="0x1004"/>
    </TTGlyph>
    <TTGlyph name="Scedilla" xMin="102" yMin="-901" xMax="1876" yMax="2798">
      <contour>
        <pt x="262" y="-115" on="1"/>
        <pt x="229" y="69" on="0"/>
        <pt x="102" y="696" on="1"/>
        <pt x="246" y="713" on="1"/>
        <pt x="299" y="459" on="1"/>
        <pt x="327" y="325" on="0"/>
        <pt x="360" y="286" on="0"/>
        <pt x="407" y="255" on="0"/>
        <pt x="447" y="241" on="0"/>
        <pt x="539" y="208" on="1"/>
        <pt x="747" y="135" on="0"/>
        <pt x="1146" y="135" on="0"/>
        <pt x="1392" y="251" on="0"/>
        <pt x="1544" y="481" on="0"/>
        <pt x="1544" y="706" on="0"/>
        <pt x="1484" y="846" on="0"/>
        <pt x="1393" y="956" on="0"/>
        <pt x="1320" y="1014" on="1"/>
        <pt x="1208" y="1102" on="0"/>
        <pt x="1020" y="1204" on="1"/>
        <pt x="852" y="1298" on="1"/>
        <pt x="602" y="1438" on="0"/>
        <pt x="458" y="1576" on="0"/>
        <pt x="367" y="1688" on="0"/>
        <pt x="340" y="1747" on="1"/>
        <pt x="279" y="1880" on="0"/>
        <pt x="279" y="2191" on="0"/>
        <pt x="419" y="2467" on="0"/>
        <pt x="533" y="2561" on="1"/>
        <pt x="780" y="2765" on="0"/>
        <pt x="1094" y="2765" on="1"/>
        <pt x="1250" y="2765" on="0"/>
        <pt x="1496" y="2683" on="0"/>
        <pt x="1530" y="2683" on="0"/>
        <pt x="1561" y="2736" on="0"/>
        <pt x="1565" y="2789" on="1"/>
        <pt x="1704" y="2798" on="1"/>
        <pt x="1765" y="2048" on="1"/>
        <pt x="1618" y="2044" on="1"/>
        <pt x="1581" y="2408" on="1"/>
        <pt x="1451" y="2509" on="0"/>
        <pt x="1211" y="2554" on="1"/>
        <pt x="1118" y="2572" on="0"/>
        <pt x="897" y="2572" on="0"/>
        <pt x="681" y="2462" on="0"/>
        <pt x="549" y="2260" on="0"/>
        <pt x="549" y="2070" on="0"/>
        <pt x="585" y="1953" on="0"/>
        <pt x="658" y="1851" on="0"/>
        <pt x="744" y="1763" on="0"/>
        <pt x="807" y="1718" on="1"/>
        <pt x="904" y="1649" on="0"/>
        <pt x="1061" y="1561" on="1"/>
        <pt x="1286" y="1438" on="1"/>
        <pt x="1527" y="1304" on="0"/>
        <pt x="1694" y="1152" on="0"/>
        <pt x="1785" y="1045" on="0"/>
        <pt x="1814" y="990" on="1"/>
        <pt x="1876" y="869" on="0"/>
        <pt x="1876" y="585" on="0"/>
        <pt x="1759" y="318" on="0"/>
        <pt x="1650" y="211" on="1"/>
        <pt x="1413" y="-23" on="0"/>
        <pt x="999" y="-37" on="1"/>
        <pt x="930" y="-270" on="1"/>
        <pt x="999" y="-266" on="1"/>
        <pt x="1184" y="-266" on="0"/>
        <pt x="1287" y="-318" on="1"/>
        <pt x="1470" y="-410" on="0"/>
        <pt x="1470" y="-578" on="1"/>
        <pt x="1470" y="-806" on="0"/>
        <pt x="1188" y="-880" on="1"/>
        <pt x="1110" y="-901" on="0"/>
        <pt x="1025" y="-901" on="1"/>
        <pt x="852" y="-901" on="0"/>
        <pt x="762" y="-848" on="1"/>
        <pt x="848" y="-750" on="1"/>
        <pt x="971" y="-791" on="0"/>
        <pt x="1139" y="-791" on="0"/>
        <pt x="1245" y="-683" on="0"/>
        <pt x="1245" y="-532" on="0"/>
        <pt x="1191" y="-451" on="0"/>
        <pt x="1145" y="-430" on="1"/>
        <pt x="1055" y="-389" on="0"/>
        <pt x="889" y="-389" on="0"/>
        <pt x="860" y="-393" on="1"/>
        <pt x="811" y="-324" on="1"/>
        <pt x="905" y="-37" on="1"/>
        <pt x="738" y="-32" on="0"/>
        <pt x="500" y="37" on="0"/>
        <pt x="471" y="37" on="1"/>
        <pt x="397" y="37" on="0"/>
        <pt x="397" y="-49" on="1"/>
        <pt x="401" y="-102" on="1"/>
      </contour>
    </TTGlyph>
    <TTGlyph name="Scedilla.c2" xMin="176" yMin="-901" xMax="1327" yMax="1675">
      <component glyphName="scedilla.sc" x="0" y="0" flags="0x1004"/>
    </TTGlyph>
    <TTGlyph name="Scircumflex" xMin="102" yMin="-115" xMax="1876" yMax="3543">
      <component glyphName="uni0302.cap" x="1872" y="999" flags="0x1004"/>
      <component glyphName="S" x="0" y="0" flags="0x1004"/>
    </TTGlyph>
    <TTGlyph name="Scircumflex.c2" xMin="176" yMin="-102" xMax="1327" yMax="2478">
      <component glyphName="scircumflex.sc" x="0" y="0" flags="0x1004"/>
    </TTGlyph>
    <TTGlyph name="T" xMin="45" yMin="0" xMax="2470" yMax="2732">
      <contour>
        <pt x="2470" y="2732" on="1"/>
        <pt x="2421" y="2077" on="1"/>
        <pt x="2273" y="2081" on="1"/>
        <pt x="2298" y="2375" on="0"/>
        <pt x="2298" y="2500" on="0"/>
        <pt x="2211" y="2552" on="0"/>
        <pt x="2089" y="2552" on="1"/>
        <pt x="1818" y="2552" on="0"/>
        <pt x="1522" y="2552" on="0"/>
        <pt x="1469" y="2542" on="0"/>
        <pt x="1445" y="2537" on="0"/>
        <pt x="1419" y="2509" on="0"/>
        <pt x="1412" y="2492" on="0"/>
        <pt x="1405" y="2437" on="0"/>
        <pt x="1405" y="2418" on="1"/>
        <pt x="1405" y="348" on="1"/>
        <pt x="1405" y="221" on="0"/>
        <pt x="1446" y="189" on="1"/>
        <pt x="1483" y="160" on="0"/>
        <pt x="1642" y="160" on="1"/>
        <pt x="1806" y="160" on="1"/>
        <pt x="1810" y="0" on="1"/>
        <pt x="729" y="4" on="1"/>
        <pt x="729" y="160" on="1"/>
        <pt x="798" y="160" on="0"/>
        <pt x="892" y="160" on="0"/>
        <pt x="956" y="164" on="0"/>
        <pt x="986" y="167" on="0"/>
        <pt x="1025" y="178" on="0"/>
        <pt x="1040" y="188" on="0"/>
        <pt x="1060" y="210" on="0"/>
        <pt x="1065" y="231" on="0"/>
        <pt x="1068" y="250" on="1"/>
        <pt x="1073" y="273" on="0"/>
        <pt x="1073" y="332" on="1"/>
        <pt x="1073" y="2322" on="1"/>
        <pt x="1073" y="2479" on="0"/>
        <pt x="1034" y="2532" on="0"/>
        <pt x="1010" y="2540" on="1"/>
        <pt x="979" y="2552" on="0"/>
        <pt x="893" y="2552" on="1"/>
        <pt x="463" y="2552" on="1"/>
        <pt x="329" y="2552" on="0"/>
        <pt x="265" y="2509" on="0"/>
        <pt x="239" y="2469" on="0"/>
        <pt x="224" y="2418" on="0"/>
        <pt x="218" y="2381" on="1"/>
        <pt x="212" y="2334" on="0"/>
        <pt x="197" y="2115" on="0"/>
        <pt x="193" y="2068" on="1"/>
        <pt x="45" y="2073" on="1"/>
        <pt x="81" y="2420" on="0"/>
        <pt x="106" y="2732" on="1"/>
      </contour>
    </TTGlyph>
    <TTGlyph name="T.c2" xMin="111" yMin="0" xMax="1630" yMax="1606">
      <component glyphName="t.sc" x="0" y="0" flags="0x1004"/>
    </TTGlyph>
    <TTGlyph name="Tbar" xMin="45" yMin="0" xMax="2470" yMax="2732">
      <contour>
        <pt x="2470" y="2732" on="1"/>
        <pt x="2421" y="2077" on="1"/>
        <pt x="2273" y="2081" on="1"/>
        <pt x="2298" y="2375" on="0"/>
        <pt x="2298" y="2500" on="0"/>
        <pt x="2211" y="2552" on="0"/>
        <pt x="2089" y="2552" on="1"/>
        <pt x="1818" y="2552" on="0"/>
        <pt x="1522" y="2552" on="0"/>
        <pt x="1469" y="2542" on="0"/>
        <pt x="1445" y="2537" on="0"/>
        <pt x="1419" y="2509" on="0"/>
        <pt x="1412" y="2492" on="0"/>
        <pt x="1405" y="2437" on="0"/>
        <pt x="1405" y="2418" on="1"/>
        <pt x="1405" y="1475" on="1"/>
        <pt x="2081" y="1475" on="1"/>
        <pt x="2081" y="1278" on="1"/>
        <pt x="1405" y="1278" on="1"/>
        <pt x="1405" y="348" on="1"/>
        <pt x="1405" y="225" on="0"/>
        <pt x="1446" y="190" on="1"/>
        <pt x="1481" y="160" on="0"/>
        <pt x="1618" y="160" on="1"/>
        <pt x="1806" y="160" on="1"/>
        <pt x="1810" y="0" on="1"/>
        <pt x="729" y="4" on="1"/>
        <pt x="729" y="160" on="1"/>
        <pt x="856" y="160" on="1"/>
        <pt x="1007" y="160" on="0"/>
        <pt x="1051" y="197" on="0"/>
        <pt x="1060" y="218" on="1"/>
        <pt x="1073" y="250" on="0"/>
        <pt x="1073" y="332" on="1"/>
        <pt x="1073" y="1278" on="1"/>
        <pt x="422" y="1278" on="1"/>
        <pt x="418" y="1475" on="1"/>
        <pt x="1073" y="1475" on="1"/>
        <pt x="1073" y="2322" on="1"/>
        <pt x="1073" y="2479" on="0"/>
        <pt x="1034" y="2532" on="0"/>
        <pt x="1010" y="2540" on="1"/>
        <pt x="979" y="2552" on="0"/>
        <pt x="893" y="2552" on="1"/>
        <pt x="463" y="2552" on="1"/>
        <pt x="329" y="2552" on="0"/>
        <pt x="265" y="2509" on="0"/>
        <pt x="239" y="2469" on="0"/>
        <pt x="224" y="2418" on="0"/>
        <pt x="218" y="2381" on="1"/>
        <pt x="212" y="2334" on="0"/>
        <pt x="197" y="2115" on="0"/>
        <pt x="193" y="2068" on="1"/>
        <pt x="45" y="2073" on="1"/>
        <pt x="81" y="2420" on="0"/>
        <pt x="106" y="2732" on="1"/>
      </contour>
    </TTGlyph>
    <TTGlyph name="Tbar.c2" xMin="111" yMin="0" xMax="1630" yMax="1606">
      <component glyphName="tbar.sc" x="0" y="0" flags="0x1004"/>
    </TTGlyph>
    <TTGlyph name="Tcaron" xMin="45" yMin="0" xMax="2470" yMax="3543">
      <component glyphName="uni030C.cap" x="2032" y="999" flags="0x1004"/>
      <component glyphName="T" x="0" y="0" flags="0x1004"/>
    </TTGlyph>
    <TTGlyph name="Tcaron.c2" xMin="111" yMin="0" xMax="1630" yMax="2478">
      <component glyphName="tcaron.sc" x="0" y="0" flags="0x1004"/>
    </TTGlyph>
    <TTGlyph name="Thorn" xMin="111" yMin="0" xMax="2265" yMax="2732">
      <contour>
        <pt x="111" y="2568" on="1"/>
        <pt x="115" y="2732" on="1"/>
        <pt x="1143" y="2732" on="1"/>
        <pt x="1143" y="2568" on="1"/>
        <pt x="1012" y="2568" on="1"/>
        <pt x="885" y="2568" on="0"/>
        <pt x="851" y="2532" on="0"/>
        <pt x="840" y="2510" on="1"/>
        <pt x="823" y="2477" on="0"/>
        <pt x="823" y="2380" on="1"/>
        <pt x="823" y="2228" on="1"/>
        <pt x="1077" y="2228" on="1"/>
        <pt x="1499" y="2228" on="0"/>
        <pt x="1614" y="2195" on="1"/>
        <pt x="1809" y="2139" on="0"/>
        <pt x="2076" y="1923" on="0"/>
        <pt x="2265" y="1556" on="0"/>
        <pt x="2265" y="1323" on="1"/>
        <pt x="2265" y="958" on="0"/>
        <pt x="1960" y="736" on="1"/>
        <pt x="1743" y="578" on="0"/>
        <pt x="1401" y="578" on="1"/>
        <pt x="1139" y="578" on="0"/>
        <pt x="857" y="655" on="1"/>
        <pt x="824" y="664" on="0"/>
        <pt x="823" y="664" on="1"/>
        <pt x="823" y="348" on="1"/>
        <pt x="823" y="217" on="0"/>
        <pt x="867" y="179" on="0"/>
        <pt x="894" y="171" on="1"/>
        <pt x="931" y="160" on="0"/>
        <pt x="1036" y="160" on="1"/>
        <pt x="1204" y="160" on="1"/>
        <pt x="1208" y="0" on="1"/>
        <pt x="160" y="0" on="1"/>
        <pt x="156" y="160" on="1"/>
        <pt x="291" y="160" on="1"/>
        <pt x="428" y="160" on="0"/>
        <pt x="471" y="199" on="0"/>
        <pt x="480" y="221" on="1"/>
        <pt x="492" y="253" on="0"/>
        <pt x="492" y="340" on="1"/>
        <pt x="492" y="2421" on="1"/>
        <pt x="492" y="2528" on="0"/>
        <pt x="453" y="2554" on="0"/>
        <pt x="426" y="2560" on="1"/>
        <pt x="394" y="2568" on="0"/>
        <pt x="283" y="2568" on="1"/>
      </contour>
      <contour>
        <pt x="823" y="786" on="1"/>
        <pt x="926" y="709" on="0"/>
        <pt x="1533" y="709" on="0"/>
        <pt x="1880" y="1026" on="0"/>
        <pt x="1880" y="1331" on="1"/>
        <pt x="1880" y="1747" on="0"/>
        <pt x="1494" y="1947" on="1"/>
        <pt x="1261" y="2068" on="0"/>
        <pt x="946" y="2068" on="1"/>
        <pt x="895" y="2068" on="0"/>
        <pt x="871" y="2056" on="1"/>
        <pt x="823" y="2032" on="0"/>
        <pt x="823" y="1876" on="1"/>
      </contour>
    </TTGlyph>
    <TTGlyph name="Thorn.c2" xMin="111" yMin="0" xMax="1602" yMax="1606">
      <component glyphName="thorn.sc" x="0" y="0" flags="0x1004"/>
    </TTGlyph>
    <TTGlyph name="U" xMin="111" yMin="-74" xMax="2843" yMax="2732">
      <contour>
        <pt x="111" y="2568" on="1"/>
        <pt x="111" y="2732" on="1"/>
        <pt x="1094" y="2732" on="1"/>
        <pt x="1098" y="2568" on="1"/>
        <pt x="942" y="2568" on="1"/>
        <pt x="820" y="2568" on="0"/>
        <pt x="721" y="2512" on="0"/>
        <pt x="721" y="2417" on="1"/>
        <pt x="721" y="901" on="1"/>
        <pt x="721" y="616" on="0"/>
        <pt x="900" y="412" on="1"/>
        <pt x="1118" y="164" on="0"/>
        <pt x="1577" y="164" on="1"/>
        <pt x="2091" y="164" on="0"/>
        <pt x="2266" y="382" on="1"/>
        <pt x="2329" y="459" on="0"/>
        <pt x="2393" y="590" on="0"/>
        <pt x="2410" y="702" on="1"/>
        <pt x="2433" y="854" on="0"/>
        <pt x="2433" y="1094" on="1"/>
        <pt x="2433" y="2421" on="1"/>
        <pt x="2433" y="2517" on="0"/>
        <pt x="2387" y="2547" on="1"/>
        <pt x="2354" y="2568" on="0"/>
        <pt x="2208" y="2568" on="1"/>
        <pt x="2064" y="2568" on="1"/>
        <pt x="2073" y="2732" on="1"/>
        <pt x="2843" y="2732" on="1"/>
        <pt x="2843" y="2568" on="1"/>
        <pt x="2785" y="2568" on="1"/>
        <pt x="2716" y="2568" on="0"/>
        <pt x="2686" y="2557" on="1"/>
        <pt x="2626" y="2536" on="0"/>
        <pt x="2626" y="2388" on="1"/>
        <pt x="2626" y="934" on="1"/>
        <pt x="2626" y="254" on="0"/>
        <pt x="2154" y="33" on="1"/>
        <pt x="1925" y="-74" on="0"/>
        <pt x="1577" y="-74" on="1"/>
        <pt x="692" y="-74" on="0"/>
        <pt x="464" y="474" on="1"/>
        <pt x="389" y="655" on="0"/>
        <pt x="389" y="881" on="1"/>
        <pt x="389" y="2421" on="1"/>
        <pt x="389" y="2523" on="0"/>
        <pt x="360" y="2542" on="1"/>
        <pt x="323" y="2568" on="0"/>
        <pt x="221" y="2568" on="1"/>
      </contour>
    </TTGlyph>
    <TTGlyph name="U.c2" xMin="111" yMin="-29" xMax="1896" yMax="1606">
      <component glyphName="u.sc" x="0" y="0" flags="0x1004"/>
    </TTGlyph>
    <TTGlyph name="Uacute" xMin="111" yMin="-74" xMax="2843" yMax="3559">
      <component glyphName="acutecomb.cap" x="2347" y="999" flags="0x1004"/>
      <component glyphName="U" x="0" y="0" flags="0x1004"/>
    </TTGlyph>
    <TTGlyph name="Uacute.c2" xMin="111" yMin="-29" xMax="1896" yMax="2580">
      <component glyphName="uacute.sc" x="0" y="0" flags="0x1004"/>
    </TTGlyph>
    <TTGlyph name="Ubreve" xMin="111" yMin="-74" xMax="2843" yMax="3543">
      <component glyphName="uni0306.cap" x="2347" y="999" flags="0x1004"/>
      <component glyphName="U" x="0" y="0" flags="0x1004"/>
    </TTGlyph>
    <TTGlyph name="Ubreve.c2" xMin="111" yMin="-29" xMax="1896" yMax="2478">
      <component glyphName="ubreve.sc" x="0" y="0" flags="0x1004"/>
    </TTGlyph>
    <TTGlyph name="Ucircumflex" xMin="111" yMin="-74" xMax="2843" yMax="3543">
      <component glyphName="uni0302.cap" x="2347" y="999" flags="0x1004"/>
      <component glyphName="U" x="0" y="0" flags="0x1004"/>
    </TTGlyph>
    <TTGlyph name="Ucircumflex.c2" xMin="111" yMin="-29" xMax="1896" yMax="2478">
      <component glyphName="ucircumflex.sc" x="0" y="0" flags="0x1004"/>
    </TTGlyph>
    <TTGlyph name="Udieresis" xMin="111" yMin="-74" xMax="2843" yMax="3493">
      <contour>
        <pt x="111" y="2568" on="1"/>
        <pt x="111" y="2732" on="1"/>
        <pt x="1094" y="2732" on="1"/>
        <pt x="1098" y="2568" on="1"/>
        <pt x="942" y="2568" on="1"/>
        <pt x="820" y="2568" on="0"/>
        <pt x="721" y="2512" on="0"/>
        <pt x="721" y="2417" on="1"/>
        <pt x="721" y="901" on="1"/>
        <pt x="721" y="616" on="0"/>
        <pt x="900" y="412" on="1"/>
        <pt x="1118" y="164" on="0"/>
        <pt x="1577" y="164" on="1"/>
        <pt x="2091" y="164" on="0"/>
        <pt x="2266" y="382" on="1"/>
        <pt x="2329" y="459" on="0"/>
        <pt x="2393" y="590" on="0"/>
        <pt x="2410" y="702" on="1"/>
        <pt x="2433" y="854" on="0"/>
        <pt x="2433" y="1094" on="1"/>
        <pt x="2433" y="2421" on="1"/>
        <pt x="2433" y="2517" on="0"/>
        <pt x="2387" y="2547" on="1"/>
        <pt x="2354" y="2568" on="0"/>
        <pt x="2208" y="2568" on="1"/>
        <pt x="2064" y="2568" on="1"/>
        <pt x="2073" y="2732" on="1"/>
        <pt x="2843" y="2732" on="1"/>
        <pt x="2843" y="2568" on="1"/>
        <pt x="2785" y="2568" on="1"/>
        <pt x="2716" y="2568" on="0"/>
        <pt x="2686" y="2557" on="1"/>
        <pt x="2626" y="2536" on="0"/>
        <pt x="2626" y="2388" on="1"/>
        <pt x="2626" y="934" on="1"/>
        <pt x="2626" y="254" on="0"/>
        <pt x="2154" y="33" on="1"/>
        <pt x="1925" y="-74" on="0"/>
        <pt x="1577" y="-74" on="1"/>
        <pt x="692" y="-74" on="0"/>
        <pt x="464" y="474" on="1"/>
        <pt x="389" y="655" on="0"/>
        <pt x="389" y="881" on="1"/>
        <pt x="389" y="2421" on="1"/>
        <pt x="389" y="2523" on="0"/>
        <pt x="360" y="2542" on="1"/>
        <pt x="323" y="2568" on="0"/>
        <pt x="221" y="2568" on="1"/>
      </contour>
      <contour>
        <pt x="1208" y="3137" on="0"/>
        <pt x="1077" y="3271" on="0"/>
        <pt x="1077" y="3361" on="0"/>
        <pt x="1223" y="3493" on="0"/>
        <pt x="1308" y="3493" on="0"/>
        <pt x="1425" y="3349" on="0"/>
        <pt x="1425" y="3262" on="0"/>
        <pt x="1287" y="3137" on="0"/>
      </contour>
      <contour>
        <pt x="1811" y="3137" on="0"/>
        <pt x="1680" y="3271" on="0"/>
        <pt x="1680" y="3361" on="0"/>
        <pt x="1823" y="3493" on="0"/>
        <pt x="1907" y="3493" on="0"/>
        <pt x="2028" y="3348" on="0"/>
        <pt x="2028" y="3262" on="0"/>
        <pt x="1890" y="3137" on="0"/>
      </contour>
    </TTGlyph>
    <TTGlyph name="Udieresis.c2" xMin="111" yMin="-29" xMax="1896" yMax="2421">
      <component glyphName="udieresis.sc" x="0" y="0" flags="0x1004"/>
    </TTGlyph>
    <TTGlyph name="Ugrave" xMin="111" yMin="-74" xMax="2843" yMax="3559">
      <component glyphName="gravecomb.cap" x="2347" y="999" flags="0x1004"/>
      <component glyphName="U" x="0" y="0" flags="0x1004"/>
    </TTGlyph>
    <TTGlyph name="Ugrave.c2" xMin="111" yMin="-29" xMax="1896" yMax="2580">
      <component glyphName="ugrave.sc" x="0" y="0" flags="0x1004"/>
    </TTGlyph>
    <TTGlyph name="Uhungarumlaut" xMin="111" yMin="-74" xMax="2843" yMax="3559">
      <component glyphName="uni030B.cap" x="2347" y="999" flags="0x1004"/>
      <component glyphName="U" x="0" y="0" flags="0x1004"/>
    </TTGlyph>
    <TTGlyph name="Uhungarumlaut.c2" xMin="111" yMin="-29" xMax="1896" yMax="2580">
      <component glyphName="uhungarumlaut.sc" x="0" y="0" flags="0x1004"/>
    </TTGlyph>
    <TTGlyph name="Umacron" xMin="111" yMin="-74" xMax="2843" yMax="3420">
      <component glyphName="uni0304.cap" x="2347" y="999" flags="0x1004"/>
      <component glyphName="U" x="0" y="0" flags="0x1004"/>
    </TTGlyph>
    <TTGlyph name="Umacron.c2" xMin="111" yMin="-29" xMax="1896" yMax="2327">
      <component glyphName="umacron.sc" x="0" y="0" flags="0x1004"/>
    </TTGlyph>
    <TTGlyph name="Uogonek" xMin="111" yMin="-1065" xMax="2843" yMax="2732">
      <contour>
        <pt x="2085" y="-811" on="0"/>
        <pt x="2085" y="-859" on="0"/>
        <pt x="2031" y="-933" on="0"/>
        <pt x="1984" y="-972" on="1"/>
        <pt x="1868" y="-1065" on="0"/>
        <pt x="1683" y="-1065" on="1"/>
        <pt x="1468" y="-1065" on="0"/>
        <pt x="1344" y="-928" on="1"/>
        <pt x="1253" y="-827" on="0"/>
        <pt x="1253" y="-512" on="0"/>
        <pt x="1372" y="-260" on="0"/>
        <pt x="1524" y="-70" on="1"/>
        <pt x="682" y="-56" on="0"/>
        <pt x="462" y="482" on="1"/>
        <pt x="389" y="661" on="0"/>
        <pt x="389" y="881" on="1"/>
        <pt x="389" y="2421" on="1"/>
        <pt x="389" y="2523" on="0"/>
        <pt x="360" y="2542" on="1"/>
        <pt x="323" y="2568" on="0"/>
        <pt x="221" y="2568" on="1"/>
        <pt x="111" y="2568" on="1"/>
        <pt x="111" y="2732" on="1"/>
        <pt x="1094" y="2732" on="1"/>
        <pt x="1098" y="2568" on="1"/>
        <pt x="1028" y="2566" on="0"/>
        <pt x="920" y="2566" on="0"/>
        <pt x="855" y="2564" on="0"/>
        <pt x="817" y="2558" on="0"/>
        <pt x="774" y="2545" on="0"/>
        <pt x="750" y="2524" on="0"/>
        <pt x="740" y="2508" on="1"/>
        <pt x="721" y="2480" on="0"/>
        <pt x="721" y="2417" on="1"/>
        <pt x="721" y="901" on="1"/>
        <pt x="721" y="616" on="0"/>
        <pt x="900" y="412" on="1"/>
        <pt x="1118" y="164" on="0"/>
        <pt x="1577" y="164" on="1"/>
        <pt x="2091" y="164" on="0"/>
        <pt x="2266" y="382" on="1"/>
        <pt x="2329" y="459" on="0"/>
        <pt x="2393" y="590" on="0"/>
        <pt x="2410" y="702" on="1"/>
        <pt x="2433" y="854" on="0"/>
        <pt x="2433" y="1094" on="1"/>
        <pt x="2433" y="2421" on="1"/>
        <pt x="2433" y="2517" on="0"/>
        <pt x="2387" y="2547" on="1"/>
        <pt x="2354" y="2568" on="0"/>
        <pt x="2208" y="2568" on="1"/>
        <pt x="2064" y="2568" on="1"/>
        <pt x="2073" y="2732" on="1"/>
        <pt x="2843" y="2732" on="1"/>
        <pt x="2843" y="2568" on="1"/>
        <pt x="2822" y="2567" on="0"/>
        <pt x="2764" y="2566" on="0"/>
        <pt x="2734" y="2565" on="0"/>
        <pt x="2694" y="2561" on="0"/>
        <pt x="2675" y="2553" on="0"/>
        <pt x="2651" y="2536" on="0"/>
        <pt x="2640" y="2512" on="0"/>
        <pt x="2634" y="2492" on="1"/>
        <pt x="2626" y="2462" on="0"/>
        <pt x="2626" y="2388" on="1"/>
        <pt x="2626" y="934" on="1"/>
        <pt x="2626" y="-34" on="0"/>
        <pt x="1651" y="-70" on="1"/>
        <pt x="1511" y="-291" on="0"/>
        <pt x="1511" y="-496" on="1"/>
        <pt x="1511" y="-774" on="0"/>
        <pt x="1684" y="-849" on="1"/>
        <pt x="1737" y="-872" on="0"/>
        <pt x="1862" y="-872" on="0"/>
        <pt x="1955" y="-853" on="0"/>
        <pt x="1980" y="-842" on="1"/>
        <pt x="2044" y="-811" on="0"/>
      </contour>
    </TTGlyph>
    <TTGlyph name="Uogonek.c2" xMin="111" yMin="-1065" xMax="1896" yMax="1606">
      <component glyphName="uogonek.sc" x="0" y="0" flags="0x1004"/>
    </TTGlyph>
    <TTGlyph name="Uring" xMin="111" yMin="-74" xMax="2843" yMax="3633">
      <component glyphName="uni030A.cap" x="2347" y="999" flags="0x1004"/>
      <component glyphName="U" x="0" y="0" flags="0x1004"/>
    </TTGlyph>
    <TTGlyph name="Uring.c2" xMin="111" yMin="-29" xMax="1896" yMax="2552">
      <component glyphName="uring.sc" x="0" y="0" flags="0x1004"/>
    </TTGlyph>
    <TTGlyph name="Utilde" xMin="111" yMin="-74" xMax="2843" yMax="3543">
      <component glyphName="tildecomb.cap" x="2347" y="999" flags="0x1004"/>
      <component glyphName="U" x="0" y="0" flags="0x1004"/>
    </TTGlyph>
    <TTGlyph name="Utilde.c2" xMin="111" yMin="-29" xMax="1896" yMax="2437">
      <component glyphName="utilde.sc" x="0" y="0" flags="0x1004"/>
    </TTGlyph>
    <TTGlyph name="V" xMin="111" yMin="-61" xMax="3011" yMax="2732">
      <contour>
        <pt x="111" y="2568" on="1"/>
        <pt x="111" y="2732" on="1"/>
        <pt x="1139" y="2732" on="1"/>
        <pt x="1135" y="2568" on="1"/>
        <pt x="918" y="2568" on="1"/>
        <pt x="863" y="2568" on="0"/>
        <pt x="819" y="2549" on="0"/>
        <pt x="819" y="2465" on="0"/>
        <pt x="877" y="2322" on="1"/>
        <pt x="1638" y="430" on="1"/>
        <pt x="2499" y="2408" on="1"/>
        <pt x="2519" y="2463" on="0"/>
        <pt x="2519" y="2514" on="0"/>
        <pt x="2490" y="2549" on="0"/>
        <pt x="2458" y="2556" on="1"/>
        <pt x="2410" y="2568" on="0"/>
        <pt x="2318" y="2568" on="1"/>
        <pt x="2187" y="2568" on="1"/>
        <pt x="2179" y="2732" on="1"/>
        <pt x="3011" y="2732" on="1"/>
        <pt x="3002" y="2568" on="1"/>
        <pt x="2884" y="2568" on="1"/>
        <pt x="2784" y="2568" on="0"/>
        <pt x="2738" y="2504" on="1"/>
        <pt x="2693" y="2439" on="0"/>
        <pt x="2568" y="2151" on="0"/>
        <pt x="2558" y="2130" on="1"/>
        <pt x="2543" y="2094" on="0"/>
        <pt x="2503" y="2003" on="1"/>
        <pt x="1585" y="-61" on="1"/>
        <pt x="1516" y="-61" on="1"/>
        <pt x="565" y="2249" on="1"/>
        <pt x="486" y="2439" on="0"/>
        <pt x="419" y="2544" on="0"/>
        <pt x="330" y="2568" on="0"/>
        <pt x="254" y="2568" on="1"/>
      </contour>
    </TTGlyph>
    <TTGlyph name="V.c2" xMin="111" yMin="-53" xMax="1913" yMax="1606">
      <component glyphName="v.sc" x="0" y="0" flags="0x1004"/>
    </TTGlyph>
    <TTGlyph name="W" xMin="152" yMin="-66" xMax="4149" yMax="2732">
      <contour>
        <pt x="152" y="2568" on="1"/>
        <pt x="152" y="2732" on="1"/>
        <pt x="1061" y="2732" on="1"/>
        <pt x="1057" y="2568" on="1"/>
        <pt x="967" y="2568" on="1"/>
        <pt x="782" y="2568" on="0"/>
        <pt x="742" y="2526" on="1"/>
        <pt x="725" y="2508" on="0"/>
        <pt x="725" y="2465" on="0"/>
        <pt x="733" y="2433" on="1"/>
        <pt x="1442" y="483" on="1"/>
        <pt x="2118" y="2212" on="1"/>
        <pt x="2111" y="2231" on="0"/>
        <pt x="2086" y="2311" on="0"/>
        <pt x="2066" y="2366" on="0"/>
        <pt x="2036" y="2443" on="0"/>
        <pt x="2004" y="2494" on="0"/>
        <pt x="1984" y="2518" on="1"/>
        <pt x="1942" y="2568" on="0"/>
        <pt x="1884" y="2568" on="1"/>
        <pt x="1683" y="2568" on="1"/>
        <pt x="1683" y="2732" on="1"/>
        <pt x="2658" y="2732" on="1"/>
        <pt x="2658" y="2568" on="1"/>
        <pt x="2441" y="2568" on="1"/>
        <pt x="2375" y="2568" on="0"/>
        <pt x="2335" y="2545" on="0"/>
        <pt x="2335" y="2512" on="1"/>
        <pt x="2335" y="2462" on="0"/>
        <pt x="2408" y="2241" on="1"/>
        <pt x="3006" y="496" on="1"/>
        <pt x="3736" y="2408" on="1"/>
        <pt x="3752" y="2466" on="0"/>
        <pt x="3752" y="2509" on="0"/>
        <pt x="3722" y="2547" on="0"/>
        <pt x="3690" y="2556" on="1"/>
        <pt x="3642" y="2568" on="0"/>
        <pt x="3551" y="2568" on="1"/>
        <pt x="3445" y="2568" on="1"/>
        <pt x="3445" y="2732" on="1"/>
        <pt x="4145" y="2732" on="1"/>
        <pt x="4149" y="2568" on="1"/>
        <pt x="4100" y="2568" on="1"/>
        <pt x="4004" y="2568" on="0"/>
        <pt x="3938" y="2488" on="0"/>
        <pt x="3866" y="2295" on="0"/>
        <pt x="3863" y="2286" on="1"/>
        <pt x="2957" y="-66" on="1"/>
        <pt x="2888" y="-66" on="1"/>
        <pt x="2191" y="1982" on="1"/>
        <pt x="1397" y="-61" on="1"/>
        <pt x="1331" y="-61" on="1"/>
        <pt x="463" y="2310" on="1"/>
        <pt x="401" y="2483" on="0"/>
        <pt x="319" y="2554" on="0"/>
        <pt x="266" y="2568" on="0"/>
        <pt x="221" y="2568" on="1"/>
      </contour>
    </TTGlyph>
    <TTGlyph name="W.c2" xMin="111" yMin="-57" xMax="3043" yMax="1606">
      <component glyphName="w.sc" x="0" y="0" flags="0x1004"/>
    </TTGlyph>
    <TTGlyph name="Wcircumflex" xMin="152" yMin="-66" xMax="4149" yMax="3543">
      <component glyphName="uni0302.cap" x="2957" y="999" flags="0x1004"/>
      <component glyphName="W" x="0" y="0" flags="0x1004"/>
    </TTGlyph>
    <TTGlyph name="Wcircumflex.c2" xMin="111" yMin="-57" xMax="3043" yMax="2478">
      <component glyphName="wcircumflex.sc" x="0" y="0" flags="0x1004"/>
    </TTGlyph>
    <TTGlyph name="X" xMin="111" yMin="0" xMax="3002" yMax="2732">
      <contour>
        <pt x="111" y="0" on="1"/>
        <pt x="111" y="160" on="1"/>
        <pt x="111" y="160" on="0"/>
        <pt x="200" y="160" on="1"/>
        <pt x="231" y="160" on="0"/>
        <pt x="308" y="170" on="0"/>
        <pt x="339" y="173" on="0"/>
        <pt x="398" y="203" on="0"/>
        <pt x="418" y="219" on="0"/>
        <pt x="479" y="277" on="0"/>
        <pt x="509" y="314" on="0"/>
        <pt x="593" y="408" on="0"/>
        <pt x="623" y="442" on="1"/>
        <pt x="1405" y="1327" on="1"/>
        <pt x="598" y="2347" on="1"/>
        <pt x="586" y="2363" on="0"/>
        <pt x="531" y="2432" on="0"/>
        <pt x="504" y="2467" on="0"/>
        <pt x="453" y="2518" on="0"/>
        <pt x="437" y="2533" on="0"/>
        <pt x="383" y="2558" on="0"/>
        <pt x="360" y="2561" on="0"/>
        <pt x="285" y="2568" on="0"/>
        <pt x="261" y="2568" on="1"/>
        <pt x="180" y="2568" on="1"/>
        <pt x="180" y="2732" on="1"/>
        <pt x="1221" y="2732" on="1"/>
        <pt x="1221" y="2568" on="1"/>
        <pt x="1110" y="2568" on="1"/>
        <pt x="1006" y="2568" on="0"/>
        <pt x="938" y="2555" on="0"/>
        <pt x="938" y="2503" on="0"/>
        <pt x="984" y="2425" on="0"/>
        <pt x="1085" y="2286" on="1"/>
        <pt x="1618" y="1573" on="1"/>
        <pt x="2167" y="2191" on="1"/>
        <pt x="2374" y="2427" on="0"/>
        <pt x="2404" y="2491" on="0"/>
        <pt x="2404" y="2515" on="1"/>
        <pt x="2404" y="2549" on="0"/>
        <pt x="2319" y="2568" on="0"/>
        <pt x="2212" y="2568" on="1"/>
        <pt x="2097" y="2568" on="1"/>
        <pt x="2101" y="2732" on="1"/>
        <pt x="2978" y="2732" on="1"/>
        <pt x="2978" y="2568" on="1"/>
        <pt x="2904" y="2568" on="1"/>
        <pt x="2766" y="2568" on="0"/>
        <pt x="2719" y="2535" on="0"/>
        <pt x="2677" y="2507" on="0"/>
        <pt x="2654" y="2481" on="0"/>
        <pt x="2608" y="2433" on="0"/>
        <pt x="2582" y="2404" on="0"/>
        <pt x="2575" y="2397" on="0"/>
        <pt x="2565" y="2385" on="0"/>
        <pt x="2560" y="2380" on="1"/>
        <pt x="1720" y="1454" on="1"/>
        <pt x="2245" y="786" on="1"/>
        <pt x="2598" y="335" on="0"/>
        <pt x="2732" y="214" on="0"/>
        <pt x="2776" y="187" on="0"/>
        <pt x="2809" y="175" on="1"/>
        <pt x="2850" y="160" on="0"/>
        <pt x="2929" y="160" on="1"/>
        <pt x="2998" y="160" on="1"/>
        <pt x="3002" y="0" on="1"/>
        <pt x="1946" y="0" on="1"/>
        <pt x="1946" y="160" on="1"/>
        <pt x="2044" y="160" on="1"/>
        <pt x="2152" y="160" on="0"/>
        <pt x="2249" y="179" on="0"/>
        <pt x="2249" y="213" on="1"/>
        <pt x="2249" y="232" on="0"/>
        <pt x="2201" y="303" on="0"/>
        <pt x="2081" y="459" on="1"/>
        <pt x="1503" y="1200" on="1"/>
        <pt x="766" y="348" on="1"/>
        <pt x="672" y="243" on="0"/>
        <pt x="672" y="175" on="0"/>
        <pt x="740" y="160" on="0"/>
        <pt x="836" y="160" on="1"/>
        <pt x="983" y="160" on="1"/>
        <pt x="983" y="0" on="1"/>
      </contour>
    </TTGlyph>
    <TTGlyph name="X.c2" xMin="111" yMin="0" xMax="2011" yMax="1606">
      <component glyphName="x.sc" x="0" y="0" flags="0x1004"/>
    </TTGlyph>
    <TTGlyph name="Y" xMin="152" yMin="0" xMax="2589" yMax="2732">
      <contour>
        <pt x="152" y="2568" on="1"/>
        <pt x="156" y="2732" on="1"/>
        <pt x="1073" y="2732" on="1"/>
        <pt x="1073" y="2568" on="1"/>
        <pt x="991" y="2568" on="1"/>
        <pt x="871" y="2568" on="0"/>
        <pt x="778" y="2549" on="0"/>
        <pt x="778" y="2515" on="1"/>
        <pt x="778" y="2496" on="0"/>
        <pt x="852" y="2372" on="1"/>
        <pt x="1438" y="1450" on="1"/>
        <pt x="2154" y="2466" on="1"/>
        <pt x="2179" y="2508" on="0"/>
        <pt x="2179" y="2515" on="1"/>
        <pt x="2179" y="2549" on="0"/>
        <pt x="2055" y="2568" on="0"/>
        <pt x="1913" y="2568" on="1"/>
        <pt x="1847" y="2568" on="1"/>
        <pt x="1843" y="2732" on="1"/>
        <pt x="2589" y="2732" on="1"/>
        <pt x="2589" y="2568" on="1"/>
        <pt x="2568" y="2568" on="1"/>
        <pt x="2459" y="2568" on="0"/>
        <pt x="2412" y="2536" on="0"/>
        <pt x="2390" y="2515" on="1"/>
        <pt x="2355" y="2483" on="0"/>
        <pt x="2294" y="2396" on="1"/>
        <pt x="1495" y="1241" on="1"/>
        <pt x="1495" y="348" on="1"/>
        <pt x="1495" y="239" on="0"/>
        <pt x="1514" y="203" on="0"/>
        <pt x="1540" y="177" on="0"/>
        <pt x="1571" y="170" on="0"/>
        <pt x="1599" y="166" on="1"/>
        <pt x="1633" y="160" on="0"/>
        <pt x="1737" y="160" on="1"/>
        <pt x="1921" y="160" on="1"/>
        <pt x="1917" y="0" on="1"/>
        <pt x="766" y="0" on="1"/>
        <pt x="770" y="160" on="1"/>
        <pt x="934" y="160" on="1"/>
        <pt x="1085" y="160" on="0"/>
        <pt x="1138" y="195" on="0"/>
        <pt x="1150" y="219" on="0"/>
        <pt x="1156" y="240" on="1"/>
        <pt x="1163" y="267" on="0"/>
        <pt x="1163" y="340" on="1"/>
        <pt x="1163" y="1274" on="1"/>
        <pt x="492" y="2318" on="1"/>
        <pt x="393" y="2473" on="0"/>
        <pt x="330" y="2550" on="0"/>
        <pt x="250" y="2568" on="0"/>
      </contour>
    </TTGlyph>
    <TTGlyph name="Y.c2" xMin="111" yMin="0" xMax="1716" yMax="1606">
      <component glyphName="y.sc" x="0" y="0" flags="0x1004"/>
    </TTGlyph>
    <TTGlyph name="Yacute" xMin="152" yMin="0" xMax="2589" yMax="3559">
      <component glyphName="acutecomb.cap" x="2208" y="999" flags="0x1004"/>
      <component glyphName="Y" x="0" y="0" flags="0x1004"/>
    </TTGlyph>
    <TTGlyph name="Yacute.c2" xMin="111" yMin="0" xMax="1716" yMax="2580">
      <component glyphName="yacute.sc" x="0" y="0" flags="0x1004"/>
    </TTGlyph>
    <TTGlyph name="Ycircumflex" xMin="152" yMin="0" xMax="2589" yMax="3543">
      <component glyphName="uni0302.cap" x="2208" y="999" flags="0x1004"/>
      <component glyphName="Y" x="0" y="0" flags="0x1004"/>
    </TTGlyph>
    <TTGlyph name="Ycircumflex.c2" xMin="111" yMin="0" xMax="1716" yMax="2478">
      <component glyphName="ycircumflex.sc" x="0" y="0" flags="0x1004"/>
    </TTGlyph>
    <TTGlyph name="Ydieresis" xMin="152" yMin="0" xMax="2589" yMax="3493">
      <component glyphName="uni0308.cap" x="2208" y="999" flags="0x1004"/>
      <component glyphName="Y" x="0" y="0" flags="0x1004"/>
    </TTGlyph>
    <TTGlyph name="Ydieresis.c2" xMin="111" yMin="0" xMax="1716" yMax="2421">
      <component glyphName="ydieresis.sc" x="0" y="0" flags="0x1004"/>
    </TTGlyph>
    <TTGlyph name="Z" xMin="111" yMin="0" xMax="2609" yMax="2732">
      <contour>
        <pt x="2609" y="717" on="1"/>
        <pt x="2527" y="0" on="1"/>
        <pt x="201" y="0" on="1"/>
        <pt x="111" y="0" on="0"/>
        <pt x="111" y="82" on="1"/>
        <pt x="111" y="118" on="0"/>
        <pt x="279" y="299" on="0"/>
        <pt x="303" y="328" on="1"/>
        <pt x="2142" y="2408" on="1"/>
        <pt x="471" y="2408" on="1"/>
        <pt x="392" y="2408" on="0"/>
        <pt x="356" y="2337" on="0"/>
        <pt x="337" y="2149" on="0"/>
        <pt x="335" y="2128" on="0"/>
        <pt x="319" y="2027" on="0"/>
        <pt x="319" y="1999" on="1"/>
        <pt x="156" y="2007" on="1"/>
        <pt x="207" y="2444" on="0"/>
        <pt x="217" y="2732" on="1"/>
        <pt x="2449" y="2732" on="1"/>
        <pt x="2518" y="2732" on="0"/>
        <pt x="2576" y="2717" on="0"/>
        <pt x="2576" y="2674" on="0"/>
        <pt x="2549" y="2620" on="0"/>
        <pt x="2508" y="2562" on="0"/>
        <pt x="2470" y="2514" on="0"/>
        <pt x="2434" y="2472" on="0"/>
        <pt x="2433" y="2470" on="1"/>
        <pt x="569" y="340" on="1"/>
        <pt x="2191" y="340" on="1"/>
        <pt x="2359" y="340" on="0"/>
        <pt x="2376" y="362" on="1"/>
        <pt x="2410" y="409" on="0"/>
        <pt x="2442" y="642" on="1"/>
        <pt x="2454" y="721" on="1"/>
      </contour>
    </TTGlyph>
    <TTGlyph name="Z.c2" xMin="111" yMin="0" xMax="1663" yMax="1606">
      <component glyphName="z.sc" x="0" y="0" flags="0x1004"/>
    </TTGlyph>
    <TTGlyph name="Zacute" xMin="111" yMin="0" xMax="2609" yMax="3559">
      <component glyphName="acutecomb.cap" x="2138" y="999" flags="0x1004"/>
      <component glyphName="Z" x="0" y="0" flags="0x1004"/>
    </TTGlyph>
    <TTGlyph name="Zacute.c2" xMin="111" yMin="0" xMax="1663" yMax="2580">
      <component glyphName="zacute.sc" x="0" y="0" flags="0x1004"/>
    </TTGlyph>
    <TTGlyph name="Zcaron" xMin="111" yMin="0" xMax="2609" yMax="3543">
      <component glyphName="uni030C.cap" x="2138" y="999" flags="0x1004"/>
      <component glyphName="Z" x="0" y="0" flags="0x1004"/>
    </TTGlyph>
    <TTGlyph name="Zcaron.c2" xMin="111" yMin="0" xMax="1663" yMax="2478">
      <component glyphName="zcaron.sc" x="0" y="0" flags="0x1004"/>
    </TTGlyph>
    <TTGlyph name="Zdotaccent" xMin="111" yMin="0" xMax="2609" yMax="3493">
      <component glyphName="uni0307.cap" x="2138" y="999" flags="0x1004"/>
      <component glyphName="Z" x="0" y="0" flags="0x1004"/>
    </TTGlyph>
    <TTGlyph name="Zdotaccent.c2" xMin="111" yMin="0" xMax="1663" yMax="2421">
      <component glyphName="zdotaccent.sc" x="0" y="0" flags="0x1004"/>
    </TTGlyph>
    <TTGlyph name="a" xMin="111" yMin="-70" xMax="1524" yMax="1622">
      <contour>
        <pt x="238" y="1016" on="1"/>
        <pt x="143" y="1016" on="0"/>
        <pt x="143" y="1163" on="1"/>
        <pt x="143" y="1258" on="0"/>
        <pt x="239" y="1382" on="1"/>
        <pt x="424" y="1622" on="0"/>
        <pt x="860" y="1622" on="1"/>
        <pt x="1108" y="1622" on="0"/>
        <pt x="1192" y="1442" on="1"/>
        <pt x="1221" y="1379" on="0"/>
        <pt x="1221" y="1294" on="1"/>
        <pt x="1221" y="528" on="1"/>
        <pt x="1221" y="342" on="0"/>
        <pt x="1290" y="264" on="1"/>
        <pt x="1355" y="192" on="0"/>
        <pt x="1487" y="156" on="1"/>
        <pt x="1524" y="146" on="0"/>
        <pt x="1524" y="98" on="0"/>
        <pt x="1472" y="66" on="1"/>
        <pt x="1252" y="-67" on="0"/>
        <pt x="1241" y="-70" on="1"/>
        <pt x="1150" y="-6" on="0"/>
        <pt x="1108" y="43" on="1"/>
        <pt x="1056" y="102" on="0"/>
        <pt x="967" y="217" on="1"/>
        <pt x="885" y="106" on="0"/>
        <pt x="618" y="-45" on="0"/>
        <pt x="419" y="-45" on="0"/>
        <pt x="291" y="-9" on="0"/>
        <pt x="235" y="27" on="1"/>
        <pt x="111" y="107" on="0"/>
        <pt x="111" y="432" on="0"/>
        <pt x="327" y="720" on="0"/>
        <pt x="708" y="893" on="0"/>
        <pt x="934" y="893" on="1"/>
        <pt x="934" y="1139" on="1"/>
        <pt x="934" y="1315" on="0"/>
        <pt x="864" y="1374" on="1"/>
        <pt x="798" y="1430" on="0"/>
        <pt x="579" y="1430" on="0"/>
        <pt x="451" y="1404" on="0"/>
        <pt x="418" y="1385" on="1"/>
        <pt x="348" y="1345" on="0"/>
        <pt x="328" y="1303" on="1"/>
        <pt x="334" y="1276" on="0"/>
        <pt x="345" y="1236" on="1"/>
        <pt x="369" y="1150" on="0"/>
        <pt x="369" y="1078" on="0"/>
        <pt x="272" y="1016" on="0"/>
      </contour>
      <contour>
        <pt x="397" y="374" on="1"/>
        <pt x="397" y="293" on="0"/>
        <pt x="516" y="176" on="0"/>
        <pt x="712" y="176" on="0"/>
        <pt x="819" y="206" on="0"/>
        <pt x="881" y="252" on="0"/>
        <pt x="901" y="284" on="1"/>
        <pt x="934" y="335" on="0"/>
        <pt x="934" y="401" on="1"/>
        <pt x="934" y="782" on="1"/>
        <pt x="686" y="782" on="0"/>
        <pt x="537" y="651" on="1"/>
        <pt x="397" y="528" on="0"/>
      </contour>
    </TTGlyph>
    <TTGlyph name="a.sc" xMin="111" yMin="0" xMax="1860" yMax="1671">
      <contour>
        <pt x="111" y="131" on="1"/>
        <pt x="197" y="131" on="1"/>
        <pt x="282" y="131" on="0"/>
        <pt x="313" y="153" on="1"/>
        <pt x="361" y="186" on="0"/>
        <pt x="414" y="311" on="1"/>
        <pt x="1004" y="1671" on="1"/>
        <pt x="1073" y="1671" on="1"/>
        <pt x="1634" y="254" on="1"/>
        <pt x="1668" y="170" on="0"/>
        <pt x="1719" y="131" on="0"/>
        <pt x="1798" y="131" on="1"/>
        <pt x="1860" y="131" on="1"/>
        <pt x="1860" y="0" on="1"/>
        <pt x="1065" y="0" on="1"/>
        <pt x="1069" y="131" on="1"/>
        <pt x="1196" y="131" on="1"/>
        <pt x="1279" y="131" on="0"/>
        <pt x="1339" y="148" on="0"/>
        <pt x="1339" y="192" on="0"/>
        <pt x="1323" y="250" on="1"/>
        <pt x="1200" y="578" on="1"/>
        <pt x="680" y="578" on="1"/>
        <pt x="557" y="279" on="1"/>
        <pt x="552" y="265" on="0"/>
        <pt x="542" y="240" on="1"/>
        <pt x="524" y="195" on="0"/>
        <pt x="524" y="172" on="1"/>
        <pt x="524" y="131" on="0"/>
        <pt x="668" y="131" on="1"/>
        <pt x="815" y="131" on="1"/>
        <pt x="815" y="0" on="1"/>
        <pt x="115" y="0" on="1"/>
      </contour>
      <contour>
        <pt x="733" y="705" on="1"/>
        <pt x="1155" y="705" on="1"/>
        <pt x="963" y="1241" on="1"/>
      </contour>
    </TTGlyph>
    <TTGlyph name="aacute" xMin="111" yMin="-70" xMax="1524" yMax="2580">
      <component glyphName="acutecomb" x="1520" y="0" flags="0x1004"/>
      <component glyphName="a" x="0" y="0" flags="0x1004"/>
    </TTGlyph>
    <TTGlyph name="aacute.sc" xMin="111" yMin="0" xMax="1860" yMax="2580">
      <component glyphName="acutecomb" x="1831" y="0" flags="0x1004"/>
      <component glyphName="a.sc" x="0" y="0" flags="0x1004"/>
    </TTGlyph>
    <TTGlyph name="abreve" xMin="111" yMin="-70" xMax="1524" yMax="2478">
      <component glyphName="uni0306" x="1520" y="0" flags="0x1004"/>
      <component glyphName="a" x="0" y="0" flags="0x1004"/>
    </TTGlyph>
    <TTGlyph name="abreve.sc" xMin="111" yMin="0" xMax="1860" yMax="2478">
      <component glyphName="uni0306" x="1831" y="0" flags="0x1004"/>
      <component glyphName="a.sc" x="0" y="0" flags="0x1004"/>
    </TTGlyph>
    <TTGlyph name="acircumflex" xMin="111" yMin="-70" xMax="1524" yMax="2478">
      <component glyphName="uni0302" x="1520" y="0" flags="0x1004"/>
      <component glyphName="a" x="0" y="0" flags="0x1004"/>
    </TTGlyph>
    <TTGlyph name="acircumflex.sc" xMin="111" yMin="0" xMax="1860" yMax="2478">
      <component glyphName="uni0302" x="1831" y="0" flags="0x1004"/>
      <component glyphName="a.sc" x="0" y="0" flags="0x1004"/>
    </TTGlyph>
    <TTGlyph name="acute" xMin="704" yMin="1917" xMax="1204" yMax="2580">
      <component glyphName="acutecomb" x="1597" y="0" flags="0x1004"/>
    </TTGlyph>
    <TTGlyph name="acutecomb" xMin="-893" yMin="1917" xMax="-393" yMax="2580">
      <contour>
        <pt x="-893" y="1917" on="1"/>
        <pt x="-680" y="2580" on="1"/>
        <pt x="-393" y="2580" on="1"/>
        <pt x="-745" y="1917" on="1"/>
      </contour>
    </TTGlyph>
    <TTGlyph name="acutecomb.cap" xMin="-893" yMin="1978" xMax="-393" yMax="2560">
      <contour>
        <pt x="-893" y="1978" on="1"/>
        <pt x="-680" y="2560" on="1"/>
        <pt x="-393" y="2560" on="1"/>
        <pt x="-745" y="1978" on="1"/>
      </contour>
    </TTGlyph>
    <TTGlyph name="adieresis" xMin="111" yMin="-70" xMax="1524" yMax="2421">
      <contour>
        <pt x="238" y="1016" on="1"/>
        <pt x="143" y="1016" on="0"/>
        <pt x="143" y="1163" on="1"/>
        <pt x="143" y="1258" on="0"/>
        <pt x="239" y="1382" on="1"/>
        <pt x="424" y="1622" on="0"/>
        <pt x="860" y="1622" on="1"/>
        <pt x="1108" y="1622" on="0"/>
        <pt x="1192" y="1442" on="1"/>
        <pt x="1221" y="1379" on="0"/>
        <pt x="1221" y="1294" on="1"/>
        <pt x="1221" y="528" on="1"/>
        <pt x="1221" y="342" on="0"/>
        <pt x="1290" y="264" on="1"/>
        <pt x="1355" y="192" on="0"/>
        <pt x="1487" y="156" on="1"/>
        <pt x="1524" y="146" on="0"/>
        <pt x="1524" y="98" on="0"/>
        <pt x="1472" y="66" on="1"/>
        <pt x="1252" y="-67" on="0"/>
        <pt x="1241" y="-70" on="1"/>
        <pt x="1150" y="-6" on="0"/>
        <pt x="1108" y="43" on="1"/>
        <pt x="1056" y="102" on="0"/>
        <pt x="967" y="217" on="1"/>
        <pt x="885" y="106" on="0"/>
        <pt x="618" y="-45" on="0"/>
        <pt x="419" y="-45" on="0"/>
        <pt x="291" y="-9" on="0"/>
        <pt x="235" y="27" on="1"/>
        <pt x="111" y="107" on="0"/>
        <pt x="111" y="432" on="0"/>
        <pt x="327" y="720" on="0"/>
        <pt x="708" y="893" on="0"/>
        <pt x="934" y="893" on="1"/>
        <pt x="934" y="1139" on="1"/>
        <pt x="934" y="1315" on="0"/>
        <pt x="864" y="1374" on="1"/>
        <pt x="798" y="1430" on="0"/>
        <pt x="579" y="1430" on="0"/>
        <pt x="451" y="1404" on="0"/>
        <pt x="418" y="1385" on="1"/>
        <pt x="348" y="1345" on="0"/>
        <pt x="328" y="1303" on="1"/>
        <pt x="334" y="1276" on="0"/>
        <pt x="345" y="1236" on="1"/>
        <pt x="369" y="1150" on="0"/>
        <pt x="369" y="1078" on="0"/>
        <pt x="272" y="1016" on="0"/>
      </contour>
      <contour>
        <pt x="397" y="374" on="1"/>
        <pt x="397" y="293" on="0"/>
        <pt x="516" y="176" on="0"/>
        <pt x="712" y="176" on="0"/>
        <pt x="819" y="206" on="0"/>
        <pt x="881" y="252" on="0"/>
        <pt x="901" y="284" on="1"/>
        <pt x="934" y="335" on="0"/>
        <pt x="934" y="401" on="1"/>
        <pt x="934" y="782" on="1"/>
        <pt x="686" y="782" on="0"/>
        <pt x="537" y="651" on="1"/>
        <pt x="397" y="528" on="0"/>
      </contour>
      <contour>
        <pt x="991" y="2064" on="0"/>
        <pt x="861" y="2199" on="0"/>
        <pt x="861" y="2289" on="0"/>
        <pt x="1007" y="2421" on="0"/>
        <pt x="1092" y="2421" on="0"/>
        <pt x="1209" y="2276" on="0"/>
        <pt x="1209" y="2189" on="0"/>
        <pt x="1070" y="2064" on="0"/>
      </contour>
      <contour>
        <pt x="394" y="2064" on="0"/>
        <pt x="263" y="2198" on="0"/>
        <pt x="263" y="2288" on="0"/>
        <pt x="406" y="2420" on="0"/>
        <pt x="490" y="2420" on="0"/>
        <pt x="611" y="2275" on="0"/>
        <pt x="611" y="2189" on="0"/>
        <pt x="473" y="2064" on="0"/>
      </contour>
    </TTGlyph>
    <TTGlyph name="adieresis.sc" xMin="111" yMin="0" xMax="1860" yMax="2421">
      <component glyphName="uni0308" x="1831" y="0" flags="0x1004"/>
      <component glyphName="a.sc" x="0" y="0" flags="0x1004"/>
    </TTGlyph>
    <TTGlyph name="ae" xMin="131" yMin="-66" xMax="2503" yMax="1634">
      <contour>
        <pt x="332" y="1016" on="1"/>
        <pt x="238" y="1016" on="0"/>
        <pt x="238" y="1163" on="1"/>
        <pt x="238" y="1265" on="0"/>
        <pt x="384" y="1450" on="0"/>
        <pt x="453" y="1503" on="1"/>
        <pt x="613" y="1626" on="0"/>
        <pt x="852" y="1626" on="1"/>
        <pt x="1159" y="1626" on="0"/>
        <pt x="1236" y="1335" on="1"/>
        <pt x="1254" y="1267" on="0"/>
        <pt x="1257" y="1257" on="1"/>
        <pt x="1308" y="1413" on="0"/>
        <pt x="1589" y="1634" on="0"/>
        <pt x="1850" y="1634" on="0"/>
        <pt x="2034" y="1580" on="0"/>
        <pt x="2175" y="1491" on="0"/>
        <pt x="2294" y="1379" on="0"/>
        <pt x="2332" y="1320" on="1"/>
        <pt x="2413" y="1198" on="0"/>
        <pt x="2413" y="1081" on="0"/>
        <pt x="2365" y="1049" on="0"/>
        <pt x="2347" y="1049" on="1"/>
        <pt x="1331" y="934" on="1"/>
        <pt x="1331" y="868" on="1"/>
        <pt x="1331" y="409" on="0"/>
        <pt x="1690" y="268" on="1"/>
        <pt x="1800" y="225" on="0"/>
        <pt x="2040" y="225" on="0"/>
        <pt x="2238" y="279" on="0"/>
        <pt x="2294" y="311" on="1"/>
        <pt x="2443" y="397" on="0"/>
        <pt x="2466" y="397" on="1"/>
        <pt x="2503" y="397" on="0"/>
        <pt x="2503" y="323" on="0"/>
        <pt x="2436" y="230" on="0"/>
        <pt x="2303" y="116" on="0"/>
        <pt x="2217" y="66" on="1"/>
        <pt x="2015" y="-53" on="0"/>
        <pt x="1570" y="-53" on="0"/>
        <pt x="1257" y="162" on="0"/>
        <pt x="1171" y="324" on="1"/>
        <pt x="1026" y="34" on="0"/>
        <pt x="723" y="-44" on="1"/>
        <pt x="638" y="-66" on="0"/>
        <pt x="477" y="-66" on="0"/>
        <pt x="337" y="-29" on="0"/>
        <pt x="274" y="6" on="1"/>
        <pt x="131" y="87" on="0"/>
        <pt x="131" y="380" on="0"/>
        <pt x="293" y="624" on="0"/>
        <pt x="424" y="708" on="1"/>
        <pt x="710" y="893" on="0"/>
        <pt x="1065" y="893" on="1"/>
        <pt x="1069" y="1032" on="1"/>
        <pt x="1069" y="1203" on="0"/>
        <pt x="1024" y="1309" on="0"/>
        <pt x="977" y="1370" on="0"/>
        <pt x="944" y="1388" on="1"/>
        <pt x="870" y="1430" on="0"/>
        <pt x="674" y="1430" on="0"/>
        <pt x="546" y="1404" on="0"/>
        <pt x="512" y="1385" on="1"/>
        <pt x="441" y="1345" on="0"/>
        <pt x="422" y="1303" on="1"/>
        <pt x="427" y="1279" on="0"/>
        <pt x="438" y="1237" on="1"/>
        <pt x="459" y="1157" on="0"/>
        <pt x="459" y="1078" on="0"/>
        <pt x="365" y="1016" on="0"/>
      </contour>
      <contour>
        <pt x="430" y="346" on="1"/>
        <pt x="430" y="265" on="0"/>
        <pt x="555" y="168" on="0"/>
        <pt x="712" y="168" on="0"/>
        <pt x="842" y="195" on="0"/>
        <pt x="937" y="239" on="0"/>
        <pt x="1021" y="291" on="0"/>
        <pt x="1049" y="317" on="1"/>
        <pt x="1108" y="371" on="0"/>
        <pt x="1135" y="414" on="1"/>
        <pt x="1077" y="643" on="0"/>
        <pt x="1069" y="782" on="1"/>
        <pt x="819" y="782" on="0"/>
        <pt x="622" y="639" on="1"/>
        <pt x="430" y="500" on="0"/>
      </contour>
      <contour>
        <pt x="1348" y="1081" on="1"/>
        <pt x="2032" y="1159" on="1"/>
        <pt x="1961" y="1407" on="0"/>
        <pt x="1798" y="1476" on="1"/>
        <pt x="1753" y="1495" on="0"/>
        <pt x="1704" y="1495" on="1"/>
        <pt x="1577" y="1495" on="0"/>
        <pt x="1381" y="1278" on="0"/>
      </contour>
    </TTGlyph>
    <TTGlyph name="ae.sc" xMin="111" yMin="0" xMax="2691" yMax="1606">
      <contour>
        <pt x="111" y="0" on="1"/>
        <pt x="115" y="131" on="1"/>
        <pt x="147" y="131" on="1"/>
        <pt x="238" y="131" on="0"/>
        <pt x="273" y="156" on="1"/>
        <pt x="318" y="187" on="0"/>
        <pt x="406" y="311" on="1"/>
        <pt x="1217" y="1475" on="1"/>
        <pt x="1077" y="1475" on="1"/>
        <pt x="1073" y="1606" on="1"/>
        <pt x="2597" y="1606" on="1"/>
        <pt x="2597" y="1171" on="1"/>
        <pt x="2478" y="1171" on="1"/>
        <pt x="2478" y="1435" on="0"/>
        <pt x="2434" y="1463" on="1"/>
        <pt x="2414" y="1475" on="0"/>
        <pt x="2372" y="1475" on="1"/>
        <pt x="1815" y="1475" on="1"/>
        <pt x="1740" y="1475" on="0"/>
        <pt x="1738" y="1416" on="1"/>
        <pt x="1737" y="1406" on="0"/>
        <pt x="1737" y="1384" on="1"/>
        <pt x="1737" y="995" on="1"/>
        <pt x="1737" y="936" on="0"/>
        <pt x="1760" y="913" on="0"/>
        <pt x="1819" y="913" on="1"/>
        <pt x="2142" y="913" on="1"/>
        <pt x="2202" y="913" on="0"/>
        <pt x="2232" y="951" on="0"/>
        <pt x="2232" y="1020" on="1"/>
        <pt x="2232" y="1102" on="1"/>
        <pt x="2343" y="1102" on="1"/>
        <pt x="2343" y="565" on="1"/>
        <pt x="2232" y="565" on="1"/>
        <pt x="2232" y="726" on="0"/>
        <pt x="2210" y="782" on="0"/>
        <pt x="2146" y="782" on="1"/>
        <pt x="1819" y="782" on="1"/>
        <pt x="1762" y="782" on="0"/>
        <pt x="1737" y="751" on="0"/>
        <pt x="1737" y="705" on="1"/>
        <pt x="1737" y="250" on="1"/>
        <pt x="1737" y="195" on="0"/>
        <pt x="1766" y="164" on="0"/>
        <pt x="1819" y="164" on="1"/>
        <pt x="2208" y="164" on="1"/>
        <pt x="2379" y="164" on="0"/>
        <pt x="2463" y="189" on="0"/>
        <pt x="2500" y="225" on="0"/>
        <pt x="2512" y="254" on="0"/>
        <pt x="2530" y="322" on="0"/>
        <pt x="2534" y="350" on="1"/>
        <pt x="2543" y="426" on="0"/>
        <pt x="2564" y="537" on="1"/>
        <pt x="2691" y="520" on="1"/>
        <pt x="2609" y="0" on="1"/>
        <pt x="1159" y="0" on="1"/>
        <pt x="1159" y="131" on="1"/>
        <pt x="1274" y="131" on="1"/>
        <pt x="1390" y="131" on="0"/>
        <pt x="1450" y="164" on="0"/>
        <pt x="1450" y="233" on="1"/>
        <pt x="1450" y="578" on="1"/>
        <pt x="766" y="578" on="1"/>
        <pt x="561" y="279" on="1"/>
        <pt x="508" y="194" on="0"/>
        <pt x="508" y="145" on="0"/>
        <pt x="558" y="131" on="0"/>
        <pt x="635" y="131" on="1"/>
        <pt x="758" y="131" on="1"/>
        <pt x="758" y="0" on="1"/>
      </contour>
      <contour>
        <pt x="856" y="705" on="1"/>
        <pt x="1450" y="705" on="1"/>
        <pt x="1450" y="1368" on="1"/>
        <pt x="1450" y="1422" on="0"/>
        <pt x="1427" y="1464" on="0"/>
        <pt x="1384" y="1470" on="1"/>
      </contour>
    </TTGlyph>
    <TTGlyph name="afii00208" xMin="0" yMin="1081" xMax="4096" yMax="1257">
      <component glyphName="emdash" x="0" y="0" flags="0x1004"/>
    </TTGlyph>
    <TTGlyph name="afii57929" xMin="659" yMin="2068" xMax="987" yMax="2769">
      <component glyphName="uni0315" x="1597" y="0" flags="0x1004"/>
    </TTGlyph>
    <TTGlyph name="agrave" xMin="111" yMin="-70" xMax="1524" yMax="2580">
      <component glyphName="gravecomb" x="1520" y="0" flags="0x1004"/>
      <component glyphName="a" x="0" y="0" flags="0x1004"/>
    </TTGlyph>
    <TTGlyph name="agrave.sc" xMin="111" yMin="0" xMax="1860" yMax="2580">
      <component glyphName="gravecomb" x="1831" y="0" flags="0x1004"/>
      <component glyphName="a.sc" x="0" y="0" flags="0x1004"/>
    </TTGlyph>
    <TTGlyph name="amacron" xMin="111" yMin="-70" xMax="1524" yMax="2327">
      <component glyphName="uni0304" x="1520" y="0" flags="0x1004"/>
      <component glyphName="a" x="0" y="0" flags="0x1004"/>
    </TTGlyph>
    <TTGlyph name="amacron.sc" xMin="111" yMin="0" xMax="1860" yMax="2327">
      <component glyphName="uni0304" x="1831" y="0" flags="0x1004"/>
      <component glyphName="a.sc" x="0" y="0" flags="0x1004"/>
    </TTGlyph>
    <TTGlyph name="ampersand" xMin="180" yMin="-62" xMax="3383" yMax="2757">
      <contour>
        <pt x="3342" y="299" on="1"/>
        <pt x="3383" y="299" on="0"/>
        <pt x="3383" y="254" on="1"/>
        <pt x="3383" y="128" on="0"/>
        <pt x="3101" y="-61" on="0"/>
        <pt x="2896" y="-61" on="1"/>
        <pt x="2776" y="-61" on="0"/>
        <pt x="2648" y="8" on="1"/>
        <pt x="2445" y="119" on="0"/>
        <pt x="2346" y="188" on="1"/>
        <pt x="2306" y="217" on="1"/>
        <pt x="2180" y="65" on="0"/>
        <pt x="1884" y="-23" on="1"/>
        <pt x="1558" y="-121" on="0"/>
        <pt x="1172" y="-62" on="1"/>
        <pt x="586" y="27" on="0"/>
        <pt x="320" y="427" on="1"/>
        <pt x="180" y="638" on="0"/>
        <pt x="180" y="922" on="1"/>
        <pt x="180" y="1269" on="0"/>
        <pt x="444" y="1470" on="1"/>
        <pt x="561" y="1559" on="0"/>
        <pt x="721" y="1606" on="1"/>
        <pt x="639" y="1672" on="0"/>
        <pt x="567" y="1793" on="1"/>
        <pt x="438" y="2008" on="0"/>
        <pt x="438" y="2272" on="0"/>
        <pt x="533" y="2488" on="0"/>
        <pt x="620" y="2572" on="1"/>
        <pt x="812" y="2757" on="0"/>
        <pt x="1139" y="2757" on="1"/>
        <pt x="1296" y="2757" on="0"/>
        <pt x="1578" y="2633" on="0"/>
        <pt x="1749" y="2422" on="0"/>
        <pt x="1749" y="2238" on="0"/>
        <pt x="1702" y="2106" on="0"/>
        <pt x="1660" y="2050" on="1"/>
        <pt x="1565" y="1925" on="0"/>
        <pt x="1401" y="1925" on="1"/>
        <pt x="1326" y="1925" on="0"/>
        <pt x="1171" y="1983" on="0"/>
        <pt x="1171" y="2023" on="1"/>
        <pt x="1171" y="2045" on="0"/>
        <pt x="1306" y="2091" on="0"/>
        <pt x="1346" y="2112" on="1"/>
        <pt x="1442" y="2161" on="0"/>
        <pt x="1442" y="2418" on="0"/>
        <pt x="1235" y="2601" on="0"/>
        <pt x="965" y="2601" on="0"/>
        <pt x="758" y="2426" on="0"/>
        <pt x="758" y="2298" on="1"/>
        <pt x="758" y="2141" on="0"/>
        <pt x="871" y="1990" on="1"/>
        <pt x="995" y="1825" on="0"/>
        <pt x="1315" y="1521" on="0"/>
        <pt x="1427" y="1417" on="0"/>
        <pt x="1655" y="1204" on="0"/>
        <pt x="1867" y="1014" on="0"/>
        <pt x="2041" y="870" on="0"/>
        <pt x="2128" y="800" on="0"/>
        <pt x="2275" y="689" on="0"/>
        <pt x="2281" y="684" on="1"/>
        <pt x="2392" y="598" on="1"/>
        <pt x="2638" y="952" on="0"/>
        <pt x="2638" y="1356" on="1"/>
        <pt x="2638" y="1757" on="0"/>
        <pt x="2508" y="1794" on="1"/>
        <pt x="2420" y="1819" on="0"/>
        <pt x="2077" y="1819" on="1"/>
        <pt x="2068" y="1978" on="1"/>
        <pt x="3162" y="1978" on="1"/>
        <pt x="3166" y="1819" on="1"/>
        <pt x="3118" y="1818" on="0"/>
        <pt x="2882" y="1817" on="0"/>
        <pt x="2785" y="1802" on="0"/>
        <pt x="2785" y="1769" on="1"/>
        <pt x="2785" y="1758" on="0"/>
        <pt x="2802" y="1715" on="0"/>
        <pt x="2812" y="1684" on="1"/>
        <pt x="2839" y="1602" on="0"/>
        <pt x="2839" y="1227" on="0"/>
        <pt x="2778" y="967" on="0"/>
        <pt x="2735" y="864" on="1"/>
        <pt x="2646" y="652" on="0"/>
        <pt x="2574" y="543" on="1"/>
        <pt x="2544" y="496" on="1"/>
        <pt x="2560" y="485" on="0"/>
        <pt x="2695" y="392" on="0"/>
        <pt x="2738" y="365" on="0"/>
        <pt x="2852" y="300" on="0"/>
        <pt x="2887" y="288" on="1"/>
        <pt x="3087" y="223" on="0"/>
        <pt x="3288" y="288" on="1"/>
        <pt x="3323" y="299" on="0"/>
      </contour>
      <contour>
        <pt x="721" y="1464" on="0"/>
        <pt x="561" y="1223" on="0"/>
        <pt x="561" y="921" on="0"/>
        <pt x="654" y="685" on="0"/>
        <pt x="813" y="501" on="0"/>
        <pt x="1024" y="350" on="0"/>
        <pt x="1142" y="300" on="1"/>
        <pt x="1390" y="197" on="0"/>
        <pt x="1626" y="197" on="1"/>
        <pt x="1956" y="197" on="0"/>
        <pt x="2136" y="320" on="1"/>
        <pt x="2149" y="328" on="0"/>
        <pt x="2150" y="328" on="1"/>
        <pt x="1798" y="586" on="1"/>
        <pt x="1630" y="715" on="0"/>
        <pt x="1087" y="1217" on="0"/>
        <pt x="827" y="1491" on="1"/>
      </contour>
    </TTGlyph>
    <TTGlyph name="ampersand.c2" xMin="70" yMin="-41" xMax="2302" yMax="1618">
      <contour>
        <pt x="1438" y="168" on="1"/>
        <pt x="1229" y="-41" on="0"/>
        <pt x="860" y="-41" on="1"/>
        <pt x="559" y="-41" on="0"/>
        <pt x="322" y="92" on="1"/>
        <pt x="209" y="155" on="0"/>
        <pt x="70" y="359" on="0"/>
        <pt x="70" y="554" on="0"/>
        <pt x="108" y="685" on="0"/>
        <pt x="169" y="780" on="0"/>
        <pt x="242" y="862" on="0"/>
        <pt x="278" y="889" on="1"/>
        <pt x="345" y="939" on="0"/>
        <pt x="414" y="971" on="1"/>
        <pt x="340" y="1045" on="0"/>
        <pt x="291" y="1223" on="0"/>
        <pt x="291" y="1270" on="1"/>
        <pt x="291" y="1417" on="0"/>
        <pt x="511" y="1618" on="0"/>
        <pt x="875" y="1618" on="0"/>
        <pt x="1102" y="1460" on="0"/>
        <pt x="1102" y="1275" on="0"/>
        <pt x="960" y="1155" on="0"/>
        <pt x="832" y="1155" on="0"/>
        <pt x="778" y="1202" on="0"/>
        <pt x="778" y="1230" on="0"/>
        <pt x="792" y="1242" on="1"/>
        <pt x="836" y="1278" on="0"/>
        <pt x="836" y="1401" on="0"/>
        <pt x="750" y="1479" on="0"/>
        <pt x="628" y="1479" on="0"/>
        <pt x="532" y="1396" on="0"/>
        <pt x="532" y="1299" on="0"/>
        <pt x="559" y="1228" on="0"/>
        <pt x="621" y="1147" on="0"/>
        <pt x="691" y="1070" on="0"/>
        <pt x="808" y="967" on="0"/>
        <pt x="914" y="880" on="0"/>
        <pt x="1078" y="753" on="0"/>
        <pt x="1144" y="702" on="1"/>
        <pt x="1291" y="591" on="0"/>
        <pt x="1491" y="438" on="1"/>
        <pt x="1581" y="650" on="0"/>
        <pt x="1581" y="819" on="1"/>
        <pt x="1581" y="967" on="0"/>
        <pt x="1540" y="1005" on="1"/>
        <pt x="1506" y="1036" on="0"/>
        <pt x="1335" y="1036" on="1"/>
        <pt x="1196" y="1036" on="1"/>
        <pt x="1196" y="1167" on="1"/>
        <pt x="1950" y="1167" on="1"/>
        <pt x="1950" y="1036" on="1"/>
        <pt x="1884" y="1036" on="1"/>
        <pt x="1775" y="1036" on="0"/>
        <pt x="1724" y="1002" on="0"/>
        <pt x="1724" y="926" on="1"/>
        <pt x="1724" y="609" on="0"/>
        <pt x="1593" y="377" on="1"/>
        <pt x="1863" y="205" on="0"/>
        <pt x="2044" y="205" on="1"/>
        <pt x="2148" y="205" on="0"/>
        <pt x="2177" y="236" on="1"/>
        <pt x="2232" y="295" on="0"/>
        <pt x="2277" y="295" on="1"/>
        <pt x="2302" y="295" on="0"/>
        <pt x="2302" y="198" on="0"/>
        <pt x="2247" y="114" on="0"/>
        <pt x="2196" y="77" on="1"/>
        <pt x="2080" y="-8" on="0"/>
        <pt x="1692" y="-8" on="0"/>
      </contour>
      <contour>
        <pt x="512" y="889" on="1"/>
        <pt x="377" y="781" on="0"/>
        <pt x="377" y="631" on="1"/>
        <pt x="377" y="364" on="0"/>
        <pt x="680" y="213" on="1"/>
        <pt x="852" y="127" on="0"/>
        <pt x="1036" y="127" on="1"/>
        <pt x="1171" y="127" on="0"/>
        <pt x="1277" y="196" on="1"/>
        <pt x="1301" y="211" on="0"/>
        <pt x="1323" y="233" on="1"/>
        <pt x="1134" y="349" on="0"/>
        <pt x="621" y="770" on="0"/>
      </contour>
    </TTGlyph>
    <TTGlyph name="aogonek" xMin="111" yMin="-1073" xMax="1524" yMax="1622">
      <contour>
        <pt x="238" y="1016" on="1"/>
        <pt x="143" y="1016" on="0"/>
        <pt x="143" y="1163" on="1"/>
        <pt x="143" y="1258" on="0"/>
        <pt x="239" y="1382" on="1"/>
        <pt x="424" y="1622" on="0"/>
        <pt x="860" y="1622" on="1"/>
        <pt x="1108" y="1622" on="0"/>
        <pt x="1192" y="1442" on="1"/>
        <pt x="1221" y="1379" on="0"/>
        <pt x="1221" y="1294" on="1"/>
        <pt x="1221" y="528" on="1"/>
        <pt x="1221" y="342" on="0"/>
        <pt x="1290" y="266" on="1"/>
        <pt x="1353" y="196" on="0"/>
        <pt x="1487" y="156" on="1"/>
        <pt x="1524" y="146" on="0"/>
        <pt x="1524" y="98" on="0"/>
        <pt x="1487" y="78" on="1"/>
        <pt x="1274" y="-49" on="1"/>
        <pt x="1090" y="-159" on="0"/>
        <pt x="897" y="-445" on="0"/>
        <pt x="897" y="-586" on="1"/>
        <pt x="897" y="-783" on="0"/>
        <pt x="1018" y="-856" on="1"/>
        <pt x="1059" y="-881" on="0"/>
        <pt x="1185" y="-881" on="0"/>
        <pt x="1303" y="-845" on="0"/>
        <pt x="1363" y="-802" on="0"/>
        <pt x="1413" y="-766" on="0"/>
        <pt x="1425" y="-766" on="1"/>
        <pt x="1454" y="-766" on="0"/>
        <pt x="1454" y="-818" on="0"/>
        <pt x="1383" y="-909" on="0"/>
        <pt x="1324" y="-956" on="1"/>
        <pt x="1178" y="-1073" on="0"/>
        <pt x="975" y="-1073" on="1"/>
        <pt x="736" y="-1073" on="0"/>
        <pt x="650" y="-889" on="1"/>
        <pt x="610" y="-801" on="0"/>
        <pt x="610" y="-606" on="0"/>
        <pt x="713" y="-394" on="0"/>
        <pt x="794" y="-302" on="1"/>
        <pt x="964" y="-111" on="0"/>
        <pt x="1159" y="-4" on="1"/>
        <pt x="1095" y="52" on="0"/>
        <pt x="983" y="197" on="0"/>
        <pt x="967" y="217" on="1"/>
        <pt x="885" y="106" on="0"/>
        <pt x="618" y="-45" on="0"/>
        <pt x="419" y="-45" on="0"/>
        <pt x="291" y="-9" on="0"/>
        <pt x="235" y="27" on="1"/>
        <pt x="111" y="107" on="0"/>
        <pt x="111" y="432" on="0"/>
        <pt x="327" y="720" on="0"/>
        <pt x="708" y="893" on="0"/>
        <pt x="934" y="893" on="1"/>
        <pt x="934" y="1139" on="1"/>
        <pt x="934" y="1315" on="0"/>
        <pt x="864" y="1374" on="1"/>
        <pt x="798" y="1430" on="0"/>
        <pt x="579" y="1430" on="0"/>
        <pt x="451" y="1404" on="0"/>
        <pt x="418" y="1385" on="1"/>
        <pt x="348" y="1345" on="0"/>
        <pt x="328" y="1303" on="1"/>
        <pt x="334" y="1276" on="0"/>
        <pt x="345" y="1236" on="1"/>
        <pt x="369" y="1150" on="0"/>
        <pt x="369" y="1078" on="0"/>
        <pt x="272" y="1016" on="0"/>
      </contour>
      <contour>
        <pt x="397" y="374" on="1"/>
        <pt x="397" y="293" on="0"/>
        <pt x="516" y="176" on="0"/>
        <pt x="712" y="176" on="0"/>
        <pt x="819" y="206" on="0"/>
        <pt x="881" y="252" on="0"/>
        <pt x="901" y="284" on="1"/>
        <pt x="934" y="335" on="0"/>
        <pt x="934" y="401" on="1"/>
        <pt x="934" y="782" on="1"/>
        <pt x="686" y="782" on="0"/>
        <pt x="537" y="651" on="1"/>
        <pt x="397" y="528" on="0"/>
      </contour>
    </TTGlyph>
    <TTGlyph name="aogonek.sc" xMin="111" yMin="-1069" xMax="1860" yMax="1671">
      <contour>
        <pt x="111" y="131" on="1"/>
        <pt x="197" y="131" on="1"/>
        <pt x="282" y="131" on="0"/>
        <pt x="313" y="153" on="1"/>
        <pt x="361" y="186" on="0"/>
        <pt x="414" y="311" on="1"/>
        <pt x="1004" y="1671" on="1"/>
        <pt x="1073" y="1671" on="1"/>
        <pt x="1634" y="254" on="1"/>
        <pt x="1667" y="173" on="0"/>
        <pt x="1723" y="131" on="0"/>
        <pt x="1790" y="131" on="1"/>
        <pt x="1860" y="131" on="1"/>
        <pt x="1860" y="0" on="1"/>
        <pt x="1647" y="0" on="1"/>
        <pt x="1328" y="0" on="0"/>
        <pt x="1154" y="-284" on="1"/>
        <pt x="1061" y="-438" on="0"/>
        <pt x="1061" y="-745" on="0"/>
        <pt x="1193" y="-881" on="0"/>
        <pt x="1358" y="-881" on="0"/>
        <pt x="1469" y="-845" on="0"/>
        <pt x="1533" y="-802" on="0"/>
        <pt x="1585" y="-766" on="0"/>
        <pt x="1593" y="-766" on="1"/>
        <pt x="1618" y="-766" on="0"/>
        <pt x="1618" y="-809" on="0"/>
        <pt x="1578" y="-874" on="0"/>
        <pt x="1497" y="-953" on="0"/>
        <pt x="1444" y="-988" on="1"/>
        <pt x="1320" y="-1069" on="0"/>
        <pt x="1006" y="-1069" on="0"/>
        <pt x="786" y="-881" on="0"/>
        <pt x="786" y="-570" on="0"/>
        <pt x="918" y="-377" on="1"/>
        <pt x="985" y="-277" on="0"/>
        <pt x="1179" y="-94" on="0"/>
        <pt x="1223" y="-44" on="1"/>
        <pt x="1315" y="59" on="0"/>
        <pt x="1315" y="268" on="0"/>
        <pt x="1270" y="389" on="1"/>
        <pt x="1200" y="578" on="1"/>
        <pt x="680" y="578" on="1"/>
        <pt x="557" y="279" on="1"/>
        <pt x="552" y="265" on="0"/>
        <pt x="542" y="240" on="1"/>
        <pt x="524" y="195" on="0"/>
        <pt x="524" y="172" on="1"/>
        <pt x="524" y="131" on="0"/>
        <pt x="668" y="131" on="1"/>
        <pt x="815" y="131" on="1"/>
        <pt x="815" y="0" on="1"/>
        <pt x="115" y="0" on="1"/>
      </contour>
      <contour>
        <pt x="733" y="705" on="1"/>
        <pt x="1155" y="705" on="1"/>
        <pt x="963" y="1241" on="1"/>
      </contour>
    </TTGlyph>
    <TTGlyph name="aring" xMin="111" yMin="-70" xMax="1524" yMax="2552">
      <component glyphName="uni030A" x="1520" y="0" flags="0x1004"/>
      <component glyphName="a" x="0" y="0" flags="0x1004"/>
    </TTGlyph>
    <TTGlyph name="aring.sc" xMin="111" yMin="0" xMax="1860" yMax="2552">
      <component glyphName="uni030A" x="1831" y="0" flags="0x1004"/>
      <component glyphName="a.sc" x="0" y="0" flags="0x1004"/>
    </TTGlyph>
    <TTGlyph name="asciicircum" xMin="164" yMin="1356" xMax="1499" yMax="2666">
      <contour>
        <pt x="164" y="1356" on="1"/>
        <pt x="807" y="2666" on="1"/>
        <pt x="856" y="2666" on="1"/>
        <pt x="1499" y="1356" on="1"/>
        <pt x="1241" y="1356" on="1"/>
        <pt x="831" y="2224" on="1"/>
        <pt x="422" y="1356" on="1"/>
      </contour>
    </TTGlyph>
    <TTGlyph name="asciitilde" xMin="246" yMin="885" xMax="3834" yMax="1839">
      <component glyphName="uni2053" x="0" y="0" flags="0x1004"/>
    </TTGlyph>
    <TTGlyph name="asterisk" xMin="180" yMin="1049" xMax="1683" yMax="2699">
      <contour>
        <pt x="1100" y="1652" on="0"/>
        <pt x="1018" y="1729" on="0"/>
        <pt x="983" y="1729" on="0"/>
        <pt x="983" y="1629" on="0"/>
        <pt x="1094" y="1269" on="0"/>
        <pt x="1094" y="1147" on="0"/>
        <pt x="993" y="1049" on="0"/>
        <pt x="860" y="1049" on="0"/>
        <pt x="750" y="1145" on="0"/>
        <pt x="750" y="1258" on="0"/>
        <pt x="868" y="1688" on="0"/>
        <pt x="868" y="1737" on="0"/>
        <pt x="845" y="1737" on="0"/>
        <pt x="759" y="1661" on="0"/>
        <pt x="644" y="1552" on="0"/>
        <pt x="581" y="1498" on="1"/>
        <pt x="429" y="1368" on="0"/>
        <pt x="259" y="1368" on="0"/>
        <pt x="180" y="1468" on="0"/>
        <pt x="180" y="1580" on="0"/>
        <pt x="308" y="1679" on="0"/>
        <pt x="489" y="1740" on="0"/>
        <pt x="580" y="1764" on="1"/>
        <pt x="799" y="1820" on="0"/>
        <pt x="799" y="1875" on="0"/>
        <pt x="672" y="1914" on="0"/>
        <pt x="492" y="1946" on="0"/>
        <pt x="402" y="1970" on="1"/>
        <pt x="184" y="2028" on="0"/>
        <pt x="184" y="2171" on="1"/>
        <pt x="184" y="2284" on="0"/>
        <pt x="305" y="2326" on="1"/>
        <pt x="329" y="2335" on="0"/>
        <pt x="391" y="2335" on="0"/>
        <pt x="555" y="2222" on="0"/>
        <pt x="628" y="2154" on="1"/>
        <pt x="821" y="1974" on="0"/>
        <pt x="868" y="1974" on="1"/>
        <pt x="885" y="1974" on="0"/>
        <pt x="885" y="2069" on="0"/>
        <pt x="758" y="2471" on="0"/>
        <pt x="758" y="2590" on="0"/>
        <pt x="866" y="2699" on="0"/>
        <pt x="971" y="2699" on="0"/>
        <pt x="1031" y="2677" on="0"/>
        <pt x="1058" y="2653" on="1"/>
        <pt x="1118" y="2601" on="0"/>
        <pt x="1118" y="2474" on="1"/>
        <pt x="1118" y="2429" on="0"/>
        <pt x="999" y="2032" on="0"/>
        <pt x="999" y="1958" on="0"/>
        <pt x="1043" y="1958" on="0"/>
        <pt x="1133" y="2032" on="0"/>
        <pt x="1239" y="2138" on="0"/>
        <pt x="1296" y="2191" on="1"/>
        <pt x="1433" y="2318" on="0"/>
        <pt x="1594" y="2318" on="0"/>
        <pt x="1683" y="2243" on="0"/>
        <pt x="1683" y="2129" on="0"/>
        <pt x="1616" y="2038" on="0"/>
        <pt x="1508" y="1982" on="0"/>
        <pt x="1378" y="1939" on="0"/>
        <pt x="1248" y="1912" on="0"/>
        <pt x="1194" y="1901" on="1"/>
        <pt x="1073" y="1876" on="0"/>
        <pt x="1073" y="1826" on="0"/>
        <pt x="1158" y="1788" on="0"/>
        <pt x="1286" y="1759" on="0"/>
        <pt x="1434" y="1713" on="0"/>
        <pt x="1562" y="1659" on="0"/>
        <pt x="1647" y="1564" on="0"/>
        <pt x="1647" y="1442" on="0"/>
        <pt x="1579" y="1356" on="0"/>
        <pt x="1465" y="1356" on="0"/>
        <pt x="1331" y="1433" on="0"/>
        <pt x="1210" y="1542" on="0"/>
      </contour>
    </TTGlyph>
    <TTGlyph name="at" xMin="262" yMin="-377" xMax="2855" yMax="1991">
      <contour>
        <pt x="2138" y="1921" on="1"/>
        <pt x="2138" y="1966" on="0"/>
        <pt x="2179" y="1966" on="1"/>
        <pt x="2244" y="1966" on="0"/>
        <pt x="2442" y="1830" on="0"/>
        <pt x="2550" y="1727" on="0"/>
        <pt x="2653" y="1603" on="0"/>
        <pt x="2745" y="1436" on="0"/>
        <pt x="2780" y="1342" on="1"/>
        <pt x="2855" y="1136" on="0"/>
        <pt x="2855" y="695" on="0"/>
        <pt x="2778" y="374" on="0"/>
        <pt x="2641" y="123" on="0"/>
        <pt x="2449" y="-84" on="0"/>
        <pt x="2220" y="-230" on="0"/>
        <pt x="2089" y="-280" on="1"/>
        <pt x="1835" y="-377" on="0"/>
        <pt x="1359" y="-377" on="0"/>
        <pt x="1036" y="-308" on="0"/>
        <pt x="781" y="-184" on="0"/>
        <pt x="568" y="-12" on="0"/>
        <pt x="417" y="195" on="0"/>
        <pt x="364" y="312" on="1"/>
        <pt x="262" y="542" on="0"/>
        <pt x="262" y="956" on="0"/>
        <pt x="332" y="1246" on="0"/>
        <pt x="464" y="1510" on="0"/>
        <pt x="671" y="1734" on="0"/>
        <pt x="801" y="1816" on="1"/>
        <pt x="1078" y="1991" on="0"/>
        <pt x="1462" y="1991" on="1"/>
        <pt x="1628" y="1991" on="0"/>
        <pt x="1893" y="1829" on="0"/>
        <pt x="2036" y="1556" on="0"/>
        <pt x="2036" y="1393" on="1"/>
        <pt x="2036" y="807" on="1"/>
        <pt x="2036" y="618" on="0"/>
        <pt x="2103" y="542" on="1"/>
        <pt x="2168" y="469" on="0"/>
        <pt x="2339" y="423" on="0"/>
        <pt x="2339" y="379" on="0"/>
        <pt x="2284" y="346" on="1"/>
        <pt x="2070" y="214" on="0"/>
        <pt x="2056" y="209" on="1"/>
        <pt x="1961" y="277" on="0"/>
        <pt x="1878" y="376" on="0"/>
        <pt x="1800" y="478" on="0"/>
        <pt x="1782" y="500" on="1"/>
        <pt x="1699" y="389" on="0"/>
        <pt x="1434" y="238" on="0"/>
        <pt x="1235" y="238" on="0"/>
        <pt x="1106" y="273" on="0"/>
        <pt x="1049" y="308" on="1"/>
        <pt x="922" y="386" on="0"/>
        <pt x="922" y="669" on="0"/>
        <pt x="1050" y="899" on="0"/>
        <pt x="1159" y="984" on="1"/>
        <pt x="1399" y="1171" on="0"/>
        <pt x="1745" y="1171" on="1"/>
        <pt x="1745" y="1495" on="1"/>
        <pt x="1745" y="1636" on="0"/>
        <pt x="1630" y="1752" on="1"/>
        <pt x="1538" y="1843" on="0"/>
        <pt x="1226" y="1843" on="0"/>
        <pt x="955" y="1730" on="0"/>
        <pt x="757" y="1535" on="0"/>
        <pt x="685" y="1406" on="1"/>
        <pt x="541" y="1150" on="0"/>
        <pt x="541" y="831" on="1"/>
        <pt x="541" y="499" on="0"/>
        <pt x="704" y="239" on="1"/>
        <pt x="986" y="-213" on="0"/>
        <pt x="1610" y="-213" on="1"/>
        <pt x="2235" y="-213" on="0"/>
        <pt x="2534" y="254" on="1"/>
        <pt x="2695" y="503" on="0"/>
        <pt x="2695" y="877" on="1"/>
        <pt x="2695" y="1120" on="0"/>
        <pt x="2592" y="1391" on="0"/>
        <pt x="2509" y="1543" on="0"/>
        <pt x="2416" y="1655" on="0"/>
        <pt x="2324" y="1750" on="0"/>
        <pt x="2241" y="1819" on="0"/>
        <pt x="2208" y="1845" on="1"/>
        <pt x="2138" y="1901" on="0"/>
      </contour>
      <contour>
        <pt x="1212" y="656" on="1"/>
        <pt x="1212" y="575" on="0"/>
        <pt x="1328" y="455" on="0"/>
        <pt x="1523" y="455" on="0"/>
        <pt x="1630" y="486" on="0"/>
        <pt x="1692" y="533" on="0"/>
        <pt x="1712" y="565" on="1"/>
        <pt x="1745" y="618" on="0"/>
        <pt x="1745" y="684" on="1"/>
        <pt x="1745" y="1061" on="1"/>
        <pt x="1498" y="1061" on="0"/>
        <pt x="1350" y="932" on="1"/>
        <pt x="1212" y="810" on="0"/>
      </contour>
    </TTGlyph>
    <TTGlyph name="atilde" xMin="111" yMin="-70" xMax="1524" yMax="2437">
      <component glyphName="tildecomb" x="1520" y="0" flags="0x1004"/>
      <component glyphName="a" x="0" y="0" flags="0x1004"/>
    </TTGlyph>
    <TTGlyph name="atilde.sc" xMin="111" yMin="0" xMax="1860" yMax="2437">
      <component glyphName="tildecomb" x="1831" y="0" flags="0x1004"/>
      <component glyphName="a.sc" x="0" y="0" flags="0x1004"/>
    </TTGlyph>
    <TTGlyph name="b" xMin="49" yMin="-37" xMax="1966" yMax="2961">
      <contour>
        <pt x="340" y="86" on="1"/>
        <pt x="352" y="635" on="1"/>
        <pt x="352" y="2642" on="1"/>
        <pt x="352" y="2765" on="0"/>
        <pt x="295" y="2765" on="1"/>
        <pt x="263" y="2765" on="0"/>
        <pt x="61" y="2720" on="1"/>
        <pt x="49" y="2847" on="1"/>
        <pt x="187" y="2871" on="0"/>
        <pt x="639" y="2961" on="1"/>
        <pt x="639" y="1376" on="1"/>
        <pt x="646" y="1381" on="0"/>
        <pt x="717" y="1439" on="0"/>
        <pt x="780" y="1488" on="0"/>
        <pt x="891" y="1555" on="0"/>
        <pt x="945" y="1578" on="1"/>
        <pt x="1076" y="1634" on="0"/>
        <pt x="1402" y="1634" on="0"/>
        <pt x="1695" y="1506" on="0"/>
        <pt x="1784" y="1398" on="1"/>
        <pt x="1966" y="1177" on="0"/>
        <pt x="1966" y="868" on="1"/>
        <pt x="1966" y="433" on="0"/>
        <pt x="1655" y="154" on="1"/>
        <pt x="1441" y="-37" on="0"/>
        <pt x="1122" y="-37" on="1"/>
        <pt x="930" y="-37" on="0"/>
        <pt x="815" y="6" on="1"/>
        <pt x="597" y="86" on="0"/>
        <pt x="542" y="86" on="0"/>
        <pt x="416" y="-8" on="0"/>
        <pt x="385" y="-8" on="1"/>
        <pt x="340" y="-8" on="0"/>
      </contour>
      <contour>
        <pt x="1110" y="1413" on="1"/>
        <pt x="818" y="1413" on="0"/>
        <pt x="639" y="1262" on="1"/>
        <pt x="639" y="401" on="1"/>
        <pt x="639" y="197" on="0"/>
        <pt x="924" y="129" on="1"/>
        <pt x="999" y="111" on="0"/>
        <pt x="1130" y="111" on="0"/>
        <pt x="1232" y="123" on="0"/>
        <pt x="1353" y="159" on="0"/>
        <pt x="1458" y="215" on="0"/>
        <pt x="1558" y="311" on="0"/>
        <pt x="1593" y="372" on="1"/>
        <pt x="1671" y="510" on="0"/>
        <pt x="1671" y="853" on="0"/>
        <pt x="1619" y="1070" on="0"/>
        <pt x="1539" y="1210" on="0"/>
        <pt x="1427" y="1316" on="0"/>
        <pt x="1324" y="1371" on="0"/>
        <pt x="1267" y="1388" on="1"/>
        <pt x="1183" y="1413" on="0"/>
      </contour>
    </TTGlyph>
    <TTGlyph name="b.sc" xMin="111" yMin="0" xMax="1573" yMax="1606">
      <contour>
        <pt x="111" y="1475" on="1"/>
        <pt x="111" y="1606" on="1"/>
        <pt x="811" y="1606" on="1"/>
        <pt x="1140" y="1606" on="0"/>
        <pt x="1220" y="1584" on="1"/>
        <pt x="1520" y="1498" on="0"/>
        <pt x="1520" y="1233" on="1"/>
        <pt x="1520" y="1117" on="0"/>
        <pt x="1423" y="997" on="0"/>
        <pt x="1350" y="935" on="0"/>
        <pt x="1314" y="916" on="1"/>
        <pt x="1246" y="881" on="0"/>
        <pt x="1180" y="860" on="1"/>
        <pt x="1381" y="835" on="0"/>
        <pt x="1496" y="687" on="1"/>
        <pt x="1573" y="587" on="0"/>
        <pt x="1573" y="345" on="0"/>
        <pt x="1503" y="203" on="0"/>
        <pt x="1403" y="113" on="0"/>
        <pt x="1239" y="49" on="0"/>
        <pt x="1108" y="19" on="0"/>
        <pt x="1012" y="10" on="1"/>
        <pt x="892" y="0" on="0"/>
        <pt x="741" y="0" on="1"/>
        <pt x="152" y="0" on="1"/>
        <pt x="152" y="131" on="1"/>
        <pt x="274" y="131" on="1"/>
        <pt x="350" y="131" on="0"/>
        <pt x="397" y="159" on="0"/>
        <pt x="397" y="213" on="1"/>
        <pt x="397" y="1376" on="1"/>
        <pt x="397" y="1447" on="0"/>
        <pt x="360" y="1466" on="0"/>
        <pt x="334" y="1470" on="1"/>
        <pt x="303" y="1475" on="0"/>
        <pt x="205" y="1475" on="1"/>
      </contour>
      <contour>
        <pt x="680" y="831" on="1"/>
        <pt x="684" y="225" on="1"/>
        <pt x="684" y="182" on="0"/>
        <pt x="744" y="160" on="0"/>
        <pt x="840" y="160" on="1"/>
        <pt x="868" y="160" on="1"/>
        <pt x="1049" y="160" on="0"/>
        <pt x="1169" y="226" on="0"/>
        <pt x="1200" y="256" on="1"/>
        <pt x="1266" y="318" on="0"/>
        <pt x="1266" y="521" on="0"/>
        <pt x="1208" y="648" on="0"/>
        <pt x="1108" y="730" on="0"/>
        <pt x="990" y="788" on="0"/>
        <pt x="920" y="803" on="1"/>
        <pt x="791" y="831" on="0"/>
      </contour>
      <contour>
        <pt x="684" y="930" on="1"/>
        <pt x="975" y="930" on="1"/>
        <pt x="1074" y="930" on="0"/>
        <pt x="1233" y="1087" on="0"/>
        <pt x="1233" y="1254" on="0"/>
        <pt x="1175" y="1357" on="0"/>
        <pt x="1083" y="1419" on="0"/>
        <pt x="1021" y="1440" on="1"/>
        <pt x="914" y="1475" on="0"/>
        <pt x="729" y="1475" on="0"/>
        <pt x="684" y="1435" on="0"/>
        <pt x="684" y="1380" on="1"/>
      </contour>
    </TTGlyph>
    <TTGlyph name="backslash" xMin="152" yMin="-946" xMax="1741" yMax="2892">
      <contour>
        <pt x="152" y="2892" on="1"/>
        <pt x="344" y="2892" on="1"/>
        <pt x="1741" y="-946" on="1"/>
        <pt x="1548" y="-946" on="1"/>
      </contour>
    </TTGlyph>
    <TTGlyph name="backslash.uppercase" xMin="152" yMin="-741" xMax="1741" yMax="3097">
      <component glyphName="backslash" x="0" y="205" flags="0x1004"/>
    </TTGlyph>
    <TTGlyph name="bar" xMin="360" yMin="-946" xMax="541" yMax="2892">
      <contour>
        <pt x="360" y="-946" on="1"/>
        <pt x="360" y="2892" on="1"/>
        <pt x="541" y="2892" on="1"/>
        <pt x="541" y="-946" on="1"/>
      </contour>
    </TTGlyph>
    <TTGlyph name="braceleft" xMin="70" yMin="-946" xMax="1081" yMax="2892">
      <contour>
        <pt x="397" y="-98" on="1"/>
        <pt x="414" y="401" on="1"/>
        <pt x="414" y="639" on="0"/>
        <pt x="355" y="787" on="0"/>
        <pt x="326" y="839" on="0"/>
        <pt x="280" y="879" on="0"/>
        <pt x="245" y="901" on="0"/>
        <pt x="188" y="919" on="0"/>
        <pt x="151" y="927" on="0"/>
        <pt x="88" y="938" on="0"/>
        <pt x="70" y="942" on="1"/>
        <pt x="70" y="1020" on="1"/>
        <pt x="84" y="1023" on="0"/>
        <pt x="177" y="1040" on="0"/>
        <pt x="240" y="1058" on="0"/>
        <pt x="333" y="1123" on="0"/>
        <pt x="354" y="1175" on="1"/>
        <pt x="410" y="1309" on="0"/>
        <pt x="410" y="1561" on="1"/>
        <pt x="397" y="2060" on="1"/>
        <pt x="397" y="2690" on="0"/>
        <pt x="817" y="2848" on="1"/>
        <pt x="934" y="2892" on="0"/>
        <pt x="1081" y="2892" on="1"/>
        <pt x="1081" y="2773" on="1"/>
        <pt x="786" y="2773" on="0"/>
        <pt x="706" y="2510" on="1"/>
        <pt x="659" y="2358" on="0"/>
        <pt x="659" y="2085" on="1"/>
        <pt x="680" y="1495" on="1"/>
        <pt x="680" y="1285" on="0"/>
        <pt x="555" y="1040" on="0"/>
        <pt x="406" y="983" on="1"/>
        <pt x="601" y="909" on="0"/>
        <pt x="652" y="701" on="1"/>
        <pt x="676" y="604" on="0"/>
        <pt x="676" y="467" on="1"/>
        <pt x="659" y="-119" on="1"/>
        <pt x="659" y="-408" on="0"/>
        <pt x="717" y="-597" on="0"/>
        <pt x="780" y="-712" on="0"/>
        <pt x="824" y="-747" on="1"/>
        <pt x="923" y="-827" on="0"/>
        <pt x="1081" y="-827" on="1"/>
        <pt x="1081" y="-946" on="1"/>
        <pt x="397" y="-946" on="0"/>
      </contour>
    </TTGlyph>
    <TTGlyph name="braceright" xMin="70" yMin="-946" xMax="1081" yMax="2892">
      <contour>
        <pt x="741" y="401" on="1"/>
        <pt x="758" y="-98" on="1"/>
        <pt x="758" y="-755" on="0"/>
        <pt x="336" y="-904" on="1"/>
        <pt x="219" y="-946" on="0"/>
        <pt x="70" y="-946" on="1"/>
        <pt x="70" y="-827" on="1"/>
        <pt x="427" y="-827" on="0"/>
        <pt x="481" y="-407" on="1"/>
        <pt x="496" y="-290" on="0"/>
        <pt x="496" y="-119" on="1"/>
        <pt x="475" y="467" on="1"/>
        <pt x="475" y="672" on="0"/>
        <pt x="602" y="927" on="0"/>
        <pt x="750" y="983" on="1"/>
        <pt x="600" y="1040" on="0"/>
        <pt x="475" y="1286" on="0"/>
        <pt x="475" y="1495" on="1"/>
        <pt x="475" y="1495" on="0"/>
        <pt x="492" y="2085" on="1"/>
        <pt x="492" y="2456" on="0"/>
        <pt x="408" y="2597" on="1"/>
        <pt x="355" y="2686" on="0"/>
        <pt x="298" y="2717" on="1"/>
        <pt x="194" y="2773" on="0"/>
        <pt x="70" y="2773" on="1"/>
        <pt x="70" y="2892" on="1"/>
        <pt x="492" y="2892" on="0"/>
        <pt x="661" y="2545" on="1"/>
        <pt x="758" y="2345" on="0"/>
        <pt x="758" y="2060" on="1"/>
        <pt x="741" y="1561" on="1"/>
        <pt x="741" y="1322" on="0"/>
        <pt x="797" y="1178" on="0"/>
        <pt x="824" y="1125" on="0"/>
        <pt x="870" y="1084" on="0"/>
        <pt x="905" y="1062" on="0"/>
        <pt x="935" y="1052" on="1"/>
        <pt x="980" y="1038" on="0"/>
        <pt x="1048" y="1026" on="0"/>
        <pt x="1053" y="1025" on="1"/>
        <pt x="1070" y="1022" on="0"/>
        <pt x="1081" y="1020" on="1"/>
        <pt x="1081" y="942" on="1"/>
        <pt x="1064" y="938" on="0"/>
        <pt x="1000" y="927" on="0"/>
        <pt x="964" y="919" on="0"/>
        <pt x="907" y="901" on="0"/>
        <pt x="873" y="879" on="0"/>
        <pt x="827" y="839" on="0"/>
        <pt x="799" y="787" on="0"/>
        <pt x="768" y="709" on="0"/>
        <pt x="760" y="660" on="1"/>
        <pt x="741" y="544" on="0"/>
      </contour>
    </TTGlyph>
    <TTGlyph name="bracketleft" xMin="360" yMin="-946" xMax="1266" yMax="2892">
      <contour>
        <pt x="360" y="-946" on="1"/>
        <pt x="360" y="2892" on="1"/>
        <pt x="1266" y="2892" on="1"/>
        <pt x="1266" y="2769" on="1"/>
        <pt x="614" y="2769" on="1"/>
        <pt x="614" y="-827" on="1"/>
        <pt x="1266" y="-827" on="1"/>
        <pt x="1266" y="-946" on="1"/>
      </contour>
    </TTGlyph>
    <TTGlyph name="bracketright" xMin="70" yMin="-946" xMax="975" yMax="2892">
      <contour>
        <pt x="70" y="-827" on="1"/>
        <pt x="721" y="-827" on="1"/>
        <pt x="721" y="2769" on="1"/>
        <pt x="70" y="2769" on="1"/>
        <pt x="70" y="2892" on="1"/>
        <pt x="975" y="2892" on="1"/>
        <pt x="975" y="-946" on="1"/>
        <pt x="70" y="-946" on="1"/>
      </contour>
    </TTGlyph>
</ttFont>
